<?xml version="1.0" encoding="utf-8"?>
<!-- Generator: Adobe Illustrator 16.0.4, SVG Export Plug-In . SVG Version: 6.00 Build 0)  -->
<!DOCTYPE svg PUBLIC "-//W3C//DTD SVG 1.1//EN" "http://www.w3.org/Graphics/SVG/1.1/DTD/svg11.dtd">
<svg version="1.1" id="Layer_1" xmlns="http://www.w3.org/2000/svg" xmlns:xlink="http://www.w3.org/1999/xlink" x="0px" y="0px"
	 width="85px" height="96px" viewBox="0 0 85 96" enable-background="new 0 0 85 96" xml:space="preserve">
<g id="All">
	<g id="brain">
		<g id="Group">
			<g id="Shape">
				<path fill="#35363C" d="M83,51.7c-0.9-1.4-2.1-2.5-3.2-3.5c-0.5-0.5-1-0.9-1.5-1.4c-0.7-0.7-2.3-2.6-1.8-4.4
					c0.1-0.5,0.4-1,0.7-1.5c0.2-0.3,0.399-0.7,0.6-1c1.601-3.3,1.101-7.1,0.4-10.1c-0.8-3.5-2-7-3.5-10.3c-1.7-3.7-3.4-6.4-5.5-8.6
					c-1.7-1.7-3.8-3.2-6.5-4.7C50.2-0.7,34.7-1.3,22,4.6c-3,1.4-5.3,2.9-7.2,4.6c-2.1,1.9-3.7,4.3-5.1,6.3c-3.1,4.7-6.9,11-8.3,18
					c-1.9,9.2,0.3,19.4,6,28.8l0.5,0.8c0.9,1.5,1.8,2.9,2.2,4.4c0.4,1.4,0.4,2.9,0.3,4.2C10.3,76.4,9.7,81,8.6,85.6
					C8.4,86.4,8.9,87.2,9.7,87.4c0.8,0.199,1.6-0.301,1.8-1.101c1.1-4.7,1.7-9.6,1.9-14.399c0-1.5,0.1-3.301-0.4-5.101
					c-0.5-1.899-1.5-3.6-2.5-5.2L10,60.8C4.6,52,2.6,42.5,4.3,34.1c1.3-6.5,4.9-12.5,7.9-16.9c1.3-1.9,2.8-4.1,4.6-5.8
					c1.6-1.5,3.7-2.8,6.4-4.1C35,1.8,49.6,2.4,61.1,8.7c2.5,1.4,4.4,2.7,5.801,4.2c1.8,1.9,3.399,4.3,4.899,7.7
					c1.4,3.1,2.5,6.4,3.3,9.8C75.7,32.9,76.2,36,75,38.5c-0.1,0.3-0.3,0.6-0.5,0.8c-0.4,0.6-0.8,1.3-1,2.2c-0.6,2.3,0.3,5,2.5,7.3
					c0.5,0.5,1.1,1,1.6,1.601c1,0.899,2,1.8,2.7,2.899c0.8,1.3,1,3.2-0.1,4c-0.601,0.4-1.4,0.5-2.4,0.7c-1,0.1-2.1,0.3-3.2,0.8
					C73,59.6,72,61.4,71.9,63.4C71.8,64.9,72.3,66.3,73.2,67.3C73.1,67.3,73.1,67.4,73.1,67.4c-0.6,0.5-2.199,1.8-1.1,3.5
					c0.3,0.5,0.8,0.699,1,0.899l0,0c0,0.101,0,0.101-0.1,0.2c-0.2,0.3-0.801,0.6-1.301,0.9c-0.5,0.199-0.8,0.699-0.8,1.3
					c0,0.5,0.2,1.1,0.7,1.3c0.6,0.4,0.8,1,0.9,1.4c0.199,0.899-0.101,2-0.7,2.8c-1,1.3-2.7,2.1-5.5,2.6c-2.7,0.5-5.4,0.7-8.101,0.4
					c-2.5-0.2-6-0.5-7.899,2.1c-1.4,1.9-1,4.101-0.601,6.101C49.7,91.5,49.8,92.1,49.9,92.6V94c0,0.8,0.6,1.4,1.399,1.5H51.4
					c0.699,0,1.399-0.6,1.5-1.3c0.1-0.601,0.1-1.2,0-1.8V92l0,0c-0.101-0.6-0.2-1.2-0.301-1.7c-0.3-1.8-0.5-2.899,0.101-3.8
					c0.899-1.2,3.2-1,5.3-0.9c2.9,0.2,5.9,0.101,8.8-0.5C69,84.7,72.1,83.8,74,81.4c1.1-1.4,1.6-3.4,1.3-5.101
					C75.2,75.6,75,75,74.6,74.4c0.301-0.2,0.5-0.5,0.801-0.801c0.8-1.199,0.899-3.1-0.301-4.1c0.7-0.6,1.9-1.7,1.4-3.2
					c-0.1-0.3-0.3-0.6-0.6-0.8c-0.7-0.5-1-1.4-1-2.1c0-0.7,0.3-1.601,1.1-2c0.6-0.301,1.4-0.4,2.2-0.5
					c1.3-0.2,2.7-0.301,3.899-1.301C84.6,57.8,84.5,54.1,83,51.7L83,51.7z"/>
				<path fill="#35363C" d="M56.5,39.5c1.1-1.4,1.4-3.1,1-4.7c1.3,0,2.4-0.3,3.5-0.7c2.4-1,4-3.2,4.1-5.5c0.101-3-2.399-5.3-5-6
					C60,22,59.9,21.4,59.7,20.8c-0.2-0.6-0.5-1.1-0.9-1.6c0.2-0.3,0.3-0.8,0.2-1.4c-0.6-3.3-2.8-5.9-5.5-7c-2-0.8-4.3-0.5-6.1,0.6
					c-0.4-0.8-1.101-1.5-2-1.9c-1.801-0.9-4-0.7-5.8,0.4c-0.6,0.4-1.1,0.9-1.6,1.4c-0.6-0.8-1.3-1.4-2.2-1.9c-1.7-0.9-3.8-1-5.9-0.4
					c-1.2,0.3-2.1,0.9-2.7,1.6c-1,1-1.4,2.4-1.4,4c-0.5,0-1-0.1-1.6,0c-2.6,0.3-5,1.7-6.7,3.6c-1.7,2-2.6,4.6-2.6,7.2v0.1
					c-0.5,0.3-0.9,0.5-1.3,0.8c-0.8,0.6-1.7,1.2-2.3,2.1c-1.4,1.9-1.8,4.5-0.9,7.1c0.5,1.7,1.4,3.1,2.4,4.5c-0.5,0.5-1,1-1.4,1.6
					c-0.3,0.4-0.6,1-0.7,1.8c-0.1,1.3,0.6,2.7,1.9,3.4c0.8,0.5,1.8,0.7,3,0.7h0.1c0.3,0,0.6,0,0.9-0.1c0,0.1,0,0.2,0.1,0.2
					c0.8,1.2,2.1,1.9,3,2.3c1,0.399,2.6,0.899,4.3,0.899c1.2,0,2.4-0.3,3.6-1c1.3-0.8,2.2-2.1,2.7-3.5c1.4,0.4,2.7,0.6,4.1,0.6
					c1.5,0,3-0.2,4.3-0.7c2.8-1,5-2.9,6.3-5.3c1.6,0.6,3.2,1.1,5,1.2C52.6,42.4,55.1,41.4,56.5,39.5L56.5,39.5z M44.7,37.8
					c-0.4-0.2-0.8-0.2-1.2,0c-0.4,0.2-0.7,0.5-0.8,0.9c-0.5,1.4-1.5,2.7-2.8,3.7c-0.1,0-0.2-0.1-0.3-0.1l-0.9-0.8
					c-0.5-0.4-1-0.8-1.2-1.2c-0.1-0.1-0.1-0.3-0.1-0.5c-0.1-0.9,0.1-1.9,0.6-2.7c0.4-0.7,0.3-1.6-0.4-2c-0.7-0.4-1.6-0.3-2,0.4
					c-0.9,1.4-1.3,3.1-1,4.7c0.1,0.5,0.2,0.9,0.4,1.3c0.5,1.1,1.3,1.8,2,2.3c-2,0.5-4.2,0.4-6.4-0.3c-0.2-1.2-0.8-2.3-1.6-3.1
					c-0.6-0.6-1.5-0.6-2.1,0s-0.6,1.5,0,2.1c0.7,0.7,1,1.7,0.9,2.7c-0.1,1-0.7,1.9-1.5,2.4c-1.8,1.1-4.2,0.2-5.2-0.2
					c-0.3-0.1-0.7-0.3-1.1-0.6c1.3-0.6,2.5-1.4,3.5-2.5c0.6-0.6,0.5-1.5-0.1-2.1c-0.6-0.6-1.5-0.5-2.1,0.1c-1.4,1.5-3.4,2.4-5.5,2.4
					c-0.7,0-1.2-0.1-1.6-0.3c-0.3-0.2-0.4-0.4-0.4-0.6c0-0.1,0.1-0.2,0.2-0.5c1.2-1.9,3.8-2.9,6-2.3c0.8,0.2,1.6-0.3,1.8-1
					c0.2-0.8-0.3-1.6-1.1-1.8c-1.8-0.5-3.7-0.3-5.3,0.4c-0.9-1.2-1.7-2.4-2.1-3.8c-0.5-1.7-0.3-3.4,0.5-4.4c0.4-0.5,1-1,1.6-1.4
					c1.1-0.7,2.5-1.6,3.9-1.6l0,0c1,0,2.1,0.6,2.3,1.5c0,0.1,0.1,0.3,0.1,0.4c0,0.2,0.1,0.4,0.2,0.6c0.4,0.7,1.4,0.9,2.1,0.5
					s1-1.3,0.7-2c-0.1-0.2-0.2-0.3-0.3-0.4c-0.7-2.3-3-3.5-5.2-3.5c-0.4,0-0.8,0.1-1.2,0.1c0.2-1.6,0.8-3.1,1.8-4.2
					c1.2-1.4,3-2.4,4.9-2.6c0.9-0.1,1.6,0,1.9,0.4c0.1,0.2,0.3,0.3,0.5,0.4c0.4,0.8,0.9,1.5,1.4,2.1c0.3,0.4,0.7,0.6,1.2,0.6
					c0.3,0,0.6-0.1,0.9-0.3c0.7-0.5,0.8-1.4,0.3-2.1c-0.8-1.1-1.6-2.2-1.9-3.3s-0.1-2.1,0.4-2.7c0.3-0.3,0.8-0.6,1.4-0.8
					c1.4-0.4,2.7-0.3,3.7,0.2s1.8,1.6,1.7,2.6c0,0.7,0.5,1.3,1.2,1.5c0.7,0.2,1.4-0.2,1.7-0.9c0.4-0.9,1.1-2.2,2.2-2.9
					c0.9-0.6,2.101-0.7,2.9-0.3c0.7,0.4,1.2,1.3,0.899,2C44.8,15,45.2,15.9,45.9,16.2c0.699,0.3,1.6,0,1.899-0.8
					c0.7-1.5,3-2.3,4.7-1.7c1.6,0.6,2.9,2.1,3.5,4l0,0c-0.6-0.1-1.1,0-1.6,0c-1.301,0.2-2.5,0.5-3.7,1c-0.8,0.3-1.101,1.2-0.8,1.9
					c0.3,0.7,1.199,1.1,1.899,0.8c0.9-0.4,1.9-0.7,2.9-0.8c0.399-0.1,1.1-0.1,1.5,0.1c0.3,0.2,0.6,0.5,0.7,1
					c0.1,0.2,0.1,0.5,0.199,0.7c-3.1,0.5-5.899,2.8-6.8,5.9c-0.2,0.8,0.3,1.6,1,1.8c0.8,0.2,1.601-0.3,1.8-1
					c0.601-2.4,3.301-4.1,5.7-3.8c1.601,0.2,3.3,1.6,3.2,3.2c0,0.3-0.1,0.5-0.2,0.8l-0.1-0.1c-0.4-0.2-0.9-0.2-1.3-0.1
					c-0.5-0.2-1.101-0.8-1.601-1.4c-0.5-0.6-1.5-0.7-2.1-0.1C56.1,28.1,56,29.1,56.6,29.7c0.5,0.6,1.301,1.5,2.4,2
					c-1,0.3-2.3,0.3-3.9,0.1c-0.699-0.1-1.3,0.3-1.6,0.9c-0.3,0.6-0.1,1.3,0.4,1.7c0.899,0.7,0.899,2.3,0.1,3.4
					c-0.8,1.1-2.4,1.7-4.2,1.6C48.2,39.2,46.4,38.5,44.7,37.8L44.7,37.8z"/>
				<path fill="#35363C" d="M45.1,30.6c0-1,0.101-2.2-0.8-3.3c-0.899-1.1-2.3-1.5-4-1.1c-0.1-0.3-0.1-0.6-0.2-0.9
					c-0.3-1-0.9-1.8-1.6-2.3c-1.4-1.1-3.2-0.9-4.5-0.7c-3.4,0.6-5.8,1.9-7.1,3.9c-0.4,0.7-0.2,1.6,0.4,2c0.7,0.4,1.6,0.2,2-0.4
					c0.8-1.3,2.6-2.2,5.1-2.6c0.7-0.1,1.7-0.2,2.3,0.2c0.2,0.2,0.4,0.5,0.6,0.9c0.2,0.5,0.2,1,0.2,1.6c-0.1,0.1-0.1,0.2-0.1,0.4
					c-0.2,0.5-0.1,1.1,0.3,1.6c0.3,0.5,0.9,0.7,1.5,0.6c0.6-0.1,1-0.5,1.1-1.1c0.9-0.3,1.6-0.3,1.8-0.1c0.2,0.2,0.2,0.8,0.1,1.4v0.2
					C42.1,30.8,42,31,42,31.2c-0.1,0.5,0.1,1,0.5,1.3c0.3,0.4,0.7,0.7,1.3,0.7H43.9c0.8,0,1.399-0.7,1.399-1.4v-0.3
					C45.1,31.2,45.1,30.9,45.1,30.6L45.1,30.6z"/>
				<path fill="#35363C" d="M28.6,30.8c-0.7-0.1-1.5,0-2.1,0.5c-0.2,0.1-0.4,0.3-0.6,0.4c-0.2-0.1-0.4-0.3-0.7-0.4
					c-0.5-0.2-0.9-0.2-1.3-0.1c-1.7,0.1-3.3,0.8-4.6,2c-0.6,0.6-0.6,1.5,0,2.1c0.3,0.3,0.7,0.5,1.1,0.5s0.7-0.1,1-0.4
					c0.7-0.7,1.7-1.1,2.8-1.2c0,0.1,0.1,0.1,0.2,0.2c0.2,0.2,0.4,0.5,0.8,0.8c0.3,0.3,0.8,0.3,1.2,0.3c0.4-0.1,0.8-0.3,1-0.7
					c0.2-0.4,0.5-0.8,0.8-1c0.5,0.4,1.2,0.4,1.7,0.1c0.4-0.3,0.6-0.7,0.6-1.1c0.2-0.5,0.1-1-0.2-1.5C29.9,30.7,29.2,30.6,28.6,30.8
					L28.6,30.8z"/>
				<path fill="#35363C" d="M35,19.8c0.9,0.4,1.8,0.6,2.8,0.6c0.8,0,1.7-0.2,2.4-0.5c1.4-0.6,2.6-1.7,3.2-3.1
					c0.5-0.5,0.5-1.5,0.1-2.1c-0.3-0.4-0.9-0.6-1.4-0.6c-0.5,0.1-1,0.5-1.2,1c-0.3,0.9-1,1.6-1.9,2s-1.9,0.3-2.7-0.1
					c-0.7-0.4-1.6-0.1-2,0.7C33.9,18.5,34.2,19.4,35,19.8L35,19.8z"/>
			</g>
		</g>
	</g>
</g>
</svg>
