<?xml version="1.0" encoding="utf-8"?>
<!-- Generator: Adobe Illustrator 16.0.4, SVG Export Plug-In . SVG Version: 6.00 Build 0)  -->
<!DOCTYPE svg PUBLIC "-//W3C//DTD SVG 1.1//EN" "http://www.w3.org/Graphics/SVG/1.1/DTD/svg11.dtd">
<svg version="1.1" id="Layer_1" xmlns="http://www.w3.org/2000/svg" xmlns:xlink="http://www.w3.org/1999/xlink" x="0px" y="0px"
	 width="64px" height="97px" viewBox="0 0 64 97" enable-background="new 0 0 64 97" xml:space="preserve">
<title>empower</title>
<desc>Created with Sketch Beta.</desc>
<g id="Editorial-_x2F_-Documentation">
	<g id="empower" transform="translate(-17.000000, -1.000000)">
		<g id="Group">
			<rect id="Rectangle-6" fill="#D8D8D8" fill-opacity="0" width="98" height="98"/>
			<g id="Shape" transform="translate(17.000000, 0.000000)">
				<path fill="#35363C" d="M49.6,63.5c0.601,0,1-0.4,1.101-1c0.399-1.9,0.8-3.8,0.7-5.8C51.1,50.2,45.7,45.3,40.6,43.4
					c-5.899-2.2-12.3-1.6-17.2-0.8c-2.3,0.4-4.5,0.8-6.7,1.4c-1.7,0.4-3.6,0.9-5.3,2c-2,1.2-3.3,3-3.7,4.9V51.1
					c-1,0.7-1.9,1.7-2.7,3.301C3.5,57.6,3.1,61.2,3.8,64.6C3.9,65,4.1,65.3,4.5,65.4c0,3.5,1.7,7,4.6,8.899
					c0.1,0.101,0.3,0.2,0.5,0.2c1.4,4.9,4,10.6,9.1,14.6c0.7,0.601,1.4,1,2.2,1.5c-0.8,1.9-2.3,3.4-4.2,4.2
					c-0.6,0.3-0.9,1-0.6,1.601c0.2,0.399,0.6,0.699,1.1,0.699c0.2,0,0.3,0,0.5-0.1c2.4-1,4.3-3,5.3-5.3c2.3,1,4.8,1.5,7.2,1.5
					c2.6,0,5.1-0.601,7.3-1.8c1.6,2,3.4,4,5.4,5.699c0.199,0.2,0.5,0.301,0.8,0.301c0.2,0,0.5-0.101,0.7-0.2
					c0.399-0.3,0.6-0.9,0.5-1.4l-0.301-1C44.4,94.2,43.8,93.9,43.2,94c-1.3-1.2-2.4-2.5-3.5-3.9c1.1-0.899,2.2-2,3.3-3.399
					c3.1-3.9,5.1-8.4,6-13.2c1.4-1.1,3-2.6,3.5-4.7c0.3-1.399-0.1-3.1-1.1-4.2C50.6,64,50.1,63.6,49.6,63.5L49.6,63.5z M48.6,61
					h-0.3c0-0.1,0-0.2-0.1-0.2l0,0h0.3C48.7,60.9,48.6,60.9,48.6,61L48.6,61z M7.1,55.3c0.6-1.2,1.2-2,1.9-2.399
					c0.4-0.2,0.6-0.601,0.6-1C9.8,51.7,9.9,51.6,9.9,51.3c0.3-1.3,1.2-2.5,2.6-3.4s3.1-1.3,4.7-1.7c2.2-0.5,4.4-1,6.6-1.3
					c4.6-0.7,10.601-1.3,16,0.7c4.4,1.6,9,5.7,9.3,11.2v1.5L48.3,57.4c-0.5-0.4-1.3-0.4-1.8,0c-0.2,0.199-0.3,0.3-0.3,0.6
					c0,0,0,0-0.101,0c-1.8-0.2-3.699-0.2-5.5-0.1H38.2c-2.7,0-6.5-0.301-9.2-2.5C28.6,55.1,28.1,55,27.6,55.3
					c-0.4,0.3-0.6,0.8-0.5,1.3c0.4,1.801,1.1,3.601,2,5.2c-6-0.6-11.9-2.8-16.9-6.399c-0.1,0-0.1-0.101-0.2-0.2
					c0.2-0.4,0.2-0.8-0.1-1.2c-0.4-0.5-1.1-0.7-1.6-0.4C9.8,53.9,9.5,54.4,9.5,55c0,0.9,0.7,1.8,1.3,2.2c0,0,0.1,0,0.1,0.1
					c-1,1.2-1.7,2.601-2.1,4.101H8.6H6H5.8C5.7,59.4,6.2,57.2,7.1,55.3L7.1,55.3z M6.9,63.8h1.4c-0.3,2.3-0.1,4.7,0.3,6.8
					C7.1,68.8,6.4,66.2,6.9,63.8L6.9,63.8z M40.8,85c-1.3,1.6-2.6,2.9-3.899,3.7C32.2,91.7,25.1,91.1,20,87.1
					c-4.6-3.6-7-8.8-8.2-13.3c0.1-0.3,0.2-0.5,0.2-0.899c0-0.4-0.3-0.801-0.7-1C11.2,71.6,11.2,71.3,11.1,71
					c-0.6-3.2-1.2-8.8,1.8-12.3c5.5,3.399,11.9,5.399,18.3,5.6l0,0c0.4,0,0.8-0.2,1-0.6c0.2-0.4,0.2-0.9,0-1.2
					c-0.8-1.1-1.4-2.3-1.9-3.6c2.7,1.1,5.601,1.3,7.8,1.3h2.5c1.801,0,3.4,0,5.101,0.1c0.899,3.3,1.2,6.7,0.8,10.2
					c-0.3,0-0.6,0.1-0.9,0.3c-0.5,0.5-0.5,1.2,0,1.7l0.5,0.5C45.4,77.4,43.5,81.6,40.8,85L40.8,85z M49.8,68
					c-0.1,0.5-0.399,1-0.8,1.5c0.1-1.2,0.1-2.5,0-3.7l0.2,0.2C49.8,66.5,50,67.4,49.8,68L49.8,68z"/>
				<path fill="#35363C" d="M25.3,76.1c0.9,0.601,1.9,0.9,3,0.9c0.5,0,1-0.1,1.4-0.2c0.6-0.2,1-0.8,0.8-1.5c-0.2-0.6-0.8-1-1.5-0.8
					c-0.6,0.2-1.2,0.1-1.8-0.1c0.2-1.2,0.6-2.301,1.3-3.2c0.4-0.5,0.3-1.3-0.3-1.7c-0.5-0.4-1.3-0.3-1.7,0.3
					c-1.1,1.5-1.8,3.4-1.9,5.2C24.8,75.5,25,75.9,25.3,76.1L25.3,76.1z"/>
				<path fill="#35363C" d="M36.1,79.5c-0.6,0.9-1.199,1.8-2,2.5c-2.3,2.1-6.2,2.3-8.7,0.3c-0.5-0.399-1.3-0.3-1.7,0.2
					c-0.4,0.5-0.3,1.3,0.2,1.7c1.6,1.3,3.6,1.899,5.6,1.899c2.3,0,4.5-0.8,6.2-2.3C36.6,82.9,37.3,81.9,38,80.9l-1-0.7L36.1,79.5
					L36.1,79.5z"/>
				<path fill="#35363C" d="M21.4,65.6c-2.3-0.399-4.7,0.2-6.6,1.5c-0.5,0.4-0.7,1.101-0.3,1.601c0.2,0.3,0.6,0.5,1,0.5
					c0.2,0,0.5-0.101,0.7-0.2c1.4-1,3.2-1.4,4.9-1.1c0.6,0.1,1.3-0.301,1.4-1C22.5,66.3,22.1,65.7,21.4,65.6L21.4,65.6z"/>
				<path fill="#35363C" d="M40.2,65.9c-2.2-0.5-4.5-0.5-6.7-0.101c-0.6,0.101-1.1,0.7-0.9,1.4c0.101,0.6,0.7,1.1,1.4,0.899
					c1.9-0.399,3.9-0.3,5.8,0.101h0.3c0.5,0,1-0.4,1.2-0.9C41.3,66.7,40.8,66,40.2,65.9L40.2,65.9z"/>
				<path fill="#35363C" d="M53.6,12.5c-0.399-0.3-0.899-0.3-1.3,0c-3.8,2.4-7.399,5.1-10.899,7.9c-1.2-2.9-2.801-5.5-4.7-8
					c-0.2-0.3-0.601-0.5-1-0.5c-0.4,0-0.7,0.2-0.9,0.5c-1.8,2.6-3.5,5.3-5.1,8c-2.4-2-4.9-3.9-7.5-5.6c-0.3-0.2-0.7-0.2-1-0.1
					c-0.3,0.1-0.6,0.4-0.7,0.7c-0.7,2-1.2,4-1.4,6.1c-3-2.1-6.2-3.8-9.6-5.3C9,16,8.3,16.2,8,16.7c-0.2,0.4-0.2,0.8,0,1.2
					c0,0.2,0,0.4,0.1,0.5c2.8,5.8,5.1,11.9,6.8,18.1c0.1,0.5,0.6,0.8,1.1,0.9c9.8,0.6,19.7,0.9,29.5,1l0,0c0.5,0,0.9-0.3,1.1-0.7
					c3.301-7.7,5.9-15.8,7.601-24C54.2,13.2,54,12.7,53.6,12.5L53.6,12.5z M44.6,36C35.4,35.9,26,35.6,16.8,35.1
					c-1.5-5.3-3.3-10.4-5.6-15.4c2.8,1.4,5.5,3.1,8.1,4.9c0.4,0.3,0.8,0.3,1.2,0.1c0.4-0.2,0.7-0.6,0.7-1c0.1-2.1,0.5-4.1,1-6.1
					c2.4,1.7,4.8,3.5,7,5.5c0.3,0.2,0.6,0.3,1,0.3c0.4-0.1,0.7-0.3,0.8-0.6c1.5-2.6,3.1-5.2,4.7-7.7c1.7,2.3,3,4.9,4,7.6
					c0.1,0.4,0.399,0.6,0.8,0.7s0.8,0,1.1-0.2c3-2.5,6.2-4.9,9.5-7.2C49.5,22.9,47.3,29.6,44.6,36L44.6,36z"/>
				<path fill="#35363C" d="M6.6,31.2c0.6,0,1.1-0.5,1.2-1.1c0.1-0.6-0.3-1.2-0.9-1.3l-0.7-0.2c-0.3-0.1-0.6,0-0.8,0.1H1.8l0,0
					c-0.7,0-1.2,0.5-1.2,1.2c0,0.7,0.5,1.2,1.2,1.2L6.6,31.2L6.6,31.2L6.6,31.2z"/>
				<path fill="#35363C" d="M16.1,10.2c0.2,0.2,0.5,0.3,0.8,0.3c0.3,0,0.6-0.1,0.9-0.4c0.4-0.5,0.4-1.2-0.1-1.7l-3.4-3.2
					c-0.5-0.4-1.2-0.4-1.7,0.1c-0.4,0.5-0.4,1.2,0.1,1.7L16.1,10.2L16.1,10.2z"/>
				<path fill="#35363C" d="M32.2,7c0.1,0.1,0.3,0.1,0.399,0.1c0.5,0,0.9-0.3,1.101-0.7c0.5-1.3,0.899-2.7,1.2-4
					C35,1.8,34.6,1.1,34,1s-1.3,0.3-1.4,0.9c-0.2,1.1-0.6,2.4-1,3.5C31.3,6.1,31.6,6.7,32.2,7L32.2,7z"/>
				<path fill="#35363C" d="M47.3,9.4c0.3,0,0.5-0.1,0.7-0.3c1.5-1.2,3.2-2.4,4.8-3.5C53.4,5.2,53.5,4.5,53.2,4
					C52.8,3.4,52.1,3.3,51.6,3.6c-1.699,1.1-3.399,2.3-5,3.6C46.1,7.6,46,8.4,46.4,8.9C46.6,9.2,46.9,9.4,47.3,9.4L47.3,9.4z"/>
				<path fill="#35363C" d="M62.1,23.6c-2.1,0.3-4.3,0.7-6.3,1.2c-0.6,0.2-1,0.8-0.899,1.4c0.1,0.5,0.6,0.9,1.1,0.9h0.3
					c2-0.5,4-0.9,6-1.2c0.601-0.1,1.101-0.7,1-1.3C63.4,24,62.8,23.5,62.1,23.6L62.1,23.6z"/>
			</g>
		</g>
	</g>
</g>
</svg>
