<?xml version="1.0" encoding="utf-8"?>
<!-- Generator: Adobe Illustrator 16.0.4, SVG Export Plug-In . SVG Version: 6.00 Build 0)  -->
<!DOCTYPE svg PUBLIC "-//W3C//DTD SVG 1.1//EN" "http://www.w3.org/Graphics/SVG/1.1/DTD/svg11.dtd">
<svg version="1.1" id="Layer_1" xmlns="http://www.w3.org/2000/svg" xmlns:xlink="http://www.w3.org/1999/xlink" x="0px" y="0px"
	 width="98px" height="98px" viewBox="0 0 98 98" enable-background="new 0 0 98 98" xml:space="preserve">
<title>engage</title>
<desc>Created with Sketch Beta.</desc>
<g id="Editorial-_x2F_-Documentation">
	<g id="engage">
		<g id="Group">
			<rect id="Rectangle-6" fill="#CCD6D1" width="98" height="98"/>
			<path id="Shape" fill="#35363C" d="M69.807,54.489c-3.693,0.135-7.39-0.249-10.926-1.36c-1.783-0.562-3.48-1.322-5.143-2.16
				c2.725-4.599,5.037-9.452,8.133-13.823c0.753-1.064,1.596-2.107,2.512-3.095c1.529,1.34,2.961,2.786,4.182,4.336
				c2.939,3.729,3.67,8.227,3.027,12.868c-0.143,1.018-0.324,2.082-0.55,3.17C70.631,54.45,70.22,54.475,69.807,54.489 M7.15,34.03
				c0-0.001,0.001-0.003,0.001-0.004c0.001,0.001,0.003,0.003,0.004,0.004H7.15 M92.706,47.113
				c-2.462,0.101-4.864-0.094-7.272-0.626c-1.643-0.362-2.345,2.188-0.697,2.552c1.804,0.397,3.614,0.635,5.44,0.715
				c-0.09,0.029-0.183,0.066-0.274,0.114c-0.438,0.162-0.879,0.322-1.318,0.479c-0.887,0.316-1.775,0.621-2.669,0.914
				c-1.644,0.537-3.302,1.031-4.976,1.467c-2.379,0.617-4.791,1.117-7.227,1.431c1.16-5.465,1.124-11.191-2.086-16.012
				c-1.419-2.13-3.235-4.169-5.274-6.027c4.363-3.853,9.962-6.205,15.769-4.149c1.595,0.563,2.279-1.992,0.697-2.552
				c-6.341-2.243-13.004,0.217-17.957,4.427c-0.196,0.166-0.383,0.343-0.572,0.515c-2.834-2.263-5.952-4.168-8.973-5.512
				c-6.763-3.013-14.284-3.397-21.518-2.261c-9.105,1.429-17.583,5.369-25.864,9.284c0.886-2.432,1.771-4.862,2.657-7.294
				c0.583-1.601-1.947-2.292-2.525-0.704c-1.332,3.657-2.665,7.315-3.997,10.972c-0.313,0.858,0.483,1.627,1.263,1.674
				c3.353,0.206,6.565,0.863,9.745,1.95c1.601,0.546,2.288-2.009,0.697-2.552c-2.22-0.757-4.468-1.3-6.755-1.648
				c15.662-7.396,34.432-15.057,50.378-4.066c0.973,0.671,1.951,1.388,2.914,2.14c-4.248,4.71-6.977,10.729-10.123,16.182
				c-0.242,0.417-0.486,0.831-0.736,1.243c-0.885-0.479-1.769-0.962-2.655-1.433c-6.096-3.24-12.295-4.984-19.23-4.313
				c-6.854,0.663-13.351,3.071-19.606,5.863c-1.54,0.688-0.207,2.968,1.322,2.285c8.101-3.617,17.227-6.827,26.202-5.306
				c4.548,0.77,8.547,2.961,12.577,5.095c-3.414,5.141-7.654,9.776-13.035,12.83c-7.384,4.19-15.277,3.542-23.081,1.428
				c3.256-1.205,6.396-2.682,9.42-4.434c1.462-0.848,0.144-3.134-1.322-2.285c-3.878,2.247-7.932,4.016-12.214,5.321
				c-0.803,0.245-1.034,1.004-0.863,1.64c-0.06,0.274-0.039,0.575,0.113,0.887c1.471,3.021,3.39,5.754,5.699,8.179
				c1.171,1.229,3.023-0.644,1.853-1.871c-1.469-1.541-2.744-3.214-3.844-5.013c7.138,2.01,14.601,3.043,21.709,0.262
				c6.251-2.445,11.419-7.035,15.499-12.324c0.852-1.104,1.642-2.247,2.391-3.414c2.565,1.301,5.185,2.465,8.009,3.12
				c3.295,0.763,6.651,0.979,10.002,0.815c-1.574,5.758-4.48,11.628-9.457,14.272c-1.492,0.794-0.17,3.079,1.322,2.285
				c5.605-2.981,8.305-9.022,10.186-14.834c0.207-0.635,0.402-1.28,0.586-1.933c3.685-0.396,7.341-1.207,10.873-2.24
				c1.428-0.418,2.84-0.883,4.246-1.368c-0.59,0.909-1.188,1.815-1.799,2.711c-0.957,1.406,1.312,2.729,2.264,1.335
				c1.209-1.773,2.373-3.576,3.505-5.4c0.538-0.25,1.022-0.56,1.356-0.976c0.495-0.612,0.582-1.332,0.387-1.929
				C94.283,48.194,93.674,47.074,92.706,47.113"/>
		</g>
	</g>
</g>
</svg>
