<?xml version="1.0" encoding="utf-8"?>
<!-- Generator: Adobe Illustrator 16.0.4, SVG Export Plug-In . SVG Version: 6.00 Build 0)  -->
<!DOCTYPE svg PUBLIC "-//W3C//DTD SVG 1.1//EN" "http://www.w3.org/Graphics/SVG/1.1/DTD/svg11.dtd">
<svg version="1.1" id="Layer_1" xmlns="http://www.w3.org/2000/svg" xmlns:xlink="http://www.w3.org/1999/xlink" x="0px" y="0px"
	 width="386px" height="457px" viewBox="0 0 386 457" enable-background="new 0 0 386 457" xml:space="preserve">
<title>noun_962515_cc</title>
<desc>Created with Sketch Beta.</desc>
<g id="Editorial-_x2F_-Documentation">
	<g id="noun_962515_cc">
		<g id="Group">
			<g id="Shape">
				<path fill="#FAFAFA" d="M280.537,94.955c-9.464-5.682-20.82-9.469-35.961-12.784c-37.854-8.049-73.342-5.682-102.679,6.628
					c-13.249,5.682-24.132,12.784-32.648,21.306c-11.356,11.837-18.927,28.408-21.766,46.874
					c-2.366,15.625-0.946,32.669,3.786,50.661c8.99,35.037,29.81,69.127,62.932,104.163l0,0c0,40.245,1.419,80.964,5.205,121.209
					c0,2.367,1.893,4.261,3.786,5.208l14.195,5.682c0.946,0.474,1.419,0.474,2.366,0.474s1.42,0,2.366-0.474l5.205,8.996
					c0.947,1.894,2.839,2.84,4.732,2.84c3.312,0,6.624,0.474,9.937,0.474c11.355,0,22.712-1.42,34.068-3.787
					c2.839-0.474,4.731-2.841,4.731-5.682v-0.947l17.034-3.314c0.474,0,0.946-0.474,1.42-0.474c0.946,0,1.893,0,2.839-0.473
					c6.151-3.314,10.883-9.47,12.775-17.519c1.42-6.155,0.946-12.784,0.946-18.466l-5.205-94.22v-0.947
					c0.474-0.474,0.474-1.421,0.474-1.894l0.474-2.368c0-1.42-0.474-2.841-0.947-4.261c0.474-6.155,5.205-13.258,10.883-19.886
					c26.025-32.196,39.747-62.972,42.586-93.273C326.434,148.931,309.4,112,280.537,94.955L280.537,94.955z M168.868,242.204
					c0.946,0.946,2.366,1.421,4.259,1.421c0.473,0,1.419,0,1.893-0.475c1.893-0.946,3.785-2.367,3.785-4.734l0.946-6.154
					c1.42,2.367,3.312,4.261,4.732,6.154c1.419,1.895,3.786,2.367,5.678,1.895c2.366-0.474,3.785-1.895,4.731-4.262l1.893-6.154
					l3.785,6.154c0.947,1.895,3.312,2.841,5.205,2.841s3.785-0.946,5.205-2.841c0.473-0.947,0.946-1.894,1.42-2.367
					c0.473,1.42,1.419,2.367,1.893,3.787c0.946,1.421,2.839,2.842,4.258,2.842c1.893,0,3.785-0.474,5.205-1.895
					c2.366-2.367,4.732-5.208,6.625-8.049l1.419,1.895c0.474,0.473,0.946,0.946,1.893,1.42c-0.946,7.102-3.312,14.204-6.624,20.832
					l-0.473,1.895c-1.42,2.841-2.84,6.155-3.786,9.943c-0.946,4.261-0.946,8.049-0.474,11.363
					c0.474,9.469,2.366,18.938,4.732,27.934h-11.829h-26.498c1.893-16.098-6.151-30.775-14.195-43.559
					c-4.732-8.049-9.937-16.098-10.41-24.621L168.868,242.204L168.868,242.204z M183.537,317.959h1.893h29.336
					c7.57,0,15.615,0,23.658-0.946c6.152-0.474,12.776-1.895,18.928-3.314l0.473,12.31c-1.893-1.42-4.731-1.894-7.098-0.946
					c-1.419,0.474-2.365,1.42-2.839,2.367c-26.497,7.575-53.941,12.31-81.858,14.678v-25.567
					C172.181,317.959,178.332,317.959,183.537,317.959L183.537,317.959z M257.352,337.371c0.473,0,0.946-0.473,1.419-0.946v3.787
					c-0.946,0-1.893,0-2.839,0.474c-27.917,12.311-58.673,19.412-88.956,20.359v-6.629
					C197.259,352.049,228.015,346.367,257.352,337.371L257.352,337.371z M259.717,356.311c-0.946,0-1.419,0-2.365,0.473
					c-9.938,4.262-20.347,7.576-31.229,10.417c-6.624,1.894-13.722,3.314-20.347,5.208c-12.775,2.841-25.551,5.682-38.327,6.629
					c0-1.895,0-3.788-0.473-5.682c31.702-0.947,63.405-8.05,92.269-20.833L259.717,356.311L259.717,356.311z M208.615,384.245
					c6.624-1.421,13.721-3.314,20.818-5.208c10.41-2.841,20.82-6.629,30.757-10.417l0.474,5.682c-0.947,0-1.894,0-2.84,0.474
					c-1.42,0.474-2.365,1.421-3.312,2.841c-27.916,9.943-56.78,16.571-86.117,19.412c0-1.894,0-4.261-0.473-6.155
					C182.117,390.4,195.839,387.086,208.615,384.245L208.615,384.245z M169.341,409.339c31.703-2.841,62.458-9.943,92.268-21.307
					l0.474,4.735c-1.419-0.474-2.366,0-3.785,0.474c-27.917,12.783-57.728,19.886-88.483,21.779
					C169.814,413.127,169.341,411.232,169.341,409.339L169.341,409.339z M170.761,426.857c31.702-1.895,62.932-9.47,91.796-22.727
					v0.946v3.788c-0.474,0-1.42-0.474-1.893,0h-3.786c-1.893,0-3.785,1.421-4.731,2.841c-22.239,8.522-45.897,14.204-69.556,17.519
					c-1.893-1.421-3.786-1.894-6.151-0.947c-0.946,0.474-1.419,0.947-1.893,1.421l-3.786-1.421
					C170.761,427.331,170.761,427.331,170.761,426.857L170.761,426.857z M233.22,434.433c-2.839,0.474-4.731,2.841-4.731,5.682
					v0.947c-10.883,1.894-21.767,2.841-32.649,2.367l-1.893-3.314c23.186-3.788,46.371-9.942,68.137-18.938
					c-0.474,1.42-0.946,2.841-1.419,4.261c-0.947-0.474-1.894-0.474-2.84-0.474c-2.839,0.474-5.205,2.841-5.205,5.682
					c0,0-0.473,0-0.473,0.474L233.22,434.433L233.22,434.433z M310.346,186.335c-2.838,27.935-15.614,56.343-40.219,86.645
					c-5.205,6.629-13.723,17.045-13.249,28.408c-6.151,1.421-11.829,2.841-17.98,3.314v-0.947
					c-2.366-8.995-3.785-17.991-4.259-26.987c0-2.367-0.473-5.682,0-8.049c0.474-2.367,1.42-4.734,2.84-7.103l0.945-1.894
					c5.679-11.837,8.518-25.094,8.518-38.351c0-2.841-1.893-5.208-4.259-5.682c-2.365-0.474-4.259,0-6.151,1.894l-0.945-1.894
					c-1.42-1.894-3.312-2.841-5.679-2.841s-4.259,1.42-5.205,3.314c-1.419,2.368-2.839,4.735-4.259,7.102
					c-1.419-2.841-2.365-5.208-3.312-8.049s-3.312-4.261-6.151-4.261s-5.205,2.367-5.678,5.208c-0.474,1.42-0.474,2.841-0.947,4.735
					l-5.204-7.576c-1.42-1.894-3.786-2.841-6.151-2.841c-2.366,0.474-4.259,1.894-4.731,4.261l-1.893,6.629
					c-1.893-2.841-3.785-5.682-5.205-8.996c-0.946-2.367-3.786-3.788-6.151-3.314c-2.366,0.474-4.731,2.368-5.205,5.208
					l-1.893,11.363l-7.571-7.102c-2.366-2.368-6.151-1.894-8.517,0.473c-1.893,1.894-1.893,4.735-0.473,7.102
					c0.473,1.894,0.473,3.789,0,6.156v4.734c0.473,12.311,6.625,22.727,12.776,32.195c7.098,11.363,14.195,24.147,12.302,36.931
					c-4.258-0.474-8.99-0.946-12.302-2.841c-0.473,0-0.946-0.473-1.42-0.473c-31.229-33.143-50.629-65.34-59.146-98.482
					c-4.259-16.572-5.205-31.723-3.312-45.927c2.366-15.625,8.99-29.829,18.454-40.245c7.097-7.576,16.561-13.731,28.39-18.465
					c26.971-11.363,60.093-13.257,95.58-5.682c14.195,2.841,24.132,6.628,32.176,11.363
					C299.463,120.049,313.658,152.718,310.346,186.335L310.346,186.335z"/>
				<path fill="#FAFAFA" d="M45.371,268.245l-21.766,11.363c-2.839,1.42-4.259,5.208-2.366,8.049
					c0.946,1.894,3.312,3.314,5.205,3.314c0.946,0,1.893,0,2.839-0.474l21.766-11.363c2.839-1.42,4.258-5.208,2.366-8.049
					C51.995,267.771,48.683,266.824,45.371,268.245L45.371,268.245z"/>
				<path fill="#FAFAFA" d="M35.907,187.755c2.839,0,5.678-1.894,6.151-5.208s-1.893-6.628-5.205-7.102L7.99,170.71
					c-3.312-0.473-6.625,1.894-7.098,5.208c-0.473,3.314,1.893,6.628,5.205,7.102l28.863,4.734H35.907L35.907,187.755z"/>
				<path fill="#FAFAFA" d="M59.566,48.082c-2.366-2.367-6.151-2.367-8.517,0c-2.366,2.368-2.366,6.155,0,8.522L66.19,70.808
					c0.946,0.947,2.839,1.894,4.258,1.894s3.312-0.474,4.259-1.894c2.366-2.367,2.366-6.155,0-8.522L59.566,48.082L59.566,48.082z"
					/>
				<path fill="#FAFAFA" d="M196.785,31.51c3.312,0,6.151-2.841,6.151-6.155V6.417c0-3.314-2.839-6.155-6.151-6.155
					c-3.312,0-6.151,2.841-6.151,6.155v18.938C190.634,28.669,193.473,31.51,196.785,31.51L196.785,31.51z"/>
				<path fill="#FAFAFA" d="M319.336,39.559l-15.141,8.522c-2.84,1.42-3.785,5.208-2.366,8.049c0.946,1.894,3.312,3.314,5.205,3.314
					c0.946,0,1.893-0.473,2.839-0.947l15.142-8.522c2.839-1.42,3.785-5.208,2.366-8.049
					C325.961,39.086,322.176,38.139,319.336,39.559L319.336,39.559z"/>
				<path fill="#FAFAFA" d="M384.635,124.31c-1.42-2.841-5.205-4.261-8.045-2.841L347.254,135.2c-2.84,1.42-4.259,5.208-2.84,8.049
					c0.947,2.367,3.312,3.314,5.679,3.314c0.946,0,1.893,0,2.366-0.474l29.336-13.73
					C384.635,130.939,386.054,127.151,384.635,124.31L384.635,124.31z"/>
				<path fill="#FAFAFA" d="M353.878,263.984c-2.366-2.368-6.151-2.368-8.517,0c-2.366,2.367-2.366,6.154,0,8.521l18.927,18.939
					c0.946,0.946,2.839,1.894,4.259,1.894c1.419,0,3.312-0.474,4.258-1.894c2.366-2.367,2.366-6.155,0-8.523L353.878,263.984
					L353.878,263.984z"/>
			</g>
		</g>
	</g>
</g>
</svg>
