<?xml version="1.0" encoding="UTF-8" standalone="no"?>
<svg width="94px" height="98px" viewBox="0 0 94 98" version="1.1" xmlns="http://www.w3.org/2000/svg" xmlns:xlink="http://www.w3.org/1999/xlink">
    <!-- Generator: Sketch Beta 39.1 (31721) - http://www.bohemiancoding.com/sketch -->
    <title>melange</title>
    <desc>Created with Sketch Beta.</desc>
    <defs></defs>
    <g id="All" stroke="none" stroke-width="1" fill="none" fill-rule="evenodd">
        <g id="melange" fill="#35363C">
            <g id="Group">
                <g id="Shape">
                    <path d="M19.9,44.8 C20.1,44.3 20,43.8 19.7,43.4 C16.8,39.6 13.6,35.9 10.2,32.4 C10.2,32.4 10.2,32.4 10.1,32.3 L10.1,32.3 C10.4,31.6 10.1,30.7 9.4,30.3 C8.7,30 7.8,30.3 7.4,31 L0.9,45.3 C0.7,45.7 0.7,46.3 1,46.7 C1.3,47.1 1.7,47.4 2.2,47.4 C3,47.5 3.8,47.5 4.6,47.5 C9.4,47.5 14.2,46.6 18.8,45.7 C19.3,45.6 19.7,45.2 19.9,44.8 L19.9,44.8 Z M4.6,44.5 L8.8,35.2 C11.2,37.8 13.6,40.4 15.8,43.2 C12.1,43.9 8.3,44.5 4.6,44.5 L4.6,44.5 Z"></path>
                    <path d="M52.5,62 C56.6,65.1 61.2,67.6 66,69.4 C66.2,69.5 66.3,69.5 66.5,69.5 C67.1,69.5 67.6,69.2 67.9,68.6 C69.9,64.2 72.2,59.8 74.7,55.6 C75,55 75,54.3 74.6,53.9 C72.5,51.5 69.6,50.1 66.8,48.9 C64.8,48 62.8,47.2 60.7,46.4 C60.2,46.2 59.7,46.3 59.3,46.6 C58.9,46.7 58.5,47 58.3,47.5 C56.5,51.8 54.4,56 52.2,60.1 C51.7,60.7 51.9,61.5 52.5,62 L52.5,62 Z M60.5,49.6 C62.2,50.3 63.9,51 65.5,51.7 C67.7,52.6 69.9,53.6 71.5,55.1 C69.4,58.7 67.5,62.4 65.7,66.1 C62,64.6 58.5,62.7 55.3,60.4 C57.2,56.8 58.9,53.2 60.5,49.6 L60.5,49.6 Z"></path>
                    <path d="M38,43.2 C39.6,43.8 41.3,44 42.9,44 C44.3,44 45.7,43.8 46.9,43.3 C50.1,42.2 52.5,39.6 53.2,36.6 C53.5,35.5 53.5,34.4 53.5,33.5 C53.5,32.4 53.6,31 53,29.7 C52.6,28.8 51.9,28 50.9,27.2 C46.7,23.9 41,24.6 37.1,26.3 C36.8,26.5 36.5,26.7 36.3,27 C35.7,27.4 35.1,27.9 34.7,28.4 C33.1,30.3 32.9,32.7 32.8,35 C32.7,36.2 32.7,37.9 33.4,39.4 C34.2,41.2 35.8,42.4 38,43.2 L38,43.2 Z M35.8,35.4 C35.9,33.5 36,31.7 37,30.5 C37.9,29.4 39.6,28.9 41.5,28.4 C41.7,28.4 41.8,28.3 42,28.2 C44.7,27.8 47.2,28.4 49.1,29.8 C49.7,30.2 50.1,30.7 50.3,31.2 C50.6,31.9 50.6,32.8 50.6,33.7 C50.6,34.6 50.6,35.4 50.4,36.2 C49.9,38.2 48.2,40 46,40.7 C44,41.4 41.5,41.4 39.1,40.5 C37.6,40 36.6,39.3 36.2,38.4 C35.7,37.6 35.7,36.5 35.8,35.4 L35.8,35.4 Z"></path>
                    <path d="M44.3,12.5 C45.2,13 46.2,13.2 47.2,13.2 C48.6,13.2 49.9,12.8 51.1,12 C53.1,10.6 54.1,8.1 53.8,5.7 C53.7,4.7 53.3,3.9 52.8,3.2 C51.9,2.2 50.6,1.6 48.8,1.5 C48.8,1.3 48.7,1.1 48.6,1 C48.1,0.3 47.2,0.2 46.5,0.6 C45.6,1.2 44.7,1.9 43.8,2.7 C43.3,3.1 42.9,3.6 42.6,4.1 C42.5,4.2 42.4,4.4 42.3,4.5 C41,6.7 41.1,9.4 42.5,11 C42.9,11.7 43.5,12.1 44.3,12.5 L44.3,12.5 Z M44.9,6.1 L44.9,6.1 C45,6 45.1,5.8 45.2,5.7 C45.4,5.5 45.6,5.3 45.8,5.1 C46.4,4.7 47.3,4.6 48.1,4.6 C49.3,4.6 50.1,4.8 50.5,5.2 C50.7,5.4 50.8,5.7 50.9,6.2 C51.1,7.5 50.5,8.9 49.4,9.6 C48.3,10.4 46.8,10.5 45.7,9.9 C45.4,9.7 45.1,9.5 44.9,9.3 C44.1,8.4 44.3,7.1 44.9,6.1 L44.9,6.1 Z"></path>
                    <path d="M20.8,56.3 C20.3,55.7 19.3,55.6 18.7,56.1 C16.8,57.6 15,59.2 13.2,60.8 C11.5,59.1 10,57.4 9,55.4 C8.6,54.7 7.7,54.4 7,54.7 C6.3,55.1 6,56 6.3,56.7 C7.4,59 9.1,60.9 10.9,62.8 C9,64.5 7.2,66.3 5.5,68.1 C4.9,68.7 4.9,69.6 5.5,70.2 C5.8,70.5 6.2,70.6 6.5,70.6 C6.9,70.6 7.3,70.4 7.6,70.1 C9.3,68.3 11.1,66.6 13,64.8 C14.6,66.4 16.1,67.9 17.2,69.6 C17.2,70 17.4,70.4 17.7,70.6 L18.2,71 C18.5,71.2 18.8,71.4 19.2,71.4 C19.5,71.4 19.9,71.3 20.2,71.1 C20.8,70.6 20.9,69.8 20.5,69.2 C19.1,66.8 17.2,64.8 15.2,62.8 C16.9,61.3 18.7,59.8 20.5,58.3 C21.2,57.9 21.3,57 20.8,56.3 L20.8,56.3 Z"></path>
                    <path d="M73.3,14.7 C70.1,13.3 65.7,13.3 63.2,16.2 C61.2,18.6 61.2,21.9 61.3,24.1 C61.3,24.9 62,25.6 62.8,25.6 C63.6,25.6 64.3,24.9 64.3,24.1 C64.3,21.8 64.3,19.6 65.5,18.2 C67,16.4 70.1,16.6 72.2,17.5 C73.1,17.9 74.7,18.7 75.3,20.2 C75.6,20.9 75.6,21.8 75.5,22.8 C75.5,23.8 75.4,24.8 75.1,25.4 C74.3,26.8 72.1,27.2 70.5,27 C69.4,26.9 68.7,26.6 68.4,26.2 C68,25.8 68,25 68,24.3 C68,23.3 68.1,22.3 68.5,21.6 C68.8,21.1 69.3,20.9 69.6,21 C69.8,21.1 70,21.5 70,22 C69.9,22.7 69.5,23.5 69.1,24.2 C68.7,24.9 69,25.8 69.7,26.2 C70.4,26.6 71.3,26.3 71.7,25.6 C72.2,24.7 72.8,23.6 72.9,22.3 C73.1,20.6 72.2,18.9 70.8,18.3 C68.9,17.4 66.9,18.5 65.9,20.1 C65.1,21.4 65,22.9 65,24.2 C65,25.4 65,26.8 65.8,27.9 C66.6,29.1 68,29.8 70,30 C70.3,30 70.7,30.1 71.1,30.1 C73.6,30.1 76.3,29.3 77.6,26.9 C78.3,25.6 78.4,24.3 78.4,22.9 C78.4,21.9 78.5,20.5 78,19.2 C77.1,16.8 75,15.4 73.3,14.7 L73.3,14.7 Z"></path>
                    <path d="M76.3,74.2 C73.1,74.3 70,74.8 67,75.6 C66.7,75.5 66.4,75.5 66.1,75.6 C65.3,75.9 64.9,76.8 65.2,77.5 C66.4,80.8 68,83.9 69.9,86.9 C70.2,87.3 70.6,87.6 71.2,87.6 L71.3,87.6 C71.8,87.6 72.3,87.3 72.6,86.8 L77.8,76.3 C78,75.8 78,75.3 77.7,74.8 C77.3,74.4 76.9,74.2 76.3,74.2 L76.3,74.2 Z M71,83.1 C70.1,81.5 69.3,79.9 68.6,78.3 C70.3,77.8 72.1,77.5 73.8,77.4 L71,83.1 L71,83.1 Z"></path>
                    <path d="M47.4,84.1 C47.1,83.8 46.7,83.3 46.1,83 C45.4,82.6 44.7,82.5 44.2,82.5 L32.3,80.8 C32.3,80.7 32.2,80.6 32.1,80.5 C31.6,79.9 30.6,79.8 30,80.3 L22.9,86.3 C22.5,86.6 22.3,87.1 22.4,87.5 C22.4,88 22.7,88.4 23.1,88.7 C24.5,89.6 25.7,90.9 26.5,92.4 L26.6,92.6 C26.9,93.2 27.3,94 28,94.6 C28.8,95.2 29.7,95.4 30.4,95.5 L42.8,97.6 C43.2,97.7 43.6,97.7 44,97.7 C44.3,97.7 44.5,97.7 44.8,97.6 C45.7,97.4 46.4,96.9 46.9,96.5 L52.5,92.2 C52.8,91.9 53,91.6 53.1,91.1 C53.1,90.7 53,90.3 52.7,90 L47.4,84.1 L47.4,84.1 Z M45.2,94.1 C44.9,94.3 44.5,94.6 44.3,94.7 C44.1,94.7 43.7,94.7 43.4,94.6 L31,92.5 C30.6,92.4 30.1,92.4 29.9,92.2 C29.7,92.1 29.5,91.7 29.3,91.3 L29.1,91 C28.4,89.6 27.4,88.4 26.3,87.3 L30.9,83.5 L43.9,85.4 C44.2,85.4 44.5,85.5 44.7,85.6 C44.8,85.7 45.1,85.9 45.2,86.1 L49.4,90.7 L45.2,94.1 L45.2,94.1 Z"></path>
                    <path d="M92.5,29.7 C92.2,29.4 91.8,29.4 91.6,29.3 C88.7,28.6 85.8,28.3 82.8,28.3 C82,28.3 81.3,29 81.3,29.8 C81.3,30.2 81.4,30.5 81.6,30.7 C81,39 80.5,47.3 80.1,55.5 C80.1,56.3 80.7,57 81.4,57.1 C84,57.4 86.6,57.7 89.2,58.3 L89.5,58.3 C89.8,58.3 90.2,58.2 90.4,58 C90.7,57.7 91,57.3 91,56.9 C91.2,48.6 91.9,40.2 93.2,31.9 C93.4,30.7 92.9,30.1 92.5,29.7 L92.5,29.7 Z M88.1,55 C86.5,54.7 84.8,54.5 83.2,54.3 C83.6,46.7 84.1,39 84.7,31.4 C86.5,31.5 88.4,31.7 90.2,32.1 C89,39.6 88.3,47.3 88.1,55 L88.1,55 Z"></path>
                    <path d="M14.4,11.1 C15.7,10 17.3,9.1 18.9,8.6 C19,9.2 18.7,10 18.2,10.8 C17.9,11.3 17.5,11.7 17,12.2 C16.5,12.8 16,13.4 15.5,14.1 C14.8,15.2 14.5,16.3 14.9,17.3 C15.5,19.1 17.5,19.7 19.1,19.2 C20.2,18.9 21,18.2 21.7,17.5 L21.9,17.3 C22.3,16.9 22.9,16.5 23.4,16.5 L23.4,16.5 C23.6,16.5 23.8,16.6 23.9,16.8 C24,17 24.1,17.2 24.1,17.3 C24,17.7 23.7,18.1 23,18.6 L22.5,19 C21.8,19.5 21,20 20.4,20.9 C19.5,22.2 19.3,24.2 20.6,25.5 C21.5,26.3 22.6,26.4 23.2,26.4 L23.5,26.4 C25.2,26.3 26.9,25.8 28.4,24.9 C29,24.5 29.6,23.6 29.3,22.7 C29.1,22 28.5,21.5 27.7,21.5 L27.7,21.5 C27,21.5 26.4,22 26.3,22.6 C25.4,23.1 24.4,23.3 23.3,23.4 C22.7,23.4 22.5,23.3 22.5,23.3 C22.5,23.2 22.5,22.9 22.7,22.6 C23,22.2 23.5,21.8 24,21.5 L24.5,21.2 C25.3,20.6 26.5,19.6 26.8,18.1 C27,17.1 26.7,16 26,15.1 C25.3,14.2 24.3,13.7 23.2,13.7 L23.2,13.7 C21.7,13.7 20.6,14.5 19.8,15.3 L19.5,15.5 C19,16 18.5,16.4 18,16.5 L17.7,16.5 L17.5,16.5 C17.5,16.5 17.5,16.3 17.8,15.9 C18.1,15.4 18.6,14.9 19,14.3 C19.5,13.8 19.9,13.2 20.4,12.6 C21.6,10.8 22,8.9 21.4,7.3 C21,6.3 20.4,5.9 19.9,5.7 C19.1,5.4 18.4,5.6 18.1,5.7 C16,6.3 13.9,7.4 12.2,8.9 C11.6,9.4 11.5,10.4 12,11 C12.8,11.6 13.7,11.7 14.4,11.1 L14.4,11.1 Z"></path>
                    <path d="M37.2,73 C37.6,73.1 38,73.1 38.4,73.1 C40.6,73.1 42.6,71.8 43.5,69.9 C44.5,67.5 43.6,65 42.6,63 C41.5,60.8 40.2,58.6 38.7,56.6 C38.5,56.4 38.3,56.2 38,56.1 C37.8,55.9 37.6,55.8 37.3,55.7 C36.5,55.5 35.7,55.9 35.4,56.7 C35.1,57.8 34.6,58.8 34.1,59.9 C33.8,60.5 33.5,61.1 33.3,61.7 C32.3,64.2 32,66.3 32.4,68.1 C33,70.5 34.9,72.5 37.2,73 L37.2,73 Z M36.1,62.9 C36.3,62.3 36.6,61.8 36.9,61.2 C37.1,60.8 37.3,60.5 37.4,60.1 C38.3,61.5 39.1,62.9 39.9,64.4 C40.6,65.8 41.3,67.5 40.7,68.7 C40.3,69.7 39,70.3 37.8,70 C36.6,69.7 35.6,68.7 35.3,67.4 C35,66.2 35.3,64.8 36.1,62.9 L36.1,62.9 Z"></path>
                </g>
            </g>
        </g>
    </g>
</svg>