<?xml version="1.0" encoding="utf-8"?>
<!-- Generator: Adobe Illustrator 16.0.4, SVG Export Plug-In . SVG Version: 6.00 Build 0)  -->
<!DOCTYPE svg PUBLIC "-//W3C//DTD SVG 1.1//EN" "http://www.w3.org/Graphics/SVG/1.1/DTD/svg11.dtd">
<svg version="1.1" id="Layer_1" xmlns="http://www.w3.org/2000/svg" xmlns:xlink="http://www.w3.org/1999/xlink" x="0px" y="0px"
	 width="94px" height="98px" viewBox="0 0 94 98" enable-background="new 0 0 94 98" xml:space="preserve">
<g id="All">
	<g id="melange">
		<g id="Group">
			<g id="Shape">
				<path fill="#35363C" d="M19.9,44.8c0.2-0.5,0.1-1-0.2-1.4c-2.9-3.8-6.1-7.5-9.5-11c0,0,0,0-0.1-0.1l0,0c0.3-0.7,0-1.6-0.7-2
					c-0.7-0.3-1.6,0-2,0.7L0.9,45.3c-0.2,0.4-0.2,1,0.1,1.4c0.3,0.4,0.7,0.7,1.2,0.7c0.8,0.1,1.6,0.1,2.4,0.1
					c4.8,0,9.6-0.9,14.2-1.8C19.3,45.6,19.7,45.2,19.9,44.8L19.9,44.8z M4.6,44.5l4.2-9.3c2.4,2.6,4.8,5.2,7,8
					C12.1,43.9,8.3,44.5,4.6,44.5L4.6,44.5z"/>
				<path fill="#35363C" d="M52.5,62c4.1,3.1,8.7,5.6,13.5,7.4c0.2,0.1,0.3,0.1,0.5,0.1c0.6,0,1.1-0.3,1.4-0.9
					c2-4.399,4.3-8.8,6.8-13C75,55,75,54.3,74.6,53.9c-2.1-2.4-5-3.801-7.8-5c-2-0.9-4-1.7-6.1-2.5c-0.5-0.2-1-0.1-1.4,0.2
					c-0.399,0.1-0.8,0.4-1,0.9c-1.8,4.3-3.899,8.5-6.1,12.6C51.7,60.7,51.9,61.5,52.5,62L52.5,62z M60.5,49.6
					c1.7,0.7,3.4,1.4,5,2.101c2.2,0.899,4.4,1.899,6,3.399c-2.1,3.601-4,7.301-5.8,11C62,64.6,58.5,62.7,55.3,60.4
					C57.2,56.8,58.9,53.2,60.5,49.6L60.5,49.6z"/>
				<path fill="#35363C" d="M38,43.2c1.6,0.6,3.3,0.8,4.9,0.8c1.4,0,2.8-0.2,4-0.7c3.2-1.1,5.6-3.7,6.3-6.7c0.3-1.1,0.3-2.2,0.3-3.1
					c0-1.1,0.1-2.5-0.5-3.8c-0.4-0.9-1.1-1.7-2.1-2.5c-4.2-3.3-9.9-2.6-13.8-0.9c-0.3,0.2-0.6,0.4-0.8,0.7c-0.6,0.4-1.2,0.9-1.6,1.4
					c-1.6,1.9-1.8,4.3-1.9,6.6c-0.1,1.2-0.1,2.9,0.6,4.4C34.2,41.2,35.8,42.4,38,43.2L38,43.2z M35.8,35.4c0.1-1.9,0.2-3.7,1.2-4.9
					c0.9-1.1,2.6-1.6,4.5-2.1c0.2,0,0.3-0.1,0.5-0.2c2.7-0.4,5.2,0.2,7.1,1.6c0.601,0.4,1,0.9,1.2,1.4c0.3,0.7,0.3,1.6,0.3,2.5
					c0,0.9,0,1.7-0.199,2.5c-0.5,2-2.2,3.8-4.4,4.5c-2,0.7-4.5,0.7-6.9-0.2c-1.5-0.5-2.5-1.2-2.9-2.1C35.7,37.6,35.7,36.5,35.8,35.4
					L35.8,35.4z"/>
				<path fill="#35363C" d="M44.3,12.5c0.9,0.5,1.9,0.7,2.9,0.7c1.399,0,2.7-0.4,3.899-1.2c2-1.4,3-3.9,2.7-6.3
					c-0.1-1-0.5-1.8-1-2.5c-0.899-1-2.2-1.6-4-1.7c0-0.2-0.1-0.4-0.2-0.5c-0.5-0.7-1.399-0.8-2.1-0.4c-0.9,0.6-1.8,1.3-2.7,2.1
					c-0.5,0.4-0.9,0.9-1.2,1.4c-0.1,0.1-0.2,0.3-0.3,0.4C41,6.7,41.1,9.4,42.5,11C42.9,11.7,43.5,12.1,44.3,12.5L44.3,12.5z
					 M44.9,6.1L44.9,6.1C45,6,45.1,5.8,45.2,5.7c0.2-0.2,0.4-0.4,0.6-0.6c0.6-0.4,1.5-0.5,2.3-0.5c1.2,0,2,0.2,2.4,0.6
					c0.2,0.2,0.3,0.5,0.4,1c0.199,1.3-0.4,2.7-1.5,3.4c-1.101,0.8-2.601,0.9-3.7,0.3c-0.3-0.2-0.6-0.4-0.8-0.6
					C44.1,8.4,44.3,7.1,44.9,6.1L44.9,6.1z"/>
				<path fill="#35363C" d="M20.8,56.3c-0.5-0.6-1.5-0.7-2.1-0.2c-1.9,1.5-3.7,3.101-5.5,4.7C11.5,59.1,10,57.4,9,55.4
					c-0.4-0.7-1.3-1-2-0.7c-0.7,0.399-1,1.3-0.7,2c1.1,2.3,2.8,4.2,4.6,6.1c-1.9,1.7-3.7,3.5-5.4,5.3c-0.6,0.601-0.6,1.5,0,2.101
					c0.3,0.3,0.7,0.399,1,0.399c0.4,0,0.8-0.199,1.1-0.5c1.7-1.8,3.5-3.5,5.4-5.3c1.6,1.601,3.1,3.101,4.2,4.8
					c0,0.4,0.2,0.801,0.5,1l0.5,0.4c0.3,0.2,0.6,0.4,1,0.4c0.3,0,0.7-0.101,1-0.301c0.6-0.5,0.7-1.3,0.3-1.899
					c-1.4-2.4-3.3-4.4-5.3-6.4c1.7-1.5,3.5-3,5.3-4.5C21.2,57.9,21.3,57,20.8,56.3L20.8,56.3z"/>
				<path fill="#35363C" d="M73.3,14.7c-3.2-1.4-7.6-1.4-10.1,1.5c-2,2.4-2,5.7-1.9,7.9c0,0.8,0.7,1.5,1.5,1.5s1.5-0.7,1.5-1.5
					c0-2.3,0-4.5,1.2-5.9c1.5-1.8,4.6-1.6,6.7-0.7c0.899,0.4,2.5,1.2,3.1,2.7c0.3,0.7,0.3,1.6,0.2,2.6c0,1-0.1,2-0.4,2.6
					c-0.8,1.4-3,1.8-4.6,1.6c-1.1-0.1-1.8-0.4-2.1-0.8C68,25.8,68,25,68,24.3c0-1,0.1-2,0.5-2.7c0.3-0.5,0.8-0.7,1.1-0.6
					c0.2,0.1,0.4,0.5,0.4,1c-0.1,0.7-0.5,1.5-0.9,2.2c-0.399,0.7-0.1,1.6,0.601,2c0.7,0.4,1.6,0.1,2-0.6c0.5-0.9,1.1-2,1.2-3.3
					c0.199-1.7-0.7-3.4-2.101-4C68.9,17.4,66.9,18.5,65.9,20.1C65.1,21.4,65,22.9,65,24.2c0,1.2,0,2.6,0.8,3.7
					c0.8,1.2,2.2,1.9,4.2,2.1c0.3,0,0.7,0.1,1.1,0.1c2.5,0,5.2-0.8,6.5-3.2c0.7-1.3,0.801-2.6,0.801-4c0-1,0.1-2.4-0.4-3.7
					C77.1,16.8,75,15.4,73.3,14.7L73.3,14.7z"/>
				<path fill="#35363C" d="M76.3,74.2C73.1,74.3,70,74.8,67,75.6c-0.3-0.1-0.6-0.1-0.9,0C65.3,75.9,64.9,76.8,65.2,77.5
					c1.2,3.3,2.8,6.4,4.7,9.4C70.2,87.3,70.6,87.6,71.2,87.6h0.1c0.5,0,1-0.3,1.3-0.8l5.2-10.5c0.2-0.5,0.2-1-0.1-1.5
					C77.3,74.4,76.9,74.2,76.3,74.2L76.3,74.2z M71,83.1c-0.9-1.6-1.7-3.199-2.4-4.8c1.7-0.5,3.5-0.8,5.2-0.899L71,83.1L71,83.1z"/>
				<path fill="#35363C" d="M47.4,84.1c-0.3-0.3-0.7-0.8-1.3-1.1c-0.7-0.4-1.4-0.5-1.9-0.5l-11.9-1.7c0-0.1-0.1-0.2-0.2-0.3
					c-0.5-0.6-1.5-0.7-2.1-0.2l-7.1,6c-0.4,0.3-0.6,0.8-0.5,1.2c0,0.5,0.3,0.9,0.7,1.2c1.4,0.899,2.6,2.2,3.4,3.7l0.1,0.199
					c0.3,0.601,0.7,1.4,1.4,2c0.8,0.601,1.7,0.801,2.4,0.9l12.4,2.1C43.2,97.7,43.6,97.7,44,97.7c0.3,0,0.5,0,0.8-0.101
					c0.9-0.199,1.6-0.699,2.1-1.1l5.6-4.3c0.3-0.3,0.5-0.601,0.6-1.101c0-0.399-0.1-0.8-0.399-1.1L47.4,84.1L47.4,84.1z M45.2,94.1
					c-0.3,0.2-0.7,0.5-0.9,0.601c-0.2,0-0.6,0-0.9-0.101L31,92.5c-0.4-0.1-0.9-0.1-1.1-0.3c-0.2-0.101-0.4-0.5-0.6-0.9L29.1,91
					c-0.7-1.4-1.7-2.6-2.8-3.7l4.6-3.8l13,1.9c0.3,0,0.6,0.1,0.8,0.199c0.1,0.101,0.4,0.301,0.5,0.5l4.2,4.601L45.2,94.1L45.2,94.1z
					"/>
				<path fill="#35363C" d="M92.5,29.7c-0.3-0.3-0.7-0.3-0.9-0.4c-2.899-0.7-5.8-1-8.8-1c-0.8,0-1.5,0.7-1.5,1.5
					c0,0.4,0.101,0.7,0.3,0.9C81,39,80.5,47.3,80.1,55.5c0,0.8,0.601,1.5,1.301,1.6C84,57.4,86.6,57.7,89.2,58.3h0.3
					c0.3,0,0.7-0.1,0.9-0.3c0.3-0.3,0.6-0.7,0.6-1.1c0.2-8.3,0.9-16.7,2.2-25C93.4,30.7,92.9,30.1,92.5,29.7L92.5,29.7z M88.1,55
					c-1.6-0.3-3.3-0.5-4.899-0.7C83.6,46.7,84.1,39,84.7,31.4c1.8,0.1,3.7,0.3,5.5,0.7C89,39.6,88.3,47.3,88.1,55L88.1,55z"/>
				<path fill="#35363C" d="M14.4,11.1c1.3-1.1,2.9-2,4.5-2.5c0.1,0.6-0.2,1.4-0.7,2.2c-0.3,0.5-0.7,0.9-1.2,1.4
					c-0.5,0.6-1,1.2-1.5,1.9c-0.7,1.1-1,2.2-0.6,3.2c0.6,1.8,2.6,2.4,4.2,1.9c1.1-0.3,1.9-1,2.6-1.7l0.2-0.2c0.4-0.4,1-0.8,1.5-0.8
					l0,0c0.2,0,0.4,0.1,0.5,0.3c0.1,0.2,0.2,0.4,0.2,0.5c-0.1,0.4-0.4,0.8-1.1,1.3L22.5,19c-0.7,0.5-1.5,1-2.1,1.9
					c-0.9,1.3-1.1,3.3,0.2,4.6c0.9,0.8,2,0.9,2.6,0.9h0.3c1.7-0.1,3.4-0.6,4.9-1.5c0.6-0.4,1.2-1.3,0.9-2.2
					c-0.2-0.7-0.8-1.2-1.6-1.2l0,0c-0.7,0-1.3,0.5-1.4,1.1c-0.9,0.5-1.9,0.7-3,0.8c-0.6,0-0.8-0.1-0.8-0.1c0-0.1,0-0.4,0.2-0.7
					c0.3-0.4,0.8-0.8,1.3-1.1l0.5-0.3c0.8-0.6,2-1.6,2.3-3.1c0.2-1-0.1-2.1-0.8-3s-1.7-1.4-2.8-1.4l0,0c-1.5,0-2.6,0.8-3.4,1.6
					l-0.3,0.2c-0.5,0.5-1,0.9-1.5,1h-0.3h-0.2c0,0,0-0.2,0.3-0.6c0.3-0.5,0.8-1,1.2-1.6c0.5-0.5,0.9-1.1,1.4-1.7
					c1.2-1.8,1.6-3.7,1-5.3c-0.4-1-1-1.4-1.5-1.6c-0.8-0.3-1.5-0.1-1.8,0c-2.1,0.6-4.2,1.7-5.9,3.2c-0.6,0.5-0.7,1.5-0.2,2.1
					C12.8,11.6,13.7,11.7,14.4,11.1L14.4,11.1z"/>
				<path fill="#35363C" d="M37.2,73c0.4,0.1,0.8,0.1,1.2,0.1c2.2,0,4.2-1.3,5.1-3.199c1-2.4,0.1-4.9-0.9-6.9
					c-1.1-2.2-2.4-4.4-3.9-6.4C38.5,56.4,38.3,56.2,38,56.1c-0.2-0.199-0.4-0.3-0.7-0.399c-0.8-0.2-1.6,0.2-1.9,1
					c-0.3,1.1-0.8,2.1-1.3,3.2c-0.3,0.6-0.6,1.199-0.8,1.8c-1,2.5-1.3,4.6-0.9,6.399C33,70.5,34.9,72.5,37.2,73L37.2,73z M36.1,62.9
					c0.2-0.601,0.5-1.101,0.8-1.7c0.2-0.4,0.4-0.7,0.5-1.101c0.9,1.4,1.7,2.801,2.5,4.301c0.7,1.399,1.4,3.1,0.8,4.3
					c-0.4,1-1.7,1.6-2.9,1.3c-1.2-0.3-2.2-1.3-2.5-2.6C35,66.2,35.3,64.8,36.1,62.9L36.1,62.9z"/>
			</g>
		</g>
	</g>
</g>
</svg>
