<?xml version="1.0" encoding="UTF-8" standalone="no"?>
<svg width="97px" height="98px" viewBox="0 0 97 98" version="1.1" xmlns="http://www.w3.org/2000/svg" xmlns:xlink="http://www.w3.org/1999/xlink">
    <!-- Generator: Sketch Beta 39.1 (31721) - http://www.bohemiancoding.com/sketch -->
    <title>noun_962527_cc</title>
    <desc>Created with Sketch Beta.</desc>
    <defs></defs>
    <g id="Editorial-/-Documentation" stroke="none" stroke-width="1" fill="none" fill-rule="evenodd">
        <g id="noun_962527_cc" transform="translate(-1.000000, 0.000000)" fill="#35363C">
            <g id="Group">
                <path d="M69.4,60 C70.2,60.5 71.1,60.7 72,60.8 C73.1,60.9 74.2,61 75.3,61 C78.8,61 82.3,60.5 85.7,60 C88.7,59.5 91.8,59.1 94.9,59 L95.1,59 L96.1,59 C96.8,59 97.3,58.4 97.3,57.7 C97.3,57 96.7,56.4 96,56.4 C92.4,56.4 88.7,56.9 85.2,57.4 C80.7,58.1 76.5,58.7 72.2,58.2 C71.9,58.2 71.5,58.1 71.2,58 L71.2,57.9 C70.9,57.4 70.4,57.1 69.8,57.1 C69.6,57.1 69.3,57.3 69.1,57.4 C69.1,57.2 69.2,57 69.2,56.8 C69.6,57 70.1,57.1 70.6,57.1 C72.2,57.3 74,56.6 75,55.3 C75.8,54.2 76.1,53 75.7,51.8 C75.6,51.6 75.5,51.4 75.4,51.2 C77,51.2 78.5,50.5 79.2,49.1 C79.9,47.8 80.1,45.6 77.2,42.7 L77,42.5 C78,42.7 79.1,42.7 80.1,42.1 C81.4,41.3 82,39.6 81.7,38 C81.5,36.7 80.7,35.6 80,34.6 C76.2,29.7 70.9,26.1 65,24.2 L64.6,24.1 C63.9,23.9 63.2,23.7 62.6,23.3 C62,22.9 61.4,22.2 60.9,21.5 L45.5,1.4 C45.1,0.8 44.3,0.7 43.7,1.2 C43.1,1.6 43,2.4 43.5,3 L59.3,23.4 C59.9,24.2 60.6,25.1 61.6,25.8 C62.5,26.4 63.4,26.6 64.3,26.9 L64.6,27 C70,28.7 74.9,32 78.3,36.5 C78.9,37.2 79.4,38 79.5,38.8 C79.6,39.4 79.4,40.1 79,40.3 C78.5,40.6 77.6,40.4 76.9,40.2 C75,39.6 73.1,38.7 71.4,37.6 C70.5,36.9 69.6,36.2 68.7,35.5 C68.1,35.1 67.4,35.2 67,35.7 C66.6,36.2 66.6,37 67.2,37.4 C68.1,38.2 69,38.9 70,39.5 C72,41.1 73.9,42.8 75.7,44.7 C76.4,45.4 77.8,47.1 77.3,48.2 C76.8,49.1 75.1,49.1 73.7,48.6 C73.4,48.5 73.2,48.4 72.9,48.3 C71.4,46.9 69.9,45.7 68.2,44.6 C67.7,44.3 67,44.4 66.6,44.8 C66.2,45.3 66.2,46 66.6,46.5 C67.9,48.2 69.6,49.5 71.5,50.4 C72,50.9 72.5,51.5 73,52 C73.3,52.3 73.5,52.6 73.6,52.9 C73.7,53.2 73.6,53.6 73.3,53.9 C72.8,54.5 71.9,54.9 71.2,54.8 C70,54.6 68.9,53.8 67.8,52.8 C67.6,52.6 67.4,52.4 67.2,52.2 C67.6,50.9 67.5,49.8 66.8,48.8 C65.9,47.6 64.4,47.1 62.6,47.6 C63.3,46.9 63.9,46.1 64.6,45.4 C65.4,44.4 66.3,43.2 66.3,41.7 C66.3,40.7 65.9,39.8 65.1,39.1 C64.2,38.2 62.9,37.7 61.6,37.8 C60.8,37.8 60,38 59.3,38.3 C59.6,36.3 58.8,34.4 57.4,33.4 C56,32.5 54.1,32.4 52.3,33.1 C50.9,33.7 49.7,34.8 48.8,35.7 L46.5,37.9 C46.4,37.7 46.3,37.5 46.1,37.4 C45.9,37.3 45.7,37.2 45.5,37.1 C45.5,37 45.5,36.9 45.4,36.8 C45.3,36.1 45.1,35.3 44.9,34.6 C44.3,32.6 43.4,30.9 42.5,29.1 L31,7.5 C30.7,6.9 29.9,6.6 29.3,7 C28.7,7.3 28.4,8.1 28.8,8.7 L40.1,30.2 C40.7,31.3 41.3,32.4 41.7,33.6 C40.8,33.3 39.7,33.5 38.4,34.1 C32.4,37.1 28.4,43.6 28.5,50.3 L28.5,51.4 C28.6,52.9 28.6,54.2 28,55.3 C27.7,55.8 27.2,56.3 26.7,56.8 C18.5,64.4 10,71.9 1.4,79.3 C0.9,79.8 0.8,80.6 1.3,81.1 C1.8,81.6 2.6,81.7 3.1,81.2 C11.6,73.9 20.2,66.3 28.5,58.7 C29.1,58.1 29.8,57.5 30.3,56.6 C31.3,54.9 31.2,53 31.1,51.3 L31.1,50.2 C31,44.5 34.5,38.8 39.5,36.3 C40.3,35.9 40.8,35.9 41,36 C41.1,36.1 41.3,36.4 41.3,36.8 C41.4,38.5 40.2,39.9 38.7,41.5 C37.7,42.7 36.6,43.8 36,45.3 C35.8,45.6 35.8,46 36,46.3 C36.1,46.6 36.4,46.9 36.8,47 C39.3,47.9 41.7,45.7 42.5,44.8 L50.3,37.4 C51.2,36.6 52.1,35.7 53.1,35.2 C54,34.8 55.1,34.8 55.7,35.2 C56.5,35.8 56.7,37 56.5,37.9 C56.3,38.9 55.8,39.7 55.1,40.6 C52.4,42.7 49.9,45.1 47.8,47.8 C47.4,48.3 47.4,49 47.9,49.5 C48.3,50 49.1,50 49.6,49.6 C52.2,47.7 54.6,45.4 56.6,42.9 C56.7,42.7 56.9,42.6 57,42.4 C57.3,42.2 57.6,41.9 57.9,41.7 C59,40.9 60.3,40.1 61.5,40 C62.1,40 62.7,40.2 63.1,40.6 C63.3,40.8 63.5,41.1 63.5,41.4 C63.5,42 62.9,42.8 62.4,43.4 C59.7,46.6 56.6,49.6 53.4,52.3 C52.9,52.7 52.8,53.5 53.2,54.1 C53.6,54.6 54.4,54.7 55,54.3 C57,52.8 59.2,51.4 61.5,50.3 C62.7,49.7 64.2,49.3 64.6,50 C65,50.6 64.4,51.7 63.7,52.6 C61.9,54.7 59.7,56.5 57.2,57.7 C56.6,58 56.3,58.7 56.6,59.3 C56.8,59.9 57.5,60.2 58.1,60.1 L62.4,58.9 C62.7,58.8 63.2,58.7 63.4,58.7 C63.5,58.7 63.6,58.9 63.6,58.9 C63.7,59.2 63.8,59.6 63.6,59.9 C63.3,60.6 62.5,61.2 61.6,61.8 C56.3,65.1 49.9,67 43.6,67 L43.4,67 L43,67 C41.9,67 40.7,67 39.5,67.3 C38.2,67.7 37.2,68.5 36.1,69.3 C29,75.4 22,81.7 15.5,88.4 C13.3,90.7 11.1,93.4 11.5,96.7 C11.6,97.3 12.1,97.8 12.8,97.8 L13,97.8 C13.7,97.7 14.2,97.1 14.1,96.4 C13.8,94.2 15.5,92.2 17.4,90.2 C23.8,83.6 30.7,77.3 37.9,71.6 C38,71.5 38.1,71.4 38.2,71.3 C38.5,72.1 39.2,72.7 40.2,72.9 C38.9,73.5 37.6,74.1 36.5,75.2 C35,76.8 34.5,78.9 35.2,80.7 C35.4,81.2 35.9,81.5 36.4,81.5 C39.6,81.5 42.8,81.2 45.9,80.7 C45.6,81.7 45.8,83 46.5,83.9 C47.2,84.8 48.2,85.6 49.6,86 C50.9,86.4 52.2,86.6 53.5,86.6 C56.1,86.6 58.8,85.9 61.3,85.1 C64.4,84.1 67.7,82.8 70.1,80.5 L70.6,80 C71.1,79.5 71.6,79 72.1,78.7 C72.6,78.5 73.4,78.5 74.1,78.5 L95.2,78.4 C95.9,78.4 96.5,77.8 96.5,77.1 C96.5,76.4 95.9,75.8 95.2,75.8 L95.2,75.8 L74.1,75.9 C73.2,75.9 72.1,75.9 71.1,76.4 C70.1,76.8 69.4,77.6 68.7,78.3 L68.2,78.8 C66.3,80.7 63.7,81.8 60.4,82.8 C57,83.9 53.4,84.8 50.2,83.7 C49.3,83.4 48.7,83 48.4,82.5 C48.1,82.1 48.1,81.5 48.3,81.2 C48.5,81 48.9,80.8 49.3,80.7 C52.2,79.7 55.3,79.1 58.4,79 C58.8,79 59.1,78.8 59.3,78.5 C59.5,78.2 59.6,77.8 59.6,77.5 C59.5,76.7 59.1,75.9 58.6,75.3 C58.3,74.8 57.6,74.7 57.1,74.9 C50.8,77.5 44,78.9 37.2,79 C37.2,78.3 37.7,77.6 38.1,77.1 C39,76.2 40.2,75.7 41.5,75.1 C45.3,73.6 49.3,72.3 53.3,71.4 C54,71.2 54.4,70.6 54.3,69.9 C54.2,69.2 53.5,68.8 52.8,68.9 L42.4,70.6 C42.2,70.6 42.1,70.6 42,70.7 L42,70.5 C42,70.3 41.9,70.1 41.8,69.9 L42.8,69.9 L43.2,69.9 C50.1,69.9 57,68 62.8,64.3 C64,63.5 65.2,62.6 65.8,61.2 C66,60.6 66.1,60 66,59.4 C66.2,59.6 66.4,59.7 66.6,59.8 C66.7,59.9 66.9,59.9 67,59.9 C67.3,59.9 67.6,59.8 67.8,59.6 C68,59.4 68.2,59.2 68.4,58.9 C68.8,59.3 69,59.8 69.4,60 L69.4,60 Z M41.2,42.7 C42,41.8 42.8,40.8 43.3,39.6 C43.4,39.9 43.5,40.2 43.6,40.4 L41.2,42.7 L41.2,42.7 Z M65.9,55.8 C65.5,56.2 65.4,56.7 65.3,57.3 C64.9,56.9 64.5,56.6 64,56.5 C63.9,56.5 63.8,56.5 63.7,56.4 C64.4,55.8 65,55.1 65.6,54.4 L65.6,54.4 L65.7,54.5 C66,54.8 66.2,55.1 66.4,55.4 C66.3,55.5 66.1,55.7 65.9,55.8 L65.9,55.8 Z" id="Shape"></path>
            </g>
        </g>
    </g>
</svg>