<?xml version="1.0" encoding="utf-8"?>
<!-- Generator: Adobe Illustrator 16.0.4, SVG Export Plug-In . SVG Version: 6.00 Build 0)  -->
<!DOCTYPE svg PUBLIC "-//W3C//DTD SVG 1.1//EN" "http://www.w3.org/Graphics/SVG/1.1/DTD/svg11.dtd">
<svg version="1.1" id="Layer_1" xmlns="http://www.w3.org/2000/svg" xmlns:xlink="http://www.w3.org/1999/xlink" x="0px" y="0px"
	 width="97px" height="98px" viewBox="0 0 97 98" enable-background="new 0 0 97 98" xml:space="preserve">
<g id="Editorial-_x2F_-Documentation">
	<g id="noun_962527_cc" transform="translate(-1.000000, 0.000000)">
		<g id="Group">
			<path id="Shape" fill="#35363C" d="M69.4,60c0.8,0.5,1.699,0.7,2.6,0.8c1.1,0.101,2.2,0.2,3.3,0.2c3.5,0,7-0.5,10.4-1
				c3-0.5,6.1-0.9,9.2-1H95.1h1c0.7,0,1.2-0.6,1.2-1.3s-0.6-1.3-1.3-1.3c-3.6,0-7.3,0.5-10.8,1c-4.5,0.699-8.7,1.3-13,0.8
				c-0.3,0-0.7-0.101-1-0.2v-0.1c-0.3-0.5-0.8-0.801-1.4-0.801c-0.2,0-0.5,0.2-0.7,0.301c0-0.2,0.101-0.4,0.101-0.601
				C69.6,57,70.1,57.1,70.6,57.1c1.601,0.2,3.4-0.5,4.4-1.8c0.8-1.1,1.1-2.3,0.7-3.5c-0.101-0.2-0.2-0.399-0.3-0.6
				c1.6,0,3.1-0.7,3.8-2.1c0.7-1.3,0.899-3.5-2-6.4L77,42.5c1,0.2,2.1,0.2,3.1-0.4C81.4,41.3,82,39.6,81.7,38
				c-0.2-1.3-1-2.4-1.7-3.4c-3.8-4.9-9.1-8.5-15-10.4l-0.4-0.1c-0.699-0.2-1.399-0.4-2-0.8C62,22.9,61.4,22.2,60.9,21.5L45.5,1.4
				c-0.4-0.6-1.2-0.7-1.8-0.2C43.1,1.6,43,2.4,43.5,3l15.8,20.4c0.601,0.8,1.3,1.7,2.3,2.4c0.9,0.6,1.801,0.8,2.7,1.1l0.3,0.1
				c5.4,1.7,10.301,5,13.7,9.5c0.601,0.7,1.101,1.5,1.2,2.3c0.1,0.6-0.1,1.3-0.5,1.5c-0.5,0.3-1.4,0.1-2.1-0.1
				c-1.9-0.6-3.801-1.5-5.5-2.6c-0.9-0.7-1.801-1.4-2.7-2.1c-0.601-0.4-1.3-0.3-1.7,0.2s-0.4,1.3,0.2,1.7c0.899,0.8,1.8,1.5,2.8,2.1
				c2,1.6,3.9,3.3,5.7,5.2c0.7,0.7,2.1,2.4,1.6,3.5c-0.5,0.9-2.2,0.9-3.6,0.4c-0.3-0.1-0.5-0.2-0.8-0.3c-1.5-1.4-3-2.6-4.7-3.7
				c-0.5-0.3-1.2-0.2-1.601,0.2c-0.399,0.5-0.399,1.2,0,1.7c1.301,1.7,3,3,4.9,3.9c0.5,0.5,1,1.1,1.5,1.6c0.3,0.3,0.5,0.6,0.6,0.9
				c0.101,0.3,0,0.699-0.3,1c-0.5,0.6-1.399,1-2.1,0.899c-1.2-0.2-2.3-1-3.4-2c-0.2-0.2-0.399-0.399-0.6-0.6
				c0.399-1.3,0.3-2.4-0.4-3.4c-0.899-1.2-2.399-1.7-4.2-1.2c0.7-0.7,1.301-1.5,2-2.2c0.801-1,1.7-2.2,1.7-3.7
				c0-1-0.399-1.9-1.2-2.6c-0.899-0.9-2.199-1.4-3.5-1.3c-0.8,0-1.6,0.2-2.3,0.5c0.3-2-0.5-3.9-1.899-4.9
				c-1.4-0.9-3.301-1-5.101-0.3c-1.399,0.6-2.6,1.7-3.5,2.6l-2.3,2.2c-0.1-0.2-0.2-0.4-0.4-0.5c-0.2-0.1-0.4-0.2-0.6-0.3
				c0-0.1,0-0.2-0.1-0.3c-0.1-0.7-0.3-1.5-0.5-2.2c-0.6-2-1.5-3.7-2.4-5.5L31,7.5c-0.3-0.6-1.1-0.9-1.7-0.5
				c-0.6,0.3-0.9,1.1-0.5,1.7l11.3,21.5c0.6,1.1,1.2,2.2,1.6,3.4c-0.9-0.3-2-0.1-3.3,0.5c-6,3-10,9.5-9.9,16.2V51.4
				c0.1,1.5,0.1,2.8-0.5,3.899c-0.3,0.5-0.8,1-1.3,1.5C18.5,64.4,10,71.9,1.4,79.3c-0.5,0.5-0.6,1.3-0.1,1.8S2.6,81.7,3.1,81.2
				c8.5-7.3,17.1-14.9,25.4-22.5c0.6-0.601,1.3-1.2,1.8-2.101c1-1.699,0.9-3.6,0.8-5.3v-1.1c-0.1-5.7,3.4-11.4,8.4-13.9
				c0.8-0.4,1.3-0.4,1.5-0.3c0.1,0.1,0.3,0.4,0.3,0.8c0.1,1.7-1.1,3.1-2.6,4.7c-1,1.2-2.1,2.3-2.7,3.8c-0.2,0.3-0.2,0.7,0,1
				c0.1,0.3,0.4,0.6,0.8,0.7c2.5,0.9,4.9-1.3,5.7-2.2l7.8-7.4c0.9-0.8,1.8-1.7,2.8-2.2c0.9-0.4,2-0.4,2.601,0c0.8,0.6,1,1.8,0.8,2.7
				c-0.2,1-0.7,1.8-1.4,2.7c-2.699,2.1-5.2,4.5-7.3,7.2c-0.4,0.5-0.4,1.2,0.1,1.7c0.4,0.5,1.2,0.5,1.7,0.1c2.6-1.899,5-4.2,7-6.7
				c0.101-0.2,0.301-0.3,0.4-0.5c0.3-0.2,0.6-0.5,0.9-0.7c1.1-0.8,2.399-1.6,3.6-1.7c0.6,0,1.2,0.2,1.6,0.6c0.2,0.2,0.4,0.5,0.4,0.8
				c0,0.6-0.6,1.4-1.1,2c-2.7,3.2-5.801,6.2-9,8.9c-0.5,0.4-0.601,1.2-0.2,1.8c0.399,0.5,1.2,0.601,1.8,0.2c2-1.5,4.2-2.899,6.5-4
				c1.2-0.6,2.7-1,3.1-0.3c0.4,0.6-0.199,1.7-0.899,2.6c-1.8,2.101-4,3.9-6.5,5.101c-0.601,0.3-0.9,1-0.601,1.6
				c0.2,0.601,0.9,0.9,1.5,0.8L62.4,58.9c0.3-0.101,0.8-0.2,1-0.2c0.1,0,0.199,0.2,0.199,0.2c0.101,0.3,0.2,0.699,0,1
				c-0.3,0.699-1.1,1.3-2,1.899c-5.3,3.3-11.7,5.2-18,5.2h-0.2H43c-1.1,0-2.3,0-3.5,0.3c-1.3,0.4-2.3,1.2-3.4,2
				C29,75.4,22,81.7,15.5,88.4c-2.2,2.3-4.4,5-4,8.3c0.1,0.6,0.6,1.1,1.3,1.1H13c0.7-0.1,1.2-0.7,1.1-1.399
				c-0.3-2.2,1.4-4.2,3.3-6.2C23.8,83.6,30.7,77.3,37.9,71.6c0.1-0.1,0.2-0.199,0.3-0.3c0.3,0.8,1,1.4,2,1.601
				c-1.3,0.6-2.6,1.199-3.7,2.3c-1.5,1.6-2,3.7-1.3,5.5c0.2,0.5,0.7,0.8,1.2,0.8c3.2,0,6.4-0.3,9.5-0.8c-0.3,1-0.1,2.3,0.6,3.2
				c0.7,0.899,1.7,1.699,3.1,2.1c1.3,0.4,2.6,0.6,3.9,0.6c2.6,0,5.3-0.699,7.8-1.5c3.101-1,6.4-2.3,8.8-4.6l0.5-0.5
				c0.5-0.5,1-1,1.5-1.3c0.5-0.2,1.301-0.2,2-0.2L95.2,78.4c0.7,0,1.3-0.601,1.3-1.301c0-0.699-0.6-1.3-1.3-1.3l0,0L74.1,75.9
				c-0.899,0-2,0-3,0.5C70.1,76.8,69.4,77.6,68.7,78.3l-0.5,0.5c-1.9,1.9-4.5,3-7.8,4c-3.4,1.101-7,2-10.2,0.9
				c-0.9-0.3-1.5-0.7-1.8-1.2c-0.3-0.4-0.3-1-0.1-1.3c0.2-0.2,0.6-0.4,1-0.5c2.9-1,6-1.601,9.101-1.7c0.399,0,0.699-0.2,0.899-0.5
				s0.3-0.7,0.3-1c-0.1-0.8-0.5-1.6-1-2.2c-0.3-0.5-1-0.6-1.5-0.399C50.8,77.5,44,78.9,37.2,79c0-0.7,0.5-1.4,0.9-1.9
				c0.9-0.899,2.1-1.399,3.4-2c3.8-1.5,7.8-2.8,11.8-3.699c0.7-0.2,1.101-0.801,1-1.5c-0.1-0.7-0.8-1.101-1.5-1L42.4,70.6
				c-0.2,0-0.3,0-0.4,0.101v-0.2c0-0.2-0.1-0.4-0.2-0.6h1h0.4C50.1,69.9,57,68,62.8,64.3c1.2-0.8,2.4-1.7,3-3.1
				C66,60.6,66.1,60,66,59.4c0.2,0.199,0.4,0.3,0.6,0.399C66.7,59.9,66.9,59.9,67,59.9c0.3,0,0.6-0.101,0.8-0.301
				C68,59.4,68.2,59.2,68.4,58.9C68.8,59.3,69,59.8,69.4,60L69.4,60z M41.2,42.7c0.8-0.9,1.6-1.9,2.1-3.1c0.1,0.3,0.2,0.6,0.3,0.8
				L41.2,42.7L41.2,42.7z M65.9,55.8c-0.4,0.4-0.5,0.9-0.601,1.5C64.9,56.9,64.5,56.6,64,56.5c-0.1,0-0.2,0-0.3-0.1
				c0.7-0.601,1.3-1.301,1.899-2l0,0l0.101,0.1c0.3,0.3,0.5,0.6,0.7,0.9C66.3,55.5,66.1,55.7,65.9,55.8L65.9,55.8z"/>
		</g>
	</g>
</g>
</svg>
