<?xml version="1.0" encoding="UTF-8" standalone="no"?>
<!DOCTYPE svg  PUBLIC '-//W3C//DTD SVG 1.1//EN'  'http://www.w3.org/Graphics/SVG/1.1/DTD/svg11.dtd'>
<svg version="1.1" xmlns="http://www.w3.org/2000/svg">
<defs>
<font id="LyonDisplay-Medium" horiz-adv-x="790">
<font-face unicode-range="U+0020-00FE" descent="-240" units-per-em="1000" panose-1="2 0 6 3 8 0 0 2 0 4" underline-thickness="50" underline-position="-150" bbox="-33 -251 993 932" font-weight="500" x-height="483" cap-height="664" font-family="Lyon Display Medium" ascent="760"/>
<missing-glyph/>
<glyph unicode=" " horiz-adv-x="166" glyph-name="space"/>
<glyph unicode="!" horiz-adv-x="283" d="M68 703h148l-60 -505h-28zM141 -11q-30 0 -52.5 22t-22.5 52q0 31 22.5 53t52.5 22q31 0 53 -22t22 -53q0 -30 -22 -52t-53 -22z" glyph-name="exclam"/>
<glyph unicode='&quot;' horiz-adv-x="443" d="M111 464l-46 258h121l-54 -258h-21zM303 464l-46 258h121l-54 -258h-21z" glyph-name="quotedbl"/>
<glyph unicode="#" horiz-adv-x="585" d="M79 398v41h124l28 155h39l-28 -155h157l28 155h38l-28 -155h121v-41h-128l-34 -191h118v-41h-125l-29 -166h-38l29 166h-157l-29 -166h-39l29 166h-120v41h127l34 191h-117zM235 398l-34 -191h157l34 191h-157z" glyph-name="numbersign"/>
<glyph unicode="$" horiz-adv-x="568" d="M67 28l-10 186h27l63 -155q38 -29 94 -35l21 233l-44 14q-147 44 -147 178q0 78 60.5 135t166.5 61l10 106h35l-10 -107q75 -5 153 -40v-168h-27l-53 139q-30 26 -77 32l-20 -225l63 -19q77 -24 112.5 -63.5t35.5 -96.5q0 -97 -75.5 -157.5t-172.5 -63.5l-10 -107h-35 l10 108q-83 5 -170 45zM305 245l-9 2l-21 -225q51 2 88.5 33.5t37.5 82.5q0 78 -96 107zM182 502q0 -41 20.5 -66t72.5 -43l20 216q-50 -3 -81.5 -33t-31.5 -74z" glyph-name="dollar"/>
<glyph unicode="%" horiz-adv-x="831" d="M162 -50l450 680h42l-452 -680h-40zM201 576q-30 0 -45.5 -32t-15.5 -77q0 -63 24 -115t61 -52q28 0 44 32t16 78q0 65 -25 115.5t-59 50.5zM210 269q-71 0 -116.5 46.5t-45.5 116.5q0 75 49.5 125t116.5 50q71 0 117 -48.5t46 -115.5q0 -75 -48.5 -124.5t-118.5 -49.5z M597 290q-29 0 -45 -32t-16 -77q0 -63 24 -114.5t61 -51.5q29 0 44.5 32t15.5 78q0 65 -24.5 115t-59.5 50zM607 -17q-71 0 -116.5 47t-45.5 117q0 74 49 124.5t116 50.5q72 0 117.5 -49t45.5 -116q0 -75 -48.5 -124.5t-117.5 -49.5z" glyph-name="percent"/>
<glyph unicode="&amp;" horiz-adv-x="801" d="M787 455l-88 -24l-135 -214q-7 -12 -23 -34q51 -64 81 -90t64 -26q36 0 84 27l14 -18q-85 -92 -169 -91q-46 1 -75.5 21.5t-77.5 79.5q-106 -106 -216 -106q-102 0 -158.5 55t-56.5 136q0 110 172 199q-48 47 -68 79.5t-20 74.5q0 73 63.5 116.5t149.5 43.5q82 0 130 -33 t48 -87q0 -52 -38.5 -86.5t-121.5 -73.5q53 -53 100 -106l74 -88q19 29 37 62l87 159l-88 24v28h231v-28zM348 221q-42 47 -122 127q-39 -31 -56.5 -60t-17.5 -68q0 -62 44 -105t114 -43q71 0 126 44q-69 83 -88 105zM228 564q0 -24 12.5 -46t26 -36t56.5 -56q42 34 59.5 65 t17.5 71q0 37 -24.5 63.5t-62.5 26.5q-36 0 -60.5 -24t-24.5 -64z" glyph-name="ampersand"/>
<glyph unicode="&apos;" horiz-adv-x="251" d="M111 464l-46 258h121l-54 -258h-21z" glyph-name="quotesingle"/>
<glyph unicode="(" horiz-adv-x="345" d="M340 -180h-42q-97 92 -151.5 208.5t-54.5 244.5q0 130 56 248t153 211h43q-83 -107 -123 -214.5t-40 -244.5q0 -132 39 -239.5t120 -213.5z" glyph-name="parenleft"/>
<glyph unicode=")" horiz-adv-x="345" d="M5 732h41q97 -92 151.5 -208.5t54.5 -244.5q0 -130 -56 -248t-153 -211h-42q82 108 122 215t40 244q0 132 -39 239.5t-119 213.5z" glyph-name="parenright"/>
<glyph unicode="*" horiz-adv-x="393" d="M373 517l-127 -13l9 -131l-20 -4l-51 120l-121 -49l-10 16l100 86l-84 98l12 14l112 -65l68 109l18 -6l-29 -126l124 -31z" glyph-name="asterisk"/>
<glyph unicode="+" horiz-adv-x="580" d="M527 221h-214v-215h-46v215h-214v43h214v215h46v-215h214v-43z" glyph-name="plus"/>
<glyph unicode="," horiz-adv-x="269" d="M51 -172l-18 25q95 65 95 130q0 29 -17.5 50.5t-46.5 29.5q-6 31 13 56t54 25q34 0 59.5 -30t25.5 -76q0 -62 -40.5 -111.5t-124.5 -98.5z" glyph-name="comma"/>
<glyph unicode="-" horiz-adv-x="372" d="M56 238v77h260v-77h-260z" glyph-name="hyphen"/>
<glyph unicode="." horiz-adv-x="252" d="M128 -11q-30 0 -52.5 22t-22.5 52q0 31 22.5 53t52.5 22q31 0 53 -22t22 -53q0 -30 -22 -52t-53 -22z" glyph-name="period"/>
<glyph unicode="/" horiz-adv-x="420" d="M3 -212l-36 16l392 947l37 -16z" glyph-name="slash"/>
<glyph unicode="0" horiz-adv-x="623" d="M287 487q-51 0 -80 -47t-29 -130q0 -69 16 -133t54 -111t91 -47q50 0 78 48t28 136q0 112 -45.5 198t-112.5 86zM314 -17q-122 0 -198 75t-76 193q0 112 81 192.5t190 80.5q120 0 196.5 -76t76.5 -192q0 -113 -79.5 -193t-190.5 -80z" glyph-name="zero"/>
<glyph unicode="1" horiz-adv-x="404" d="M283 518v-469l105 -17v-32h-346v32l112 16v385h-122v32l247 53h4z" glyph-name="one"/>
<glyph unicode="2" horiz-adv-x="466" d="M218 154l-64 -57h288v-97h-408v33l58 53q100 100 139 152t39 100q0 43 -25.5 70t-66.5 27q-58 0 -108 -69l-25 12q25 69 72.5 108.5t113.5 39.5q70 0 113 -39.5t43 -101.5q0 -40 -24 -81t-56 -72t-89 -78z" glyph-name="two"/>
<glyph unicode="3" horiz-adv-x="448" d="M127 -207q-48 0 -85 23t-37 58q0 24 17.5 42.5t45.5 19.5q64 -89 84 -107q65 3 103 43t38 105q0 66 -52.5 109t-144.5 42v51l35 7q140 60 140 155q0 45 -27 71t-68 26q-65 0 -110 -71l-27 12q22 66 70 106.5t115 40.5q74 0 118 -40t44 -102q0 -56 -34.5 -94t-94.5 -73 l-28 -16v-2q77 -5 130.5 -51t53.5 -122q0 -66 -45 -121t-110 -83.5t-131 -28.5z" glyph-name="three"/>
<glyph unicode="4" horiz-adv-x="595" d="M328 -193v210h-306v50l389 453l37 -3v-414h133v-86h-133v-210h-120zM100 103h228v270z" glyph-name="four"/>
<glyph unicode="5" horiz-adv-x="401" d="M205 49q0 60 -34.5 110.5t-115.5 114.5l78 235h216v-110h-218l-8 -24q110 -75 158 -138t48 -144q0 -208 -314 -324l-11 24q201 103 201 256z" glyph-name="five"/>
<glyph unicode="6" horiz-adv-x="598" d="M563 688q-111 -49 -206.5 -124t-140.5 -172q62 46 127 46q90 0 149.5 -59t59.5 -153q0 -104 -76.5 -175t-177.5 -71q-107 0 -179.5 70.5t-72.5 191.5q0 69 29 135t78.5 118.5t115 97t138 75.5t147.5 49zM275 385q-37 0 -70 -19q-20 -55 -20 -113q0 -112 40.5 -174.5 t96.5 -62.5q47 0 73 41t26 111q0 90 -41 153.5t-105 63.5z" glyph-name="six"/>
<glyph unicode="7" horiz-adv-x="509" d="M103 -207l-58 28l347 569h-354v119h455v-7l-315 -564z" glyph-name="seven"/>
<glyph unicode="8" horiz-adv-x="545" d="M38 146q0 34 13.5 61.5t40.5 49t47.5 34t54.5 28.5q-69 41 -98 79.5t-29 97.5q0 74 65 130.5t164 56.5q86 0 140 -44.5t54 -104.5q0 -31 -13.5 -57.5t-38 -46.5t-44 -32t-47.5 -26q85 -47 122.5 -93.5t37.5 -105.5q0 -86 -72 -139.5t-172 -53.5q-97 0 -161 46.5 t-64 119.5zM263 277l-44 27q-62 -59 -62 -137q0 -63 36 -108.5t93 -45.5q49 0 76 30.5t27 75.5q0 48 -31.5 84t-94.5 74zM177 552q0 -43 22 -74t70 -59l51 -31q59 61 59 128q0 64 -33 99.5t-76 35.5q-39 0 -66 -26.5t-27 -72.5z" glyph-name="eight"/>
<glyph unicode="9" horiz-adv-x="591" d="M40 -183q268 120 342 297q-59 -45 -127 -45q-91 0 -151 59.5t-60 154.5q0 100 74.5 171t176.5 71q106 0 179.5 -73t73.5 -192q0 -76 -29.5 -144t-78 -119t-114.5 -93.5t-134.5 -70.5t-142.5 -46zM325 121q39 0 66 19q18 52 18 113q0 109 -38.5 172.5t-93.5 63.5 q-47 0 -74 -40t-27 -113q0 -90 42 -152.5t107 -62.5z" glyph-name="nine"/>
<glyph unicode=":" horiz-adv-x="267" d="M136 -11q-30 0 -52.5 22t-22.5 52q0 31 22.5 53t52.5 22q31 0 53 -22t22 -53q0 -30 -22 -52t-53 -22zM135 335q-30 0 -52 22t-22 53q0 30 22 52t52 22q31 0 53 -22t22 -52q0 -31 -22 -53t-53 -22z" glyph-name="colon"/>
<glyph unicode=";" horiz-adv-x="270" d="M53 -172l-18 25q95 66 95 130q0 29 -17.5 50.5t-46.5 29.5q-6 31 13 56t54 25q34 0 59.5 -30t25.5 -76q0 -62 -40.5 -111.5t-124.5 -98.5zM140 335q-30 0 -52 22t-22 53q0 30 22 52t52 22q31 0 53 -22t22 -52q0 -31 -22 -53t-53 -22z" glyph-name="semicolon"/>
<glyph unicode="&lt;" horiz-adv-x="588" d="M530 433l-414 -192l414 -190v-48l-473 222v34l473 221v-47z" glyph-name="less"/>
<glyph unicode="=" horiz-adv-x="580" d="M527 298h-474v42h474v-42zM527 157h-474v42h474v-42z" glyph-name="equal"/>
<glyph unicode="&gt;" horiz-adv-x="588" d="M58 50l413 191l-413 191v48l472 -222v-34l-472 -221v47z" glyph-name="greater"/>
<glyph unicode="?" horiz-adv-x="394" d="M72 575v133l41 -9q97 -21 173 -90t76 -159q0 -55 -28.5 -89.5t-91.5 -54.5l-89 -28l3 -80h-38l-26 175l147 40q46 13 66 27.5t20 35.5q0 35 -52 60.5t-155 34.5zM138 -11q-30 0 -52.5 22t-22.5 52q0 31 22.5 53t52.5 22q31 0 53 -22t22 -53q0 -30 -22 -52t-53 -22z" glyph-name="question"/>
<glyph unicode="@" horiz-adv-x="945" d="M502 155l11 37h-3q-2 -3 -15.5 -22.5t-20.5 -28.5q-84 -119 -154 -119q-37 0 -58.5 26t-21.5 67q0 79 49 161.5t120 134.5t133 52q28 0 62 -18l12 34h83l-88 -310q-31 -109 40 -109q60 0 119.5 69t60.5 192q1 130 -87 218.5t-222 88.5q-73 0 -142.5 -30.5t-124.5 -83.5 t-89 -133t-34 -171q-1 -167 97 -259t249 -92q78 0 153 28v-17q-18 -12 -74.5 -27.5t-117.5 -15.5q-78 0 -146.5 20.5t-124.5 62t-88.5 112t-32.5 161.5q0 130 74 241.5t188 173.5t236 62q161 0 258 -92.5t97 -229.5q0 -74 -30 -136.5t-76 -101t-97.5 -60t-98.5 -21.5 q-61 0 -88 36t-8 100zM387 103q32 0 87 78t79 153l21 66q-27 32 -51 32q-55 0 -109.5 -97.5t-54.5 -189.5q0 -42 28 -42z" glyph-name="at"/>
<glyph unicode="A" horiz-adv-x="684" d="M-6 0v29l70 18l237 622l36 8l44 9l241 -641l68 -16v-29h-299v29l79 17l-64 178h-229l-63 -173l114 -22v-29h-234zM292 543l-97 -268h193z" glyph-name="A"/>
<glyph unicode="B" horiz-adv-x="635" d="M30 0v29l77 19v568l-77 19v29l262 1q147 1 208 -37.5t61 -108.5q0 -66 -53 -104.5t-138 -53.5v-2q106 -4 172 -48t66 -127q0 -92 -78 -139t-224 -46zM317 338h-73v-256q10 -21 36 -35.5t57 -14.5q60 0 93 34.5t33 100.5q0 70 -43 117.5t-103 53.5zM244 634v-266 q94 6 138 38.5t44 95.5t-48.5 97.5t-133.5 34.5z" glyph-name="B"/>
<glyph unicode="C" horiz-adv-x="720" d="M409 -20q-91 0 -162.5 29t-115 77t-66 107t-22.5 123q0 155 115.5 260.5t279.5 105.5q109 0 213 -52l3 -182h-29l-64 144q-66 54 -147 54q-92 0 -152 -80.5t-60 -209.5q0 -160 67.5 -249t169.5 -89q70 0 121 43l94 161h30l-34 -184q-129 -58 -241 -58z" glyph-name="C"/>
<glyph unicode="D" horiz-adv-x="769" d="M244 637v-570q36 -36 112 -34q100 1 162.5 82.5t62.5 206.5q0 154 -96 237t-241 78zM30 0v30l77 18v567l-77 20v29l316 2q172 -5 277.5 -90.5t105.5 -229.5q0 -156 -119.5 -252.5t-325.5 -95.5z" glyph-name="D"/>
<glyph unicode="E" horiz-adv-x="619" d="M365 323h-120v-259q20 -24 60 -27h150l106 178h31l-46 -215h-516v29l77 19v566l-77 21v29h448l80 2v-189h-30l-60 151h-223v-265h120l32 102h29v-239h-31z" glyph-name="E"/>
<glyph unicode="F" horiz-adv-x="581" d="M371 317h-126v-269l103 -15v-33h-318v30l77 18v566l-77 21v29h437l84 2v-188h-31l-59 149h-216v-271h126l34 103h28v-240h-29z" glyph-name="F"/>
<glyph unicode="G" horiz-adv-x="758" d="M419 -20q-95 0 -169 29t-117.5 77.5t-65.5 107t-22 122.5q0 153 122 259.5t288 106.5q112 0 214 -49l5 -182h-27l-77 148q-61 44 -128 44q-107 0 -172 -83.5t-65 -218.5q0 -156 70.5 -237t175.5 -81q55 0 99 19v204l-113 16v35h297v-32l-50 -13v-208l-35 -14 q-121 -50 -230 -50z" glyph-name="G"/>
<glyph unicode="H" horiz-adv-x="792" d="M466 0v29l81 19v274h-302v-274l81 -19v-29h-296v29l77 19v567l-77 20v29h296v-29l-81 -20v-252h302v252l-81 20v29h296v-29l-77 -20v-567l77 -19v-29h-296z" glyph-name="H"/>
<glyph unicode="I" horiz-adv-x="353" d="M30 0v29l77 19v567l-77 20v29h292v-29l-77 -20v-567l77 -19v-29h-292z" glyph-name="I"/>
<glyph unicode="J" horiz-adv-x="357" d="M252 615v-546q0 -128 -59.5 -198t-200.5 -87l-6 23q77 35 102.5 85t25.5 142v581l-87 20v29h302v-29z" glyph-name="J"/>
<glyph unicode="K" horiz-adv-x="705" d="M30 0v29l77 19v567l-77 20v29h296v-29l-81 -20v-567l81 -19v-29h-296zM508 0l-248 325v5l266 285l-92 20v29h228v-29l-80 -21l-210 -217l271 -354l63 -14v-29h-198z" glyph-name="K"/>
<glyph unicode="L" horiz-adv-x="603" d="M245 64q20 -25 61 -26h142l109 207h31l-48 -245h-510v30l77 18v566l-77 21v29h302v-29l-87 -20v-551z" glyph-name="L"/>
<glyph unicode="M" horiz-adv-x="906" d="M24 0v29l78 19l28 565l-79 22v29h228l186 -439l166 417l6 22h220v-29l-77 -19l25 -568l78 -19v-29h-304v29l88 19l-18 536l-185 -466l-36 -92h-21l-35 91l-202 460l-20 -526l110 -21v-30h-236z" glyph-name="M"/>
<glyph unicode="N" horiz-adv-x="728" d="M634 -6l-48 -6l-431 541l3 -477l96 -22v-30h-219v30l74 19v533q-29 36 -71 48l-17 6v28h202l364 -459l-3 406l-95 24v29h217v-29l-74 -21v-516z" glyph-name="N"/>
<glyph unicode="O" d="M410 16q91 0 139.5 82.5t48.5 212.5q0 134 -62 234.5t-156 100.5q-91 0 -140 -80.5t-49 -211.5q0 -86 25.5 -162t76.5 -126t117 -50zM395 682q155 0 255 -98t100 -240q0 -83 -29.5 -152.5t-79.5 -115t-114 -71t-134 -25.5q-146 0 -249.5 96.5t-103.5 252.5 q0 102 50.5 184t131 125.5t173.5 43.5z" glyph-name="O"/>
<glyph unicode="P" horiz-adv-x="584" d="M288 285v31q66 8 107.5 48t41.5 104q0 67 -47 113.5t-145 52.5v-586l96 -18v-30h-311v30l77 18v567l-77 20v29h246q136 1 214.5 -47.5t78.5 -131.5q0 -89 -84 -143.5t-197 -56.5z" glyph-name="P"/>
<glyph unicode="Q" d="M395 682q155 0 255 -98t100 -237q0 -130 -74 -222.5t-187 -123.5q122 -90 169 -116q80 -43 152 -43q97 0 169 55l14 -17q-20 -20 -34 -32t-45.5 -32t-74.5 -30t-96 -10q-29 0 -55 2.5t-55 12.5t-47.5 15t-51 24.5t-45 25.5t-50 33.5t-45.5 33t-52.5 40t-51.5 39.5 q-109 31 -179.5 119t-70.5 211q0 152 106 251t249 99zM410 20q91 0 139.5 80.5t48.5 213.5q0 134 -62 233.5t-156 99.5q-91 0 -140 -79.5t-49 -211.5q0 -89 25 -164.5t76 -123.5t118 -48z" glyph-name="Q"/>
<glyph unicode="R" horiz-adv-x="680" d="M30 0v29l77 19v568l-77 19v29l254 2q152 1 226 -43.5t74 -121.5q0 -115 -149 -165v-4l181 -286l66 -17v-29h-192l-150 239l-38 61h-58v-252l76 -19v-29h-290zM244 636v-299h79q56 9 91.5 48t35.5 92q0 71 -56.5 115t-149.5 44z" glyph-name="R"/>
<glyph unicode="S" horiz-adv-x="541" d="M56 31l-13 189h27l73 -163q47 -37 114 -37q56 0 90.5 33t34.5 87q0 43 -23.5 73.5t-85.5 55.5l-54 22q-83 34 -120.5 80t-37.5 112q0 82 68.5 141.5t179.5 59.5q74 0 162 -44l4 -166h-28l-62 143q-36 32 -85 32q-53 0 -85 -31t-32 -76q0 -46 25.5 -72.5t90.5 -55.5 l60 -26q85 -38 118 -80t33 -101q0 -100 -79.5 -162t-183.5 -62q-88 0 -191 48z" glyph-name="S"/>
<glyph unicode="T" horiz-adv-x="636" d="M101 664h434l75 5l2 -200h-28l-59 155h-138v-576l94 -19v-29h-327v29l95 19v576h-138l-59 -155h-28l2 200z" glyph-name="T"/>
<glyph unicode="U" horiz-adv-x="737" d="M367 -21q-135 0 -203 70.5t-68 202.5v362l-77 21v29h308v-29l-90 -21v-348q0 -104 41.5 -163t126.5 -59q87 0 133.5 52t49.5 152l-1 360l-110 27v29h241v-29l-77 -23v-347q0 -137 -73.5 -211.5t-200.5 -74.5z" glyph-name="U"/>
<glyph unicode="V" horiz-adv-x="648" d="M291 -12l-243 628l-51 19v29h283v-29l-82 -20l175 -482l174 476l-102 25v30h207v-29l-56 -23l-240 -624h-65z" glyph-name="V"/>
<glyph unicode="W" horiz-adv-x="936" d="M611 -9l-140 423l-153 -423h-71l-198 625l-52 18v30h268v-29l-72 -19l141 -473l116 334l-46 139l-59 19v29h281v-30l-79 -18l146 -462l140 454l-100 26v30h206v-29l-55 -23l-202 -621h-71z" glyph-name="W"/>
<glyph unicode="X" horiz-adv-x="679" d="M2 30l72 17l204 275l-188 293l-70 20v29h307v-29l-78 -20l130 -209h2l145 203l-92 25v30h224v-29l-71 -21l-182 -249l205 -317l69 -18v-30h-306v30l77 18l-146 235h-2l-162 -233l81 -20v-30h-219v30z" glyph-name="X"/>
<glyph unicode="Y" horiz-adv-x="638" d="M578 614l-188 -322v-244l79 -19v-29h-297v29l80 19v220l-196 351l-55 16v29h295v-29l-86 -19l153 -294l162 290l-98 23v29h210v-29z" glyph-name="Y"/>
<glyph unicode="Z" horiz-adv-x="642" d="M28 0v27l378 596h-268l-69 -159h-28l5 204l87 -4h450v-6l-395 -616h309l102 184h31l-43 -226h-559z" glyph-name="Z"/>
<glyph unicode="[" horiz-adv-x="308" d="M297 -181h-198v914h198v-36h-100v-842h100v-36z" glyph-name="bracketleft"/>
<glyph unicode="\" horiz-adv-x="420" d="M453 -196l-36 -16l-392 947l37 16z" glyph-name="backslash"/>
<glyph unicode="]" horiz-adv-x="308" d="M11 733h198v-914h-198v36h100v842h-100v36z" glyph-name="bracketright"/>
<glyph unicode="^" horiz-adv-x="453" d="M86 485h-41l161 271h41l161 -271h-48l-137 196z" glyph-name="asciicircum"/>
<glyph unicode="_" horiz-adv-x="408" d="M4 -215v42h400v-42h-400z" glyph-name="underscore"/>
<glyph unicode="`" horiz-adv-x="307" d="M66 763h113l48 -200h-33l-128 192v8z" glyph-name="grave"/>
<glyph unicode="a" horiz-adv-x="498" d="M158 -15q-53 0 -90 33t-37 89q0 58 40.5 91t128.5 55l97 24v67q-2 50 -24.5 80.5t-61.5 30.5q-30 0 -51 -15l-4 -110q-25 -9 -55 -9q-26 0 -41.5 13t-15.5 37q0 44 67.5 85t153.5 41q80 0 119 -36.5t39 -115.5v-266q0 -20 7 -26.5t27 -6.5h43v-20q-67 -38 -116 -38 q-79 0 -83 80h-5q-20 -26 -35 -41t-43 -28.5t-60 -13.5zM226 60q41 0 71 38v149l-66 -22q-77 -25 -77 -87q0 -34 19 -56t53 -22z" glyph-name="a"/>
<glyph unicode="b" horiz-adv-x="562" d="M230 -16q-72 0 -133 26l-36 16v617l-62 32v15l188 56v-327q69 77 155 77q78 0 134 -57.5t56 -167.5q0 -118 -94.5 -202.5t-207.5 -84.5zM264 426q-43 0 -77 -30v-323q27 -46 90 -46q55 0 90.5 50.5t35.5 142.5q0 89 -41.5 147.5t-97.5 58.5z" glyph-name="b"/>
<glyph unicode="c" horiz-adv-x="486" d="M258 -14q-99 0 -163.5 68t-64.5 183q0 114 77.5 188t178.5 74q70 0 121 -33.5t51 -80.5q0 -29 -20 -45t-52 -16q-24 0 -32 5l-29 109q-27 25 -63 25q-50 0 -82 -45t-32 -117q0 -101 50 -161t123 -60q43 0 79 18.5t54 38.5l15 -15q-88 -136 -211 -136z" glyph-name="c"/>
<glyph unicode="d" horiz-adv-x="581" d="M297 682v16l203 49v-689l63 -17v-23l-174 -31l-11 66q-67 -69 -144 -69q-92 0 -148 67.5t-56 166.5q0 119 85.5 197t198.5 78q24 0 60 -9v162zM303 56q34 0 71 25v317q-35 57 -98 57q-51 0 -85.5 -45.5t-34.5 -138.5q0 -87 39.5 -151t107.5 -64z" glyph-name="d"/>
<glyph unicode="e" horiz-adv-x="500" d="M254 -14q-103 0 -163.5 72.5t-60.5 176.5q0 109 73.5 186.5t166.5 77.5q170 0 195 -205h-322v-9q0 -95 50 -150t126 -55q64 0 137 56l16 -15q-91 -135 -218 -135zM240 460q-38 0 -63 -34.5t-32 -98.5h186q-15 133 -91 133z" glyph-name="e"/>
<glyph unicode="f" horiz-adv-x="340" d="M23 0v28l61 17v387h-72v31l73 23q8 118 77.5 191t158.5 73q55 0 98 -26.5t43 -65.5q0 -37 -29 -51t-68 -8l-23 93q-22 22 -53 22q-35 0 -58 -34.5t-22 -108.5l1 -88h132v-47h-131v-391l76 -17v-28h-264z" glyph-name="f"/>
<glyph unicode="g" horiz-adv-x="524" d="M518 426l-120 7l-1 -3q49 -45 49 -102q0 -72 -58.5 -119t-145.5 -47q-52 0 -91 16q-19 -21 -19 -39q0 -33 48 -36l200 -10q63 -3 97 -33.5t34 -78.5q0 -88 -93.5 -154t-216.5 -66q-87 0 -136 32t-49 88q0 70 98 111v5q-31 6 -52.5 27t-21.5 54q0 51 82 112v2 q-78 46 -78 134q0 76 58 123.5t142 47.5q43 0 126 -25l148 15v-61zM368 -25l-218 12q-31 -33 -31 -73q0 -48 38.5 -75t105.5 -27q78 0 118.5 33.5t40.5 72.5q0 22 -15 37t-39 20zM161 361q1 -74 27 -120t68 -46q32 0 52.5 30t20.5 81q-1 75 -28.5 118.5t-67.5 42.5 q-34 0 -53 -29t-19 -77z" glyph-name="g"/>
<glyph unicode="h" horiz-adv-x="592" d="M336 0v28l57 17v274q-2 46 -23.5 72.5t-64.5 25.5q-45 0 -93 -38v-334l58 -17v-28h-246v28l61 17v591l-59 35v17l186 59v-338q85 88 170 88q68 0 102.5 -38t34.5 -123v-291l63 -18v-27h-246z" glyph-name="h"/>
<glyph unicode="i" horiz-adv-x="288" d="M20 0v28l63 17v345l-61 40v16l188 51v-452l66 -17v-28h-256zM143 594q-29 0 -51 21.5t-22 51.5q0 29 22 51t51 22t51.5 -22t22.5 -51q0 -30 -22 -51.5t-52 -21.5z" glyph-name="i"/>
<glyph unicode="j" horiz-adv-x="283" d="M-13 -239l-6 19q58 36 79 82.5t23 151.5v376l-60 40v16l186 51v-442q0 -81 -9 -126.5t-40 -77.5q-57 -60 -173 -90zM144 594q-30 0 -51.5 21.5t-21.5 51.5q0 29 21.5 51t51.5 22q29 0 51 -22t22 -51q0 -30 -22 -51.5t-51 -21.5z" glyph-name="j"/>
<glyph unicode="k" horiz-adv-x="556" d="M85 45v591l-59 35v17l186 59v-702l58 -17v-28h-246v28zM478 -14q-69 0 -110 57l-149 210l183 174l-75 30v26h216v-24l-71 -25l-148 -128l232 -296q-34 -24 -78 -24z" glyph-name="k"/>
<glyph unicode="l" horiz-adv-x="292" d="M22 0v28l63 17v591l-59 35v17l186 59v-702l66 -17v-28h-256z" glyph-name="l"/>
<glyph unicode="m" horiz-adv-x="896" d="M640 0v28l56 17v274q-3 98 -88 98q-44 0 -92 -38v-334l57 -18v-27h-241v28l57 17v274q-5 98 -88 98q-44 0 -93 -39v-333l58 -17v-28h-246v28l61 17v345l-61 38v15l169 55h5l7 -93h2q89 92 176 92q107 0 128 -93h3q90 93 176 93q68 0 102.5 -38t34.5 -123v-291l63 -18v-27 h-246z" glyph-name="m"/>
<glyph unicode="n" horiz-adv-x="589" d="M20 0v28l61 17v345l-61 38v15l169 55h5l7 -93h2q89 92 176 92q68 0 102.5 -38t34.5 -123v-291l62 -18v-27h-246v28l57 17v274q-2 46 -23.5 72.5t-64.5 25.5q-45 0 -93 -38v-334l58 -17v-28h-246z" glyph-name="n"/>
<glyph unicode="o" horiz-adv-x="575" d="M271 464q-54 0 -79 -52.5t-25 -127.5q0 -106 36.5 -185t100.5 -79q48 0 76 50t28 133q0 114 -39 187.5t-98 73.5zM288 -16q-118 0 -187.5 73t-69.5 175q0 112 74.5 189t182.5 77q114 0 185 -68t71 -177q0 -114 -74 -191.5t-182 -77.5z" glyph-name="o"/>
<glyph unicode="p" horiz-adv-x="581" d="M12 -229v28l67 18v573l-62 38v15l173 55h5l4 -93h1q66 90 159 90q78 0 134.5 -57.5t56.5 -166.5q0 -121 -89.5 -201.5t-198.5 -80.5q-29 0 -56 5v-175l105 -20v-28h-299zM285 421q-44 0 -79 -35v-320q33 -39 87 -39q56 0 92 50.5t36 143.5q0 90 -39 145t-97 55z" glyph-name="p"/>
<glyph unicode="q" horiz-adv-x="571" d="M271 -229v26l103 22v230q-65 -65 -140 -65q-91 0 -147.5 67t-56.5 167q0 120 84.5 197.5t186.5 77.5q64 0 113 -37l83 42h5v-680l65 -19v-28h-296zM305 57q36 0 69 24v318q-34 56 -98 56q-51 0 -85 -45.5t-34 -144.5q0 -84 40 -146t108 -62z" glyph-name="q"/>
<glyph unicode="r" horiz-adv-x="400" d="M20 0v28l61 17v345l-61 38v15l171 55h5l5 -131h4l13 26q32 60 57.5 82.5t60.5 22.5q28 0 47.5 -17t19.5 -46q0 -59 -68 -74l-62 37q-15 -5 -35 -27.5t-30 -51.5v-274l83 -17v-28h-271z" glyph-name="r"/>
<glyph unicode="s" horiz-adv-x="434" d="M184 -16q-66 0 -142 33l-6 153h24l57 -122q27 -29 72 -29q42 0 66.5 23t24.5 58q0 55 -70 82l-66 25q-102 38 -102 137q0 69 57 112t146 43q64 0 130 -31l-1 -136h-22l-51 107q-31 25 -67 25q-35 0 -56.5 -21t-21.5 -52q0 -30 17.5 -48t55.5 -33l53 -21q62 -25 89 -54.5 t27 -79.5q0 -75 -62.5 -123t-151.5 -48z" glyph-name="s"/>
<glyph unicode="t" horiz-adv-x="352" d="M195 -13q-122 0 -120 129l3 314h-74v33l74 23l103 124h21v-127h141v-55h-141v-319q14 -58 83 -58q28 0 61 11l6 -23q-76 -52 -157 -52z" glyph-name="t"/>
<glyph unicode="u" horiz-adv-x="587" d="M391 -13l-11 82q-78 -85 -164 -85q-65 0 -103.5 39.5t-38.5 116.5v273l-62 27v19l188 32v-325q0 -102 89 -102q47 0 89 33v318l-68 25v20l195 33v-434l67 -21v-23z" glyph-name="u"/>
<glyph unicode="v" horiz-adv-x="486" d="M269 -16h-53l-177 455l-52 16v28h254v-28l-65 -16l101 -290l8 -27h2l10 28l101 286l-67 20v27h168v-28l-55 -16z" glyph-name="v"/>
<glyph unicode="w" horiz-adv-x="755" d="M441 488l122 -330l9 -30h2q4 20 7 31l81 275l-74 22v27h179v-28l-59 -17l-146 -453h-63l-113 300l-10 33h-2q-6 -23 -10 -33l-108 -300h-59l-152 454l-57 16v28h262v-28l-67 -16l82 -277l8 -34h2q7 24 11 34l113 326h42z" glyph-name="w"/>
<glyph unicode="x" horiz-adv-x="519" d="M311 278l147 -233l55 -18v-27h-243v28l46 17l-89 144h-2l-96 -142l51 -20v-27h-172v27l64 19l134 177l-139 219l-51 15v26h243v-26l-47 -16l79 -130h2l85 127l-50 19v26h158v-26l-53 -16z" glyph-name="x"/>
<glyph unicode="y" horiz-adv-x="492" d="M403 436l-64 20v27h156v-28l-46 -16l-227 -591q-36 -92 -108 -92q-29 0 -49.5 20t-20.5 50q0 29 20.5 49t48.5 20q23 0 37 -10.5t31 -33.5l3 -4l44 113l-189 482l-42 13v28h234v-28l-53 -15l113 -316z" glyph-name="y"/>
<glyph unicode="z" horiz-adv-x="483" d="M345 0h-315v25l265 420h-166l-56 -131h-26v178l80 -9h329v-4l-279 -443h173l74 146h25l-17 -184z" glyph-name="z"/>
<glyph unicode="{" horiz-adv-x="333" d="M102 277v-3q69 -9 95.5 -33.5t26.5 -86.5l-1 -187q0 -69 21.5 -95.5t77.5 -26.5v-26h-16q-106 -3 -147 41.5t-33 133.5l16 179q8 79 -65 82l-33 1v40l33 1q73 3 65 82l-16 179q-8 89 33 133.5t147 41.5h16v-26q-56 0 -77.5 -26.5t-21.5 -95.5l1 -188q0 -62 -27 -86.5 t-95 -33.5z" glyph-name="braceleft"/>
<glyph unicode="|" horiz-adv-x="224" d="M131 -205h-38v944h38v-944z" glyph-name="bar"/>
<glyph unicode="}" horiz-adv-x="333" d="M231 275v3q-69 9 -95.5 33.5t-26.5 86.5l1 187q0 69 -21.5 95.5t-77.5 26.5v26h16q106 3 147 -41.5t33 -133.5l-16 -179q-8 -79 65 -82l33 -1v-40l-33 -1q-73 -3 -65 -82l16 -179q8 -89 -33 -133.5t-147 -41.5h-16v26q56 0 77.5 26.5t21.5 95.5l-1 188q0 62 27 86.5 t95 33.5z" glyph-name="braceright"/>
<glyph unicode="~" horiz-adv-x="504" d="M38 198l-22 10l7 19q22 61 54.5 90t68.5 28.5t79 -12.5l77 -24q70 -22 100 -13.5t61 59.5l22 -10l-7 -18q-33 -86 -82 -112.5t-124 -3.5l-62 19q-59 19 -86.5 22.5t-46 -8t-39.5 -46.5z" glyph-name="asciitilde"/>
<glyph unicode=" " horiz-adv-x="166" glyph-name="uni00A0"/>
<glyph unicode="¡" horiz-adv-x="283" d="M215 -118h-148l61 505h27zM142 596q30 0 52.5 -22.5t22.5 -52.5t-22.5 -52t-52.5 -22q-31 0 -53 22t-22 52t22 52.5t53 22.5z" glyph-name="exclamdown"/>
<glyph unicode="¢" horiz-adv-x="499" d="M216 -123l11 111q-84 12 -139 78.5t-55 167.5q0 112 73.5 185.5t169.5 78.5l11 109h34l-11 -110q64 -6 108.5 -38.5t44.5 -74.5q0 -25 -17.5 -40t-45.5 -15q-22 0 -29 5l-29 98q-17 17 -36 25l-36 -374q20 -8 50 -8q76 0 134 54l13 -17q-88 -127 -207 -127l-10 -108h-34z M151 282q0 -62 23 -110t63 -74l36 365q-53 -1 -87.5 -47.5t-34.5 -133.5z" glyph-name="cent"/>
<glyph unicode="£" horiz-adv-x="678" d="M134 262v41h127l18 72q31 128 119 203t161 75q43 0 75.5 -24.5t32.5 -56.5q0 -55 -86 -69q-21 110 -67 110q-50 0 -80 -124l-45 -186h181v-41h-192q-43 -149 -175 -230q51 -25 105 -61l40 -26q123 -80 144 -89q15 -6 29 -6q31 0 40.5 38.5t-5.5 105.5q92 7 92 -47 q0 -47 -62.5 -98.5t-138.5 -51.5q-58 0 -117.5 41t-138.5 118l-47 46q-50 -19 -83 -19q-30 0 -46 12.5t-16 31.5q0 21 20.5 35t49.5 14q36 0 98 -26q44 46 71 155l13 57h-117z" glyph-name="sterling"/>
<glyph unicode="¥" horiz-adv-x="603" d="M57 259v35h163l-168 298l-55 16v28h282v-28l-75 -20l136 -273h2l151 269l-92 24v28h205v-29l-60 -20l-172 -293h167v-35h-176v-76h177v-34h-177v-100l80 -20v-29h-289v29l79 19v101h-178v34h178v76h-178z" glyph-name="yen"/>
<glyph unicode="¦" horiz-adv-x="223" d="M131 313h-38v426h38v-426zM131 -205h-38v427h38v-427z" glyph-name="brokenbar"/>
<glyph unicode="§" horiz-adv-x="498" d="M276 -111q0 8 -1 15t-5.5 17.5t-8 18t-13 23.5t-17 28t-23.5 37.5t-28 45.5l-54 88q-76 124 -76 201q0 63 36.5 122t89.5 97t109 61t98 23q41 0 64 -18t23 -45q0 -21 -13.5 -37.5t-35.5 -20.5q-46 35 -104 54q-47 0 -88 -19q-3 -10 -3 -23q0 -5 1 -10.5t2 -10.5t4 -12 t5.5 -12.5t8 -15t9.5 -17t12.5 -21t14.5 -23.5t17.5 -28.5t20.5 -32.5l54 -88q76 -124 76 -201q0 -51 -24 -100t-62 -84.5t-82.5 -63t-87.5 -41.5t-76 -14q-41 0 -64 18t-23 46q0 20 13 36.5t35 20.5q47 -36 105 -54q47 0 87 20q4 12 4 20zM135 424q0 -77 66 -189l55 -93 q45 -76 58 -113.5t13 -70.5q0 -29 -12 -57h5q47 47 47 123q0 44 -16 86.5t-51 102.5l-54 93q-45 77 -58.5 114t-13.5 70q0 31 12 57h-4q-47 -47 -47 -123z" glyph-name="section"/>
<glyph unicode="¨" horiz-adv-x="400" d="M109 601q-28 0 -47.5 19t-19.5 47q0 27 19.5 47t47.5 20q27 0 47 -20t20 -47t-20 -46.5t-47 -19.5zM307 601q-28 0 -47.5 19t-19.5 47q0 27 19.5 47t47.5 20q27 0 47 -20t20 -47t-20 -46.5t-47 -19.5z" glyph-name="dieresis"/>
<glyph unicode="©" horiz-adv-x="792" d="M47 331q0 146 102 247t247 101t246.5 -101t101.5 -247t-102 -247t-247 -101t-246.5 101t-101.5 247zM77 331q0 -133 94 -227.5t225 -94.5t225 94.5t94 227.5q0 134 -93.5 228t-225.5 94t-225.5 -94t-93.5 -228zM407 133q-103 0 -155.5 56.5t-52.5 134.5q0 88 64.5 146 t160.5 58q52 0 118 -31l2 -108h-24l-36 85q-30 28 -69 28q-47 0 -77.5 -43.5t-30.5 -118.5q0 -84 33 -131t86 -47q35 0 62 24l42 88h25l-15 -107q-73 -34 -133 -34z" glyph-name="copyright"/>
<glyph unicode="ª" horiz-adv-x="439" d="M139 241q-41 0 -72 26t-31 71q0 46 32 70t102 41l83 19v69q-2 30 -20.5 51t-49.5 21q-20 0 -38 -9l-11 -90q-16 -9 -37 -9q-48 0 -48 41q0 35 55 69t122 34q69 0 99.5 -30.5t30.5 -95.5v-200q0 -16 6.5 -22t23.5 -6h33v-22q-54 -27 -96 -27q-64 0 -66 63h-5 q-20 -22 -32 -33t-34 -21t-47 -10zM193 304q36 0 60 27v111l-46 -14q-36 -11 -52.5 -26t-16.5 -39q0 -26 15.5 -42.5t39.5 -16.5z" glyph-name="ordfeminine"/>
<glyph unicode="«" horiz-adv-x="479" d="M219 393l18 -16l-108 -165l108 -168l-18 -15l-171 171v19zM393 393l18 -16l-108 -165l108 -168l-18 -15l-171 171v19z" glyph-name="guillemotleft"/>
<glyph unicode="¬" horiz-adv-x="580" d="M53 264h474v-200h-46v157h-428v43z" glyph-name="logicalnot"/>
<glyph unicode="®" horiz-adv-x="452" d="M17 551q0 86 62 145.5t149 59.5q86 0 146.5 -59.5t60.5 -145.5t-61.5 -145.5t-149.5 -59.5q-87 0 -147 59t-60 146zM48 551q0 -76 51.5 -127.5t125.5 -51.5q77 0 128.5 51.5t51.5 127.5q0 75 -52 126.5t-128 51.5q-75 0 -126 -51.5t-51 -126.5zM113 450v15l28 6v172 l-28 6v15h101q110 0 110 -58q0 -35 -53 -58v-2l54 -75l28 -6v-15h-81l-28 41l-30 44h-16v-64l24 -6v-15h-109zM198 648v-95h35q31 12 31 44q0 23 -17.5 37.5t-48.5 13.5z" glyph-name="registered"/>
<glyph unicode="¯" horiz-adv-x="400" d="M52 624v66h296v-66h-296z" glyph-name="macron"/>
<glyph unicode="°" horiz-adv-x="300" d="M18 603q0 55 39.5 93.5t95.5 38.5t93 -38.5t37 -93.5t-39.5 -94t-94.5 -39q-56 0 -93.5 38.5t-37.5 94.5zM57 603q0 -42 26.5 -71t67.5 -29q40 0 66.5 29t26.5 71t-26.5 71t-66.5 29q-41 0 -67.5 -29t-26.5 -71z" glyph-name="degree"/>
<glyph unicode="±" horiz-adv-x="580" d="M527 326h-214v-215h-46v215h-214v42h214v215h46v-215h214v-42zM53 0v43h474v-43h-474z" glyph-name="plusminus"/>
<glyph unicode="´" horiz-adv-x="307" d="M127 763h113v-8l-128 -192h-33z" glyph-name="acute"/>
<glyph unicode="¶" horiz-adv-x="548" d="M514 664v-29l-73 -20v-570q0 -131 -59.5 -191.5t-153.5 -60.5q-74 0 -122 45t-48 115q0 67 41 108t101 41q48 0 76.5 -27.5t28.5 -63.5q0 -42 -22.5 -65t-53.5 -23q-25 0 -42 18t-15 47q49 11 78 42v4q-14 35 -60 35q-35 0 -63 -29.5t-28 -80.5q0 -54 36.5 -92t98.5 -38 q65 0 104 44t39 139v615h-53v-394h-53q-89 0 -152.5 63t-63.5 152t63.5 152.5t152.5 63.5h243z" glyph-name="paragraph"/>
<glyph unicode="·" horiz-adv-x="314" d="M157 201q-30 0 -52.5 22t-22.5 52q0 31 22.5 53t52.5 22q31 0 53 -22t22 -53q0 -30 -22 -52t-53 -22z" glyph-name="periodcentered"/>
<glyph unicode="¸" horiz-adv-x="263" d="M57 -251l-6 21q94 33 94 82q0 40 -52 56l61 96h32l-33 -51q86 -15 86 -78q0 -49 -50.5 -80.5t-131.5 -45.5z" glyph-name="cedilla"/>
<glyph unicode="º" horiz-adv-x="468" d="M223 616q-39 0 -59.5 -42.5t-20.5 -104.5q0 -82 27.5 -142t75.5 -60q37 0 58.5 40.5t21.5 109.5q0 84 -29 141.5t-74 57.5zM234 236q-96 0 -149.5 57.5t-53.5 141.5q0 89 58.5 150t144.5 61q92 0 147.5 -54t55.5 -144q0 -91 -58.5 -151.5t-144.5 -60.5z" glyph-name="ordmasculine"/>
<glyph unicode="»" horiz-adv-x="479" d="M261 29l-19 17l108 165l-107 167l18 15l170 -171v-18zM87 29l-19 17l108 165l-107 167l18 15l170 -171v-18z" glyph-name="guillemotright"/>
<glyph unicode="¼" horiz-adv-x="723" d="M643 375v-226h67v-58h-67v-58l51 -11v-22h-192v22l53 10v59h-174v34l225 257zM189 671v-343l68 -12v-24h-239v24l73 12v276h-76v23l164 44h10zM116 -79l-28 20l539 780l28 -19zM435 149h120v137z" glyph-name="onequarter"/>
<glyph unicode="½" horiz-adv-x="765" d="M626 132l-77 -55h197v-77h-287v26l69 64q64 59 88.5 92t24.5 69q0 31 -20 50t-52 19q-26 0 -44.5 -13.5t-42.5 -43.5l-20 13q54 110 151 110q53 0 86.5 -28.5t33.5 -76.5q0 -46 -25.5 -77t-81.5 -72zM189 671v-343l68 -12v-24h-239v24l73 12v276h-76v23l164 44h10z M116 -79l-28 20l539 780l28 -19z" glyph-name="onehalf"/>
<glyph unicode="¾" horiz-adv-x="727" d="M647 375v-226h67v-58h-67v-58l51 -11v-22h-192v22l53 10v59h-174v34l225 257zM137 306q29 0 48.5 19t19.5 50q0 38 -34 63t-99 25v26q59 8 89.5 30t30.5 51q0 23 -15.5 38t-43.5 15q-51 0 -94 -57l-20 12q47 100 151 100q49 0 79 -23.5t30 -58.5q0 -62 -95 -94v-4 q54 -3 83.5 -27.5t29.5 -63.5q0 -55 -49 -89.5t-117 -34.5q-54 0 -88 20t-34 49q0 17 12.5 28t34.5 12l42 -75q13 -11 39 -11zM120 -79l-28 20l539 780l28 -19zM439 149h120v137z" glyph-name="threequarters"/>
<glyph unicode="¿" horiz-adv-x="394" d="M330 10v-133l-41 9q-97 21 -173.5 89.5t-76.5 158.5q0 56 28.5 91t92.5 54l89 27l-3 81h38l26 -175l-147 -40q-86 -24 -86 -63q0 -76 207 -95zM264 596q30 0 52.5 -22.5t22.5 -52.5t-22.5 -52t-52.5 -22q-31 0 -53 22t-22 52t22 52.5t53 22.5z" glyph-name="questiondown"/>
<glyph unicode="À" horiz-adv-x="684" d="M-6 0v29l70 18l237 622l36 8l44 9l241 -641l68 -16v-29h-299v29l79 17l-64 178h-229l-63 -173l114 -22v-29h-234zM292 543l-97 -268h193zM166 865h126l73 -143h-44l-155 132v11z" glyph-name="Agrave"/>
<glyph unicode="Á" horiz-adv-x="684" d="M-6 0v29l70 18l237 622l36 8l44 9l241 -641l68 -16v-29h-299v29l79 17l-64 178h-229l-63 -173l114 -22v-29h-234zM292 543l-97 -268h193zM389 865h126v-11l-155 -132h-45z" glyph-name="Aacute"/>
<glyph unicode="Â" horiz-adv-x="684" d="M-6 0v29l70 18l237 622l36 8l44 9l241 -641l68 -16v-29h-299v29l79 17l-64 178h-229l-63 -173l114 -22v-29h-234zM292 543l-97 -268h193zM230 722h-44l108 137h94l104 -137h-49l-105 72z" glyph-name="Acircumflex"/>
<glyph unicode="Ã" horiz-adv-x="684" d="M-6 0v29l70 18l237 622l36 8l44 9l241 -641l68 -16v-29h-299v29l79 17l-64 178h-229l-63 -173l114 -22v-29h-234zM359 751l-40 14q-59 21 -82 15.5t-42 -44.5l-21 10l5 14q26 72 64 93t98 -1l44 -15q47 -17 72 -9t46 48l22 -10l-6 -16q-30 -78 -65.5 -99.5t-94.5 0.5z M292 543l-97 -268h193z" glyph-name="Atilde"/>
<glyph unicode="Ä" horiz-adv-x="684" d="M-6 0v29l70 18l237 622l36 8l44 9l241 -641l68 -16v-29h-299v29l79 17l-64 178h-229l-63 -173l114 -22v-29h-234zM292 543l-97 -268h193zM228 737q-27 0 -46.5 19t-19.5 47q0 27 19.5 47t46.5 20q28 0 48 -20t20 -47q0 -28 -20 -47t-48 -19zM455 737q-27 0 -46.5 19 t-19.5 47q0 27 19.5 47t46.5 20t47.5 -20t20.5 -47t-20.5 -46.5t-47.5 -19.5z" glyph-name="Adieresis"/>
<glyph unicode="Å" horiz-adv-x="684" d="M-6 0v29l70 18l237 622l36 8l44 9l241 -641l68 -16v-29h-299v29l79 17l-64 178h-229l-63 -173l114 -22v-29h-234zM236 831q0 42 30 71.5t74 29.5q45 0 74.5 -29t29.5 -71q0 -43 -30 -72t-74 -29q-45 0 -74.5 28.5t-29.5 71.5zM292 543l-97 -268h193zM276 832 q0 -30 18.5 -49t45.5 -19t45.5 18.5t18.5 48.5q0 29 -18.5 48t-45.5 19t-45.5 -18.5t-18.5 -47.5z" glyph-name="Aring"/>
<glyph unicode="Æ" horiz-adv-x="949" d="M695 312h-117v-248q22 -25 60 -26h147l106 177h31l-46 -215h-506v29l73 19v265h-183l-141 -262l105 -22v-29h-225v29l63 18l323 563l-87 25v29h510l81 2v-189h-31l-60 150h-220v-276h117l32 103h29v-239h-31zM443 617h-13l-149 -266h162v266z" glyph-name="AE"/>
<glyph unicode="Ç" horiz-adv-x="720" d="M290 -251l-6 21q94 33 94 82q0 40 -52 56l46 74q-159 11 -244 108t-85 226q0 155 115.5 260.5t279.5 105.5q109 0 213 -52l3 -182h-29l-64 144q-66 54 -147 54q-92 0 -152 -80.5t-60 -209.5q0 -160 67.5 -249t169.5 -89q70 0 121 43l94 161h30l-34 -184 q-129 -58 -241 -58h-6l-17 -27q86 -15 86 -78q0 -49 -50.5 -80.5t-131.5 -45.5z" glyph-name="Ccedilla"/>
<glyph unicode="È" horiz-adv-x="619" d="M365 323h-120v-259q20 -24 60 -27h150l106 178h31l-46 -215h-516v29l77 19v566l-77 21v29h448l80 2v-189h-30l-60 151h-223v-265h120l32 102h29v-239h-31zM163 865h126l73 -143h-44l-155 132v11z" glyph-name="Egrave"/>
<glyph unicode="É" horiz-adv-x="619" d="M365 323h-120v-259q20 -24 60 -27h150l106 178h31l-46 -215h-516v29l77 19v566l-77 21v29h448l80 2v-189h-30l-60 151h-223v-265h120l32 102h29v-239h-31zM378 865h126v-11l-155 -132h-45z" glyph-name="Eacute"/>
<glyph unicode="Ê" horiz-adv-x="619" d="M365 323h-120v-259q20 -24 60 -27h150l106 178h31l-46 -215h-516v29l77 19v566l-77 21v29h448l80 2v-189h-30l-60 151h-223v-265h120l32 102h29v-239h-31zM216 722h-44l108 137h94l104 -137h-49l-105 72z" glyph-name="Ecircumflex"/>
<glyph unicode="Ë" horiz-adv-x="619" d="M365 323h-120v-259q20 -24 60 -27h150l106 178h31l-46 -215h-516v29l77 19v566l-77 21v29h448l80 2v-189h-30l-60 151h-223v-265h120l32 102h29v-239h-31zM209 737q-27 0 -46.5 19t-19.5 47q0 27 19.5 47t46.5 20q28 0 48 -20t20 -47q0 -28 -20 -47t-48 -19zM436 737 q-27 0 -46.5 19t-19.5 47q0 27 19.5 47t46.5 20t47.5 -20t20.5 -47t-20.5 -46.5t-47.5 -19.5z" glyph-name="Edieresis"/>
<glyph unicode="Ì" horiz-adv-x="353" d="M30 0v29l77 19v567l-77 20v29h292v-29l-77 -20v-567l77 -19v-29h-292zM3 865h126l73 -143h-44l-155 132v11z" glyph-name="Igrave"/>
<glyph unicode="Í" horiz-adv-x="353" d="M30 0v29l77 19v567l-77 20v29h292v-29l-77 -20v-567l77 -19v-29h-292zM219 865h126v-11l-155 -132h-45z" glyph-name="Iacute"/>
<glyph unicode="Î" horiz-adv-x="353" d="M30 0v29l77 19v567l-77 20v29h292v-29l-77 -20v-567l77 -19v-29h-292zM80 722h-45l98 137h89l94 -137h-48l-93 74z" glyph-name="Icircumflex"/>
<glyph unicode="Ï" horiz-adv-x="353" d="M82 735q-28 0 -47.5 19t-19.5 47q0 27 19.5 47t47.5 20q27 0 47 -20t20 -47t-20 -46.5t-47 -19.5zM270 735q-27 0 -46.5 19t-19.5 47q0 27 19.5 47t46.5 20q28 0 48 -20t20 -47q0 -28 -20 -47t-48 -19zM30 0v29l77 19v567l-77 20v29h292v-29l-77 -20v-567l77 -19v-29 h-292z" glyph-name="Idieresis"/>
<glyph unicode="Ð" horiz-adv-x="769" d="M30 0v30l77 18v266h-80v40h80v261l-77 20v29l315 2q172 -5 278 -90.5t106 -229.5q0 -156 -119.5 -252.5t-325.5 -95.5zM399 314h-155v-247q34 -34 111 -34q99 0 162.5 82t63.5 207q0 154 -96 237t-241 78v-283h155v-40z" glyph-name="Eth"/>
<glyph unicode="Ñ" horiz-adv-x="728" d="M634 -6l-48 -6l-431 541l3 -477l96 -22v-30h-219v30l74 19v533q-29 36 -71 48l-17 6v28h202l364 -459l-3 406l-95 24v29h217v-29l-74 -21v-516zM406 751l-40 14q-59 21 -82 15.5t-42 -44.5l-21 10l5 14q26 72 64 93t98 -1l44 -15q47 -17 72 -9t46 48l22 -10l-6 -16 q-30 -78 -65.5 -99.5t-94.5 0.5z" glyph-name="Ntilde"/>
<glyph unicode="Ò" d="M222 865h126l73 -143h-44l-155 132v11zM410 16q91 0 139.5 82.5t48.5 212.5q0 134 -62 234.5t-156 100.5q-91 0 -140 -80.5t-49 -211.5q0 -86 25.5 -162t76.5 -126t117 -50zM395 682q155 0 255 -98t100 -240q0 -83 -29.5 -152.5t-79.5 -115t-114 -71t-134 -25.5 q-146 0 -249.5 96.5t-103.5 252.5q0 102 50.5 184t131 125.5t173.5 43.5z" glyph-name="Ograve"/>
<glyph unicode="Ó" d="M437 865h126v-11l-155 -132h-45zM410 16q91 0 139.5 82.5t48.5 212.5q0 134 -62 234.5t-156 100.5q-91 0 -140 -80.5t-49 -211.5q0 -86 25.5 -162t76.5 -126t117 -50zM395 682q155 0 255 -98t100 -240q0 -83 -29.5 -152.5t-79.5 -115t-114 -71t-134 -25.5 q-146 0 -249.5 96.5t-103.5 252.5q0 102 50.5 184t131 125.5t173.5 43.5z" glyph-name="Oacute"/>
<glyph unicode="Ô" d="M395 682q155 0 255 -98t100 -240q0 -83 -29.5 -152.5t-79.5 -115t-114 -71t-134 -25.5q-146 0 -249.5 96.5t-103.5 252.5q0 102 50.5 184t131 125.5t173.5 43.5zM410 16q91 0 139.5 82.5t48.5 212.5q0 134 -62 234.5t-156 100.5q-91 0 -140 -80.5t-49 -211.5 q0 -86 25.5 -162t76.5 -126t117 -50zM286 722h-44l108 137h94l104 -137h-49l-105 72z" glyph-name="Ocircumflex"/>
<glyph unicode="Õ" d="M415 751l-40 14q-59 21 -82 15.5t-42 -44.5l-21 10l5 14q26 72 64 93t98 -1l44 -15q47 -17 72 -9t46 48l22 -10l-6 -16q-30 -78 -65.5 -99.5t-94.5 0.5zM410 16q91 0 139.5 82.5t48.5 212.5q0 134 -62 234.5t-156 100.5q-91 0 -140 -80.5t-49 -211.5q0 -86 25.5 -162 t76.5 -126t117 -50zM395 682q155 0 255 -98t100 -240q0 -83 -29.5 -152.5t-79.5 -115t-114 -71t-134 -25.5q-146 0 -249.5 96.5t-103.5 252.5q0 102 50.5 184t131 125.5t173.5 43.5z" glyph-name="Otilde"/>
<glyph unicode="Ö" d="M281 737q-27 0 -46.5 19t-19.5 47q0 27 19.5 47t46.5 20q28 0 48 -20t20 -47q0 -28 -20 -47t-48 -19zM508 737q-27 0 -46.5 19t-19.5 47q0 27 19.5 47t46.5 20t47.5 -20t20.5 -47t-20.5 -46.5t-47.5 -19.5zM410 16q91 0 139.5 82.5t48.5 212.5q0 134 -62 234.5 t-156 100.5q-91 0 -140 -80.5t-49 -211.5q0 -86 25.5 -162t76.5 -126t117 -50zM395 682q155 0 255 -98t100 -240q0 -83 -29.5 -152.5t-79.5 -115t-114 -71t-134 -25.5q-146 0 -249.5 96.5t-103.5 252.5q0 102 50.5 184t131 125.5t173.5 43.5z" glyph-name="Odieresis"/>
<glyph unicode="×" horiz-adv-x="580" d="M476 22l-188 189l-187 -190l-32 31l189 190l-186 188l33 32l186 -187l186 192l31 -32l-187 -190l189 -190z" glyph-name="multiply"/>
<glyph unicode="Ø" d="M57 -33l89 107q-106 99 -106 255q0 102 50.5 184t131 125.5t173.5 43.5q118 0 209 -62l63 76h47l-82 -98q56 -47 87 -113t31 -141q0 -83 -29.5 -152.5t-79.5 -115t-114 -71t-134 -25.5q-123 0 -218 70l-70 -83h-48zM410 16q90 0 138.5 82.5t48.5 212.5q0 106 -40 197 l-315 -377q62 -115 168 -115zM192 354q0 -104 33 -186l314 375q-63 103 -159 103q-91 0 -139.5 -80.5t-48.5 -211.5z" glyph-name="Oslash"/>
<glyph unicode="Ù" horiz-adv-x="737" d="M223 865h126l73 -143h-44l-155 132v11zM367 -21q-135 0 -203 70.5t-68 202.5v362l-77 21v29h308v-29l-90 -21v-348q0 -104 41.5 -163t126.5 -59q87 0 133.5 52t49.5 152l-1 360l-110 27v29h241v-29l-77 -23v-347q0 -137 -73.5 -211.5t-200.5 -74.5z" glyph-name="Ugrave"/>
<glyph unicode="Ú" horiz-adv-x="737" d="M435 865h126v-11l-155 -132h-45zM367 -21q-135 0 -203 70.5t-68 202.5v362l-77 21v29h308v-29l-90 -21v-348q0 -104 41.5 -163t126.5 -59q87 0 133.5 52t49.5 152l-1 360l-110 27v29h241v-29l-77 -23v-347q0 -137 -73.5 -211.5t-200.5 -74.5z" glyph-name="Uacute"/>
<glyph unicode="Û" horiz-adv-x="737" d="M367 -21q-135 0 -203 70.5t-68 202.5v362l-77 21v29h308v-29l-90 -21v-348q0 -104 41.5 -163t126.5 -59q87 0 133.5 52t49.5 152l-1 360l-110 27v29h241v-29l-77 -23v-347q0 -137 -73.5 -211.5t-200.5 -74.5zM292 722h-44l108 137h94l104 -137h-49l-105 72z" glyph-name="Ucircumflex"/>
<glyph unicode="Ü" horiz-adv-x="737" d="M367 -21q-135 0 -203 70.5t-68 202.5v362l-77 21v29h308v-29l-90 -21v-348q0 -104 41.5 -163t126.5 -59q87 0 133.5 52t49.5 152l-1 360l-110 27v29h241v-29l-77 -23v-347q0 -137 -73.5 -211.5t-200.5 -74.5zM285 737q-27 0 -46.5 19t-19.5 47q0 27 19.5 47t46.5 20 q28 0 48 -20t20 -47q0 -28 -20 -47t-48 -19zM512 737q-27 0 -46.5 19t-19.5 47q0 27 19.5 47t46.5 20t47.5 -20t20.5 -47t-20.5 -46.5t-47.5 -19.5z" glyph-name="Udieresis"/>
<glyph unicode="Ý" horiz-adv-x="638" d="M578 614l-188 -322v-244l79 -19v-29h-297v29l80 19v220l-196 351l-55 16v29h295v-29l-86 -19l153 -294l162 290l-98 23v29h210v-29zM402 865h126v-11l-155 -132h-45z" glyph-name="Yacute"/>
<glyph unicode="Þ" horiz-adv-x="614" d="M30 0v30l77 18v567l-77 20v29h292v-29l-77 -20v-100h51q141 0 216 -46.5t75 -119.5q0 -62 -48.5 -105.5t-115 -62t-138.5 -17.5v25q77 12 121 49.5t44 98.5q0 62 -51.5 103.5t-153.5 44.5v-437l77 -19v-29h-292z" glyph-name="Thorn"/>
<glyph unicode="ß" horiz-adv-x="641" d="M20 0v28l61 17v390h-66v28l67 23q8 110 84.5 186.5t194.5 76.5q88 0 139.5 -36t51.5 -97q0 -31 -16.5 -58.5t-32.5 -42t-49 -38.5q-55 -43 -65 -57q-9 -14 -9 -26q0 -17 11.5 -28t42.5 -28l77 -42q59 -32 82 -61t23 -75q0 -75 -62 -125.5t-149 -50.5q-74 0 -133 35v140 h20l48 -108q3 -4 10.5 -10t26 -13.5t39.5 -7.5q37 0 61 23.5t24 58.5q0 32 -20 55.5t-64 46.5l-54 29q-72 38 -72 99q0 15 4 28.5t14.5 27.5t18 23t23.5 26t23 24q65 70 65 144q0 46 -28 77.5t-76 31.5q-56 0 -92 -43.5t-36 -141.5v-529h-187z" glyph-name="germandbls"/>
<glyph unicode="à" horiz-adv-x="498" d="M158 -15q-53 0 -90 33t-37 89q0 58 40.5 91t128.5 55l97 24v67q-2 50 -24.5 80.5t-61.5 30.5q-30 0 -51 -15l-4 -110q-25 -9 -55 -9q-26 0 -41.5 13t-15.5 37q0 44 67.5 85t153.5 41q80 0 119 -36.5t39 -115.5v-266q0 -20 7 -26.5t27 -6.5h43v-20q-67 -38 -116 -38 q-79 0 -83 80h-5q-20 -26 -35 -41t-43 -28.5t-60 -13.5zM226 60q41 0 71 38v149l-66 -22q-77 -25 -77 -87q0 -34 19 -56t53 -22zM105 763h113l48 -200h-33l-128 192v8z" glyph-name="agrave"/>
<glyph unicode="á" horiz-adv-x="498" d="M158 -15q-53 0 -90 33t-37 89q0 58 40.5 91t128.5 55l97 24v67q-2 50 -24.5 80.5t-61.5 30.5q-30 0 -51 -15l-4 -110q-25 -9 -55 -9q-26 0 -41.5 13t-15.5 37q0 44 67.5 85t153.5 41q80 0 119 -36.5t39 -115.5v-266q0 -20 7 -26.5t27 -6.5h43v-20q-67 -38 -116 -38 q-79 0 -83 80h-5q-20 -26 -35 -41t-43 -28.5t-60 -13.5zM226 60q41 0 71 38v149l-66 -22q-77 -25 -77 -87q0 -34 19 -56t53 -22zM276 763h113v-8l-128 -192h-33z" glyph-name="aacute"/>
<glyph unicode="â" horiz-adv-x="498" d="M158 -15q-53 0 -90 33t-37 89q0 58 40.5 91t128.5 55l97 24v67q-2 50 -24.5 80.5t-61.5 30.5q-30 0 -51 -15l-4 -110q-25 -9 -55 -9q-26 0 -41.5 13t-15.5 37q0 44 67.5 85t153.5 41q80 0 119 -36.5t39 -115.5v-266q0 -20 7 -26.5t27 -6.5h43v-20q-67 -38 -116 -38 q-79 0 -83 80h-5q-20 -26 -35 -41t-43 -28.5t-60 -13.5zM157 563h-39l101 200h62l100 -200h-39l-95 113zM226 60q41 0 71 38v149l-66 -22q-77 -25 -77 -87q0 -34 19 -56t53 -22z" glyph-name="acircumflex"/>
<glyph unicode="ã" horiz-adv-x="498" d="M158 -15q-53 0 -90 33t-37 89q0 58 40.5 91t128.5 55l97 24v67q-2 50 -24.5 80.5t-61.5 30.5q-30 0 -51 -15l-4 -110q-25 -9 -55 -9q-26 0 -41.5 13t-15.5 37q0 44 67.5 85t153.5 41q80 0 119 -36.5t39 -115.5v-266q0 -20 7 -26.5t27 -6.5h43v-20q-67 -38 -116 -38 q-79 0 -83 80h-5q-20 -26 -35 -41t-43 -28.5t-60 -13.5zM263 601l-38 16q-59 23 -80.5 16.5t-41.5 -47.5l-22 10l6 15q28 72 66.5 93t97.5 -2l44 -17q46 -17 70 -8t46 49l22 -10l-6 -15q-32 -79 -68.5 -101.5t-95.5 1.5zM226 60q41 0 71 38v149l-66 -22q-77 -25 -77 -87 q0 -34 19 -56t53 -22z" glyph-name="atilde"/>
<glyph unicode="ä" horiz-adv-x="498" d="M158 -15q-53 0 -90 33t-37 89q0 58 40.5 91t128.5 55l97 24v67q-2 50 -24.5 80.5t-61.5 30.5q-30 0 -51 -15l-4 -110q-25 -9 -55 -9q-26 0 -41.5 13t-15.5 37q0 44 67.5 85t153.5 41q80 0 119 -36.5t39 -115.5v-266q0 -20 7 -26.5t27 -6.5h43v-20q-67 -38 -116 -38 q-79 0 -83 80h-5q-20 -26 -35 -41t-43 -28.5t-60 -13.5zM226 60q41 0 71 38v149l-66 -22q-77 -25 -77 -87q0 -34 19 -56t53 -22zM148 601q-28 0 -47.5 19t-19.5 47q0 27 19.5 47t47.5 20q27 0 47 -20t20 -47t-20 -46.5t-47 -19.5zM346 601q-28 0 -47.5 19t-19.5 47 q0 27 19.5 47t47.5 20q27 0 47 -20t20 -47t-20 -46.5t-47 -19.5z" glyph-name="adieresis"/>
<glyph unicode="å" horiz-adv-x="498" d="M158 -15q-53 0 -90 33t-37 89q0 58 40.5 91t128.5 55l97 24v67q-2 50 -24.5 80.5t-61.5 30.5q-30 0 -51 -15l-4 -110q-25 -9 -55 -9q-26 0 -41.5 13t-15.5 37q0 44 67.5 85t153.5 41q80 0 119 -36.5t39 -115.5v-266q0 -20 7 -26.5t27 -6.5h43v-20q-67 -38 -116 -38 q-79 0 -83 80h-5q-20 -26 -35 -41t-43 -28.5t-60 -13.5zM144 672q0 42 30 71.5t74 29.5q45 0 74 -28.5t29 -71.5q0 -42 -29.5 -71.5t-74.5 -29.5t-74 28.5t-29 71.5zM226 60q41 0 71 38v149l-66 -22q-77 -25 -77 -87q0 -34 19 -56t53 -22zM183 673q0 -29 19 -48.5t46 -19.5 t45.5 19t18.5 48t-19 48.5t-46 19.5t-45.5 -19t-18.5 -48z" glyph-name="aring"/>
<glyph unicode="æ" horiz-adv-x="756" d="M156 -16q-54 0 -89.5 33.5t-35.5 89.5q0 59 48.5 91t156.5 56l62 14v85q-5 46 -26.5 73.5t-59.5 27.5q-31 0 -52 -16v-105q-32 -12 -57 -12q-26 0 -41.5 14t-15.5 38q0 45 66.5 84.5t146.5 39.5q95 0 129 -67q52 67 140 67q83 0 130.5 -50t59.5 -139l-301 -52v-41 q8 -63 52 -99t109 -36t127 56l15 -14q-1 -2 -11 -16t-17.5 -23.5t-22 -25.5t-30 -27t-35.5 -22.5t-44.5 -17t-51.5 -5.5q-55 0 -102.5 26.5t-75.5 74.5q-3 -3 -16.5 -16t-17 -16.5t-15.5 -14t-16 -13.5t-15 -11.5t-17.5 -11t-17 -7.5t-18.5 -7t-19 -3.5t-22 -1.5zM417 327 v-38l166 33q-3 61 -26 98t-61 37q-37 0 -56.5 -30.5t-22.5 -99.5zM298 210v26l-40 -11q-57 -15 -79.5 -38.5t-22.5 -54.5q0 -34 19.5 -53t52.5 -19q62 0 78 86q-8 32 -8 64z" glyph-name="ae"/>
<glyph unicode="ç" horiz-adv-x="486" d="M146 -248l-6 21q94 33 94 82q0 40 -52 56l48 77q-89 9 -144.5 75.5t-55.5 173.5q0 114 77.5 188t178.5 74q70 0 121 -33.5t51 -80.5q0 -29 -20 -45t-52 -16q-24 0 -32 5l-29 109q-27 25 -63 25q-50 0 -82 -45t-32 -117q0 -101 50 -161t123 -60q43 0 79 18.5t54 38.5 l15 -15q-87 -134 -208 -136l-19 -30q86 -15 86 -78q0 -49 -50.5 -80.5t-131.5 -45.5z" glyph-name="ccedilla"/>
<glyph unicode="è" horiz-adv-x="500" d="M254 -14q-103 0 -163.5 72.5t-60.5 176.5q0 109 73.5 186.5t166.5 77.5q170 0 195 -205h-322v-9q0 -95 50 -150t126 -55q64 0 137 56l16 -15q-91 -135 -218 -135zM240 460q-38 0 -63 -34.5t-32 -98.5h186q-15 133 -91 133zM123 763h113l48 -200h-33l-128 192v8z" glyph-name="egrave"/>
<glyph unicode="é" horiz-adv-x="500" d="M254 -14q-103 0 -163.5 72.5t-60.5 176.5q0 109 73.5 186.5t166.5 77.5q170 0 195 -205h-322v-9q0 -95 50 -150t126 -55q64 0 137 56l16 -15q-91 -135 -218 -135zM240 460q-38 0 -63 -34.5t-32 -98.5h186q-15 133 -91 133zM289 763h113v-8l-128 -192h-33z" glyph-name="eacute"/>
<glyph unicode="ê" horiz-adv-x="500" d="M254 -14q-103 0 -163.5 72.5t-60.5 176.5q0 109 73.5 186.5t166.5 77.5q170 0 195 -205h-322v-9q0 -95 50 -150t126 -55q64 0 137 56l16 -15q-91 -135 -218 -135zM172 563h-39l101 200h62l100 -200h-39l-95 113zM240 460q-38 0 -63 -34.5t-32 -98.5h186q-15 133 -91 133z " glyph-name="ecircumflex"/>
<glyph unicode="ë" horiz-adv-x="500" d="M254 -14q-103 0 -163.5 72.5t-60.5 176.5q0 109 73.5 186.5t166.5 77.5q170 0 195 -205h-322v-9q0 -95 50 -150t126 -55q64 0 137 56l16 -15q-91 -135 -218 -135zM240 460q-38 0 -63 -34.5t-32 -98.5h186q-15 133 -91 133zM364 601q-28 0 -47.5 19t-19.5 47q0 27 19.5 47 t47.5 20q27 0 47 -20t20 -47t-20 -46.5t-47 -19.5zM166 601q-28 0 -47.5 19t-19.5 47q0 27 19.5 47t47.5 20q27 0 47 -20t20 -47t-20 -46.5t-47 -19.5z" glyph-name="edieresis"/>
<glyph unicode="ì" horiz-adv-x="288" d="M20 0v28l63 17v345l-61 40v16l188 51v-452l66 -17v-28h-256zM4 763h113l48 -200h-33l-128 192v8z" glyph-name="igrave"/>
<glyph unicode="í" horiz-adv-x="288" d="M175 763h113v-8l-128 -192h-33zM20 0v28l63 17v345l-61 40v16l188 51v-452l66 -17v-28h-256z" glyph-name="iacute"/>
<glyph unicode="î" horiz-adv-x="288" d="M20 0v28l63 17v345l-61 40v16l188 51v-452l66 -17v-28h-256zM58 563h-38l95 200h61l94 -200h-39l-88 109z" glyph-name="icircumflex"/>
<glyph unicode="ï" horiz-adv-x="288" d="M55 601q-28 0 -47.5 19t-19.5 47q0 27 19.5 47t47.5 20q27 0 47 -20t20 -47t-20 -46.5t-47 -19.5zM233 601q-27 0 -46.5 19t-19.5 47q0 27 19.5 47t46.5 20q28 0 48 -20t20 -47q0 -28 -20 -47t-48 -19zM20 0v28l63 17v345l-61 40v16l188 51v-452l66 -17v-28h-256z" glyph-name="idieresis"/>
<glyph unicode="ð" horiz-adv-x="578" d="M104 528l-18 28l132 78q-59 53 -134 99l13 24q100 -32 188 -84l124 74l17 -28l-110 -65q113 -77 169 -177t56 -205q0 -131 -72.5 -210t-183.5 -79q-117 0 -185 72.5t-68 176.5q0 107 75.5 182.5t169.5 75.5q34 0 64 -11q-37 70 -98 131zM405 208q0 82 -19 158 q-53 89 -110 89q-51 0 -79.5 -47.5t-28.5 -124.5q0 -66 15 -125t47 -99t74 -40q48 0 74.5 50t26.5 139z" glyph-name="eth"/>
<glyph unicode="ñ" horiz-adv-x="589" d="M20 0v28l61 17v345l-61 38v15l169 55h5l7 -93h2q89 92 176 92q68 0 102.5 -38t34.5 -123v-291l62 -18v-27h-246v28l57 17v274q-2 46 -23.5 72.5t-64.5 25.5q-45 0 -93 -38v-334l58 -17v-28h-246zM308 601l-38 16q-59 23 -80.5 16.5t-41.5 -47.5l-22 10l6 15 q28 72 66.5 93t97.5 -2l44 -17q46 -17 70 -8t46 49l22 -10l-6 -15q-32 -79 -68.5 -101.5t-95.5 1.5z" glyph-name="ntilde"/>
<glyph unicode="ò" horiz-adv-x="575" d="M271 464q-54 0 -79 -52.5t-25 -127.5q0 -106 36.5 -185t100.5 -79q48 0 76 50t28 133q0 114 -39 187.5t-98 73.5zM288 -16q-118 0 -187.5 73t-69.5 175q0 112 74.5 189t182.5 77q114 0 185 -68t71 -177q0 -114 -74 -191.5t-182 -77.5zM145 763h113l48 -200h-33l-128 192 v8z" glyph-name="ograve"/>
<glyph unicode="ó" horiz-adv-x="575" d="M316 763h113v-8l-128 -192h-33zM271 464q-54 0 -79 -52.5t-25 -127.5q0 -106 36.5 -185t100.5 -79q48 0 76 50t28 133q0 114 -39 187.5t-98 73.5zM288 -16q-118 0 -187.5 73t-69.5 175q0 112 74.5 189t182.5 77q114 0 185 -68t71 -177q0 -114 -74 -191.5t-182 -77.5z" glyph-name="oacute"/>
<glyph unicode="ô" horiz-adv-x="575" d="M288 -16q-118 0 -187.5 73t-69.5 175q0 112 74.5 189t182.5 77q114 0 185 -68t71 -177q0 -114 -74 -191.5t-182 -77.5zM271 464q-54 0 -79 -52.5t-25 -127.5q0 -106 36.5 -185t100.5 -79q48 0 76 50t28 133q0 114 -39 187.5t-98 73.5zM198 563h-39l101 200h62l100 -200 h-39l-95 113z" glyph-name="ocircumflex"/>
<glyph unicode="õ" horiz-adv-x="575" d="M271 464q-54 0 -79 -52.5t-25 -127.5q0 -106 36.5 -185t100.5 -79q48 0 76 50t28 133q0 114 -39 187.5t-98 73.5zM288 -16q-118 0 -187.5 73t-69.5 175q0 112 74.5 189t182.5 77q114 0 185 -68t71 -177q0 -114 -74 -191.5t-182 -77.5zM303 601l-38 16q-59 23 -80.5 16.5 t-41.5 -47.5l-22 10l6 15q28 72 66.5 93t97.5 -2l44 -17q46 -17 70 -8t46 49l22 -10l-6 -15q-32 -79 -68.5 -101.5t-95.5 1.5z" glyph-name="otilde"/>
<glyph unicode="ö" horiz-adv-x="575" d="M189 601q-28 0 -47.5 19t-19.5 47q0 27 19.5 47t47.5 20q27 0 47 -20t20 -47t-20 -46.5t-47 -19.5zM387 601q-28 0 -47.5 19t-19.5 47q0 27 19.5 47t47.5 20q27 0 47 -20t20 -47t-20 -46.5t-47 -19.5zM271 464q-54 0 -79 -52.5t-25 -127.5q0 -106 36.5 -185t100.5 -79 q48 0 76 50t28 133q0 114 -39 187.5t-98 73.5zM288 -16q-118 0 -187.5 73t-69.5 175q0 112 74.5 189t182.5 77q114 0 185 -68t71 -177q0 -114 -74 -191.5t-182 -77.5z" glyph-name="odieresis"/>
<glyph unicode="÷" horiz-adv-x="580" d="M527 221h-474v43h474v-43zM290 334q-26 0 -45 19.5t-19 46.5q0 25 19.5 44.5t44.5 19.5q26 0 46 -19.5t20 -44.5q0 -27 -20 -46.5t-46 -19.5zM290 21q-26 0 -45.5 19.5t-19.5 45.5t19.5 45.5t45.5 19.5t45.5 -19.5t19.5 -45.5t-19.5 -45.5t-45.5 -19.5z" glyph-name="divide"/>
<glyph unicode="ø" horiz-adv-x="575" d="M76 -49h-41l76 95q-80 72 -80 186q0 112 74.5 189t182.5 77q88 0 152 -42l61 76h41l-77 -95q79 -68 79 -184q0 -114 -74 -191.5t-182 -77.5q-87 0 -152 42zM271 464q-54 0 -80 -53.5t-25 -127.5q0 -77 19 -144l192 238q-39 87 -106 87zM408 204q-2 81 -18 138l-192 -238 q37 -84 106 -84q49 0 77 51t27 133z" glyph-name="oslash"/>
<glyph unicode="ù" horiz-adv-x="587" d="M391 -13l-11 82q-78 -85 -164 -85q-65 0 -103.5 39.5t-38.5 116.5v273l-62 27v19l188 32v-325q0 -102 89 -102q47 0 89 33v318l-68 25v20l195 33v-434l67 -21v-23zM149 763h113l48 -200h-33l-128 192v8z" glyph-name="ugrave"/>
<glyph unicode="ú" horiz-adv-x="587" d="M391 -13l-11 82q-78 -85 -164 -85q-65 0 -103.5 39.5t-38.5 116.5v273l-62 27v19l188 32v-325q0 -102 89 -102q47 0 89 33v318l-68 25v20l195 33v-434l67 -21v-23zM320 763h113v-8l-128 -192h-33z" glyph-name="uacute"/>
<glyph unicode="û" horiz-adv-x="587" d="M391 -13l-11 82q-78 -85 -164 -85q-65 0 -103.5 39.5t-38.5 116.5v273l-62 27v19l188 32v-325q0 -102 89 -102q47 0 89 33v318l-68 25v20l195 33v-434l67 -21v-23zM202 563h-39l101 200h62l100 -200h-39l-95 113z" glyph-name="ucircumflex"/>
<glyph unicode="ü" horiz-adv-x="587" d="M391 -13l-11 82q-78 -85 -164 -85q-65 0 -103.5 39.5t-38.5 116.5v273l-62 27v19l188 32v-325q0 -102 89 -102q47 0 89 33v318l-68 25v20l195 33v-434l67 -21v-23zM391 601q-28 0 -47.5 19t-19.5 47q0 27 19.5 47t47.5 20q27 0 47 -20t20 -47t-20 -46.5t-47 -19.5z M193 601q-28 0 -47.5 19t-19.5 47q0 27 19.5 47t47.5 20q27 0 47 -20t20 -47t-20 -46.5t-47 -19.5z" glyph-name="udieresis"/>
<glyph unicode="ý" horiz-adv-x="492" d="M403 436l-64 20v27h156v-28l-46 -16l-227 -591q-36 -92 -108 -92q-29 0 -49.5 20t-20.5 50q0 29 20.5 49t48.5 20q41 0 68 -46l3 -2l44 113l-189 482l-42 13v28h234v-28l-53 -15l113 -316zM310 763h113v-8l-128 -192h-33z" glyph-name="yacute"/>
<glyph unicode="þ" horiz-adv-x="570" d="M249 -11q-27 0 -58 9v-179l105 -20v-28h-297v28l65 18v826l-61 32v15l188 56v-335q67 84 153 84q78 0 134.5 -57t56.5 -167q0 -119 -88 -200.5t-198 -81.5zM268 423q-44 0 -77 -33v-326q35 -37 87 -37q57 0 93 51t36 143q0 91 -41.5 146.5t-97.5 55.5z" glyph-name="thorn"/>
</font>
</defs>
</svg>
