<?xml version="1.0" encoding="UTF-8" standalone="no"?>
<!DOCTYPE svg  PUBLIC '-//W3C//DTD SVG 1.1//EN'  'http://www.w3.org/Graphics/SVG/1.1/DTD/svg11.dtd'>
<svg version="1.1" xmlns="http://www.w3.org/2000/svg">
<defs>
<font id="Vaud-Medium" horiz-adv-x="581">
<font-face unicode-range="U+0020-00FE" ascent="800" underline-position="-150" bbox="-109 -235 1293 948" descent="-200" font-weight="500" units-per-em="1000" underline-thickness="50" x-height="514" font-family="Vaud" panose-1="2 0 6 3 5 0 0 2 0 4" cap-height="712"/>
<missing-glyph/>
<glyph horiz-adv-x="266" unicode=" " glyph-name="space"/>
<glyph horiz-adv-x="280" d="M110 214q-2 66 -7 270.5t-6 226.5h101q-1 -33 -7.5 -233t-9.5 -264h-71zM95 0v115h105v-115h-105z" unicode="!" glyph-name="exclam"/>
<glyph horiz-adv-x="411" d="M256 433q-3 53 -11 146q-2 88 -2 130h95q0 -42 -2 -130q-3 -48 -11 -146h-69zM76 433q-2 25 -5.5 74t-4.5 72q0 22 -1 65t-2 65h96q0 -42 -2 -130q-3 -48 -11 -146h-70z" unicode='&quot;' glyph-name="quotedbl"/>
<glyph horiz-adv-x="677" d="M126 0l27 181h-107v73h119l27 179h-113v73h125l27 180h81l-28 -180h162l27 180h82l-27 -180h105v-73h-117l-27 -179h110v-73h-122l-27 -181h-82l28 181h-161l-28 -181h-81zM246 254h161l28 179h-162z" unicode="#" glyph-name="numbersign"/>
<glyph d="M539 197q0 -87 -60.5 -141.5t-158.5 -61.5v-95h-57v95q-102 7 -165.5 64.5t-67.5 154.5h93q4 -62 41 -98t99 -42v244q-105 14 -160 59.5t-55 137.5q0 79 60.5 132t154.5 61v90h57v-91q96 -8 151 -67t62 -137h-92q-7 53 -37.5 86t-83.5 40v-229q109 -16 164 -62t55 -140z M263 408v221q-56 -4 -89.5 -35t-33.5 -77q0 -50 31 -74.5t92 -34.5zM446 195q0 94 -126 112v-235q58 7 92 39t34 84z" unicode="$" glyph-name="dollar"/>
<glyph horiz-adv-x="923" d="M214 309q-80 0 -124.5 54t-44.5 148q0 93 45 147.5t124 54.5q80 0 124.5 -54t44.5 -148t-44.5 -148t-124.5 -54zM214 378q90 0 90 133t-90 133t-90 -133t90 -133zM704 -15q-80 0 -124.5 53.5t-44.5 147.5t45 148.5t124 54.5q80 0 125 -54.5t45 -148.5q0 -93 -44.5 -147 t-125.5 -54zM704 54q90 0 90 132q0 133 -90 133t-90 -133q0 -132 90 -132zM720 699q-5 -9 -16.5 -28t-17.5 -29q-302 -486 -404 -650q-14 2 -41 4t-41 4q97 156 436 706q14 -1 42 -3.5t42 -3.5z" unicode="%" glyph-name="percent"/>
<glyph horiz-adv-x="688" d="M661 0h-113q-10 10 -28.5 31t-27.5 32q-79 -79 -199 -79q-113 0 -175 57.5t-62 148.5q0 69 38.5 116.5t108.5 86.5q-40 46 -60.5 82.5t-20.5 81.5q0 71 50 117.5t126 46.5q79 0 128 -44.5t49 -114.5q0 -65 -36 -105t-108 -82q82 -92 158 -182q35 70 32 177h79 q-1 -157 -54 -241q76 -86 115 -129zM389 558q0 42 -24.5 65.5t-65.5 23.5q-40 0 -64.5 -23.5t-24.5 -66.5q0 -51 72 -127q24 15 32.5 20t27 19.5t26 25t14.5 27.5t7 36zM439 123q-29 33 -186 212q-51 -30 -78 -60.5t-27 -77.5q0 -61 39 -97t112 -36q87 0 140 59z" unicode="&amp;" glyph-name="ampersand"/>
<glyph horiz-adv-x="218" d="M75 433q-8 106 -12 160q0 19 -0.5 58t-0.5 58h96q-1 -39 -1 -116q-2 -28 -6.5 -81.5t-6.5 -78.5h-69z" unicode="&apos;" glyph-name="quotesingle"/>
<glyph horiz-adv-x="291" d="M272 -136h-77q-145 188 -145 448q0 126 37 242t108 207h77q-132 -201 -132 -449q0 -246 132 -448z" unicode="(" glyph-name="parenleft"/>
<glyph horiz-adv-x="291" d="M100 -136h-78q133 203 133 448q0 248 -132 449h77q71 -91 108 -207t37 -242q0 -260 -145 -448z" unicode=")" glyph-name="parenright"/>
<glyph horiz-adv-x="463" d="M85 376l100 121l-148 41l27 75l139 -58l-10 153h81l-11 -153l139 58l27 -75l-147 -41l99 -121l-64 -47l-84 131l-84 -131z" unicode="*" glyph-name="asterisk"/>
<glyph horiz-adv-x="636" d="M276 50v232h-212v82h212v224h85v-224h212v-82h-212v-232h-85z" unicode="+" glyph-name="plus"/>
<glyph horiz-adv-x="252" d="M177 6q-2 -55 -21 -92.5t-62 -64.5q-2 1 -17 18t-17 18q29 22 40.5 48.5t13.5 66.5h-50v131h113v-125z" unicode="," glyph-name="comma"/>
<glyph horiz-adv-x="419" d="M57 255v89h305v-89h-305z" unicode="-" glyph-name="hyphen"/>
<glyph horiz-adv-x="251" d="M68 0v125h115v-125h-115z" unicode="." glyph-name="period"/>
<glyph horiz-adv-x="359" d="M401 717l-355 -723h-87l357 723h85z" unicode="/" glyph-name="slash"/>
<glyph d="M535 347q0 -362 -246 -362q-244 0 -244 362t246 362q244 0 244 -362zM438 347q0 59 -5.5 103.5t-20 86.5t-45.5 64.5t-77 22.5q-47 0 -78 -23t-45.5 -65.5t-19.5 -86t-5 -102.5q0 -47 2.5 -82.5t12 -74.5t25 -63.5t43 -41t65.5 -16.5t65.5 16t43 41t24.5 63.5t12 74.5 t3 83z" unicode="0" glyph-name="zero"/>
<glyph d="M380 0h-94v585q-27 -18 -82 -54.5t-83 -54.5v96q30 20 89 60.5t88 60.5h82v-693z" unicode="1" glyph-name="one"/>
<glyph d="M71 0v79q13 11 111 117.5t113 119.5q115 106 115 195q0 53 -31.5 84t-85.5 31q-115 0 -134 -122h-92q10 90 66.5 148t160.5 58q97 0 154.5 -53t57.5 -142q0 -124 -135 -247q-9 -8 -86 -91t-87 -92h316v-85h-443z" unicode="2" glyph-name="two"/>
<glyph d="M49 200h94q11 -132 142 -132q63 0 99.5 32.5t36.5 93.5q0 63 -36.5 93.5t-101.5 30.5h-60v84h62q58 0 90 29.5t32 85.5q0 49 -33 79t-89 30q-123 0 -139 -116h-92q1 85 64.5 142.5t167.5 57.5q99 0 157.5 -52.5t58.5 -134.5q0 -54 -26 -95.5t-76 -62.5q57 -20 87 -65 t30 -105q0 -96 -62 -153.5t-169 -57.5q-114 0 -174 62t-63 154z" unicode="3" glyph-name="three"/>
<glyph d="M40 171v69l322 451h95v-442h88v-78h-88v-171h-96v171h-321zM139 249h222v311z" unicode="4" glyph-name="four"/>
<glyph d="M63 192h93q12 -125 140 -125q66 0 100.5 41t34.5 116q0 68 -33 108t-100 40q-85 0 -131 -61h-89l23 382h391v-84h-310l-15 -209q53 53 147 53q104 0 158 -63.5t54 -164.5q0 -112 -60.5 -176.5t-168.5 -64.5q-105 0 -166.5 55t-67.5 153z" unicode="5" glyph-name="five"/>
<glyph d="M532 221q0 -104 -62.5 -170t-171.5 -66q-68 0 -117 29t-74.5 79.5t-36.5 106t-11 121.5q0 388 249 388q94 0 147.5 -49.5t63.5 -129.5h-92q-21 98 -121 98q-148 0 -154 -258q55 82 164 82q106 0 161 -62.5t55 -168.5zM439 221q0 68 -33.5 110.5t-103.5 42.5 q-60 0 -99 -40t-39 -108t34.5 -114.5t99.5 -46.5q67 0 104 42.5t37 113.5z" unicode="6" glyph-name="six"/>
<glyph d="M249 0h-103q41 116 123.5 304.5t141.5 303.5h-364v85h466v-79q-62 -121 -143.5 -309.5t-120.5 -304.5z" unicode="7" glyph-name="seven"/>
<glyph d="M164 358q-45 20 -72.5 62.5t-27.5 96.5q0 88 61 140.5t165 52.5q105 0 165 -52t60 -141q0 -54 -27 -96t-72 -62q51 -21 84 -65.5t33 -103.5q0 -96 -66 -151t-177 -55t-177 55t-66 151q0 58 33.5 103t83.5 65zM157 514q0 -56 34.5 -86.5t98.5 -30.5q65 0 99 30.5t34 87.5 q0 52 -34.5 84t-98.5 32t-98.5 -32.5t-34.5 -84.5zM142 192q0 -60 39 -94t110 -34q70 0 109 34.5t39 93.5q0 58 -38 91.5t-110 33.5q-73 0 -111 -33.5t-38 -91.5z" unicode="8" glyph-name="eight"/>
<glyph d="M64 163h92q13 -99 123 -99q38 0 65 15.5t42.5 38t24.5 59.5t11.5 69.5t3.5 77.5q-56 -83 -163 -83q-105 0 -161 63t-56 168q0 104 63 170.5t171 66.5q119 0 180 -92q59 -85 59 -250q0 -65 -5 -116.5t-21 -103t-41.5 -85.5t-69.5 -55.5t-104 -21.5q-97 0 -152.5 48 t-61.5 130zM277 319q53 0 90 31q48 43 48 121q-1 66 -35.5 111.5t-99.5 45.5q-66 0 -103 -42.5t-37 -113.5q0 -67 34 -110t103 -43z" unicode="9" glyph-name="nine"/>
<glyph horiz-adv-x="264" d="M70 1v132h128v-132h-128zM70 390v132h128v-132h-128z" unicode=":" glyph-name="colon"/>
<glyph horiz-adv-x="264" d="M198 390h-128v132h128v-132zM195 6q-3 -109 -83 -157q-2 1 -16.5 18t-17.5 18q53 40 54 115h-60v131h123v-125z" unicode=";" glyph-name="semicolon"/>
<glyph horiz-adv-x="534" d="M70 365l395 264v-92l-322 -206l324 -217l-1 -89l-396 265v75z" unicode="&lt;" glyph-name="less"/>
<glyph horiz-adv-x="642" d="M90 159v81h462v-81h-462zM90 379v80h462v-80h-462z" unicode="=" glyph-name="equal"/>
<glyph horiz-adv-x="534" d="M72 629l395 -272v-75l-396 -257v90l323 208l-322 216v90z" unicode="&gt;" glyph-name="greater"/>
<glyph horiz-adv-x="504" d="M199 207q0 53 14.5 92t33 59t56.5 53q69 59 69 121q0 50 -31 80t-85 30q-62 0 -95.5 -29.5t-40.5 -91.5h-94q8 91 68.5 147.5t163.5 56.5q96 0 154 -52.5t58 -134.5q0 -95 -86 -168q-4 -4 -21.5 -20t-21 -19.5t-15 -16.5t-15 -20t-8 -18.5t-6.5 -23.5q-5 -20 -5 -45h-93z M192 0v117h107v-117h-107z" unicode="?" glyph-name="question"/>
<glyph horiz-adv-x="949" d="M896 345q0 -126 -59.5 -208.5t-156.5 -82.5q-89 0 -107 75q-48 -77 -138 -77q-78 0 -121 53.5t-43 133.5q0 106 56.5 177t149.5 71q82 0 115 -69l31 58h59q-3 -24 -19 -145.5t-19 -145.5q-1 -3 -1 -11q0 -52 43 -52q58 0 94 62.5t36 157.5q0 136 -86 210.5t-230 74.5 q-158 0 -256.5 -103t-98.5 -269q0 -146 88.5 -238.5t236.5 -92.5q149 0 239 69q2 -1 23 -22t24 -23q-55 -51 -123 -74t-167 -23q-182 0 -293.5 112t-111.5 291q0 106 37 193t99.5 141t140 83t162.5 29q173 0 284.5 -94.5t111.5 -260.5zM566 250q8 32 8 68q-2 43 -24 70.5 t-67 27.5q-56 0 -90 -49t-34 -124q0 -56 24 -87t65 -31q98 0 118 125z" unicode="@" glyph-name="at"/>
<glyph horiz-adv-x="652" d="M7 0l268 712h101l268 -712h-104l-65 176h-302l-65 -176h-101zM203 263h242l-122 331z" unicode="A" glyph-name="A"/>
<glyph horiz-adv-x="649" d="M605 205q0 -97 -66.5 -151t-188.5 -54h-264v711h254q121 0 184 -49.5t63 -134.5q0 -114 -99 -155q117 -45 117 -167zM489 522q0 106 -149 106h-157v-216h166q140 0 140 110zM507 206q0 122 -153 122h-171v-244h166q158 0 158 122z" unicode="B" glyph-name="B"/>
<glyph horiz-adv-x="669" d="M629 230q-11 -109 -85 -177t-192 -68q-151 0 -226 103t-75 267q0 162 76.5 267t224.5 105q115 0 186 -67.5t87 -175.5h-100q-11 73 -54.5 114t-118.5 41q-55 0 -95 -23.5t-62.5 -64.5t-32.5 -89.5t-10 -106.5q0 -78 17.5 -138.5t64 -102.5t118.5 -42q79 0 122.5 42 t52.5 116h102z" unicode="C" glyph-name="C"/>
<glyph horiz-adv-x="698" d="M646 358q0 -77 -17.5 -140t-54.5 -113t-99 -77.5t-145 -27.5h-244v711h255q82 0 142 -27t95 -76.5t51.5 -111.5t16.5 -138zM544 357q0 46 -5 83t-19.5 72.5t-38 59t-62 38t-90.5 14.5h-145v-537h135q66 0 112 21t70 60.5t33.5 84.5t9.5 104z" unicode="D" glyph-name="D"/>
<glyph horiz-adv-x="609" d="M86 0v712h475v-88h-376v-210h342v-88h-342v-238h381v-88h-480z" unicode="E" glyph-name="E"/>
<glyph horiz-adv-x="577" d="M86 0v712h459v-88h-360v-226h330v-88h-330v-310h-99z" unicode="F" glyph-name="F"/>
<glyph horiz-adv-x="700" d="M364 71q93 0 138.5 65t38.5 159h-181v83h273v-378h-53q-3 19 -10 56.5t-11 56.5q-17 -56 -71.5 -91.5t-124.5 -36.5q-80 0 -141 28.5t-97.5 79.5t-54.5 116.5t-18 144.5q0 163 79 268t227 105q115 0 188.5 -63t81.5 -159q-16 0 -48.5 0.5t-49.5 0.5q-10 64 -54 99 t-118 35q-56 0 -97 -23.5t-64 -64.5t-33.5 -90t-10.5 -107t10.5 -106.5t34 -90t66 -64.5t100.5 -23z" unicode="G" glyph-name="G"/>
<glyph horiz-adv-x="712" d="M86 0v712h99v-295h342v295h99v-712h-99v324h-342v-324h-99z" unicode="H" glyph-name="H"/>
<glyph horiz-adv-x="272" d="M86 0v712h99v-712h-99z" unicode="I" glyph-name="I"/>
<glyph horiz-adv-x="553" d="M17 220h97q11 -149 135 -149q72 0 101 42.5t29 125.5v472h98v-491q0 -112 -60 -173.5t-167 -61.5q-109 0 -168.5 61t-64.5 174z" unicode="J" glyph-name="J"/>
<glyph horiz-adv-x="661" d="M86 0v712h99v-356l327 356h115l-241 -268l267 -444h-114l-222 374l-132 -144v-230h-99z" unicode="K" glyph-name="K"/>
<glyph horiz-adv-x="558" d="M86 0v712h99v-623h355v-89h-454z" unicode="L" glyph-name="L"/>
<glyph horiz-adv-x="865" d="M86 0v712h127q15 -38 105.5 -278t115.5 -300q22 55 111.5 291.5t109.5 286.5h123v-712h-93v557q-3 -7 -102 -265t-112 -290h-80q-17 43 -103.5 270.5t-109.5 282.5v-555h-92z" unicode="M" glyph-name="M"/>
<glyph horiz-adv-x="720" d="M86 0v712h100l352 -548v548h96v-712h-98l-353 549v-549h-97z" unicode="N" glyph-name="N"/>
<glyph horiz-adv-x="717" d="M665 356q0 -78 -17.5 -143.5t-53.5 -117.5t-96 -81t-139 -29q-153 0 -230.5 103.5t-77.5 266.5q0 78 18.5 144.5t55.5 118t97 80.5t137 29q152 0 229 -103.5t77 -267.5zM564 355q0 57 -10 105t-32.5 90t-64 65.5t-98.5 23.5q-58 0 -100 -23.5t-64.5 -65.5t-32.5 -90 t-10 -105t10 -105t32.5 -89.5t64.5 -65t100 -23.5q57 0 98.5 23.5t64 64.5t32.5 89t10 106z" unicode="O" glyph-name="O"/>
<glyph horiz-adv-x="625" d="M86 0v712h253q131 0 193 -58t62 -159q0 -103 -62.5 -163t-192.5 -60h-155v-272h-98zM184 357h153q158 0 158 136q0 67 -38 100t-120 33h-153v-269z" unicode="P" glyph-name="P"/>
<glyph horiz-adv-x="717" d="M588 -73q-21 26 -79 95q-66 -37 -151 -37q-103 0 -174 51t-102 132.5t-31 186.5q0 192 96 289q81 83 211 83q151 0 229 -103.5t78 -267.5q0 -193 -92 -286q15 -18 44 -54.5t44 -54.5q-14 -6 -39.5 -18t-33.5 -16zM452 94q-16 21 -50 62t-50 61q12 6 36.5 17.5t37.5 17.5 q15 -18 43 -53.5t43 -53.5q52 67 52 210q0 58 -10.5 106t-33 89.5t-64 65t-98.5 23.5q-58 0 -99.5 -23.5t-64 -65t-32.5 -89.5t-10 -106q0 -57 10 -105t32.5 -90t64 -65.5t99.5 -23.5q55 0 94 23z" unicode="Q" glyph-name="Q"/>
<glyph horiz-adv-x="648" d="M614 0h-108q-40 90 -130 288h-192v-288h-98v711h259q132 0 193.5 -59t61.5 -150q0 -69 -33 -119t-96 -74q23 -51 71.5 -154t71.5 -155zM500 502q0 124 -156 124h-160v-253h166q150 0 150 129z" unicode="R" glyph-name="R"/>
<glyph horiz-adv-x="636" d="M38 212h99q8 -72 57 -107.5t129 -35.5t121 35.5t41 95.5q0 27 -10 46.5t-24.5 31.5t-45 20.5t-55 13t-71.5 10.5q-10 1 -15 2q-209 29 -209 200q0 21 7 36q12 78 83 122.5t170 44.5q119 0 189 -61t76 -149h-97q-9 59 -51.5 92t-115.5 33t-117.5 -29.5t-44.5 -85.5 q0 -17 3 -30.5t10.5 -24t14.5 -18t22 -14t26 -10t32.5 -8t36 -7t42.5 -6.5t46 -7q204 -35 204 -206q0 -99 -74 -155t-194 -56q-122 0 -200 57.5t-85 169.5z" unicode="S" glyph-name="S"/>
<glyph horiz-adv-x="576" d="M239 0v623h-225v89h548v-89h-225v-623h-98z" unicode="T" glyph-name="T"/>
<glyph horiz-adv-x="687" d="M73 277v435h99v-436q0 -204 172 -204q170 0 170 204v436h99v-436q0 -141 -69.5 -216.5t-199.5 -75.5q-132 0 -201.5 75.5t-69.5 217.5z" unicode="U" glyph-name="U"/>
<glyph horiz-adv-x="633" d="M267 0l-259 712h107l203 -581l204 581h103l-259 -712h-99z" unicode="V" glyph-name="V"/>
<glyph horiz-adv-x="903" d="M194 0l-175 712h103l129 -566l157 562h95l155 -561l128 565h98l-172 -712h-101l-159 568l-159 -568h-99z" unicode="W" glyph-name="W"/>
<glyph horiz-adv-x="618" d="M11 0l240 369l-230 343h111l177 -270l178 270h105l-228 -346l243 -366h-111l-190 291l-189 -291h-106z" unicode="X" glyph-name="X"/>
<glyph horiz-adv-x="604" d="M254 0v288l-248 424h109l189 -332l190 332h103l-245 -424v-288h-98z" unicode="Y" glyph-name="Y"/>
<glyph horiz-adv-x="601" d="M34 0v86l410 538h-403v88h520v-87l-408 -537h417v-88h-536z" unicode="Z" glyph-name="Z"/>
<glyph horiz-adv-x="318" d="M91 -128v881h207v-75h-122v-731h122v-75h-207z" unicode="[" glyph-name="bracketleft"/>
<glyph horiz-adv-x="368" d="M4 728h85l269 -734h-85z" unicode="\" glyph-name="backslash"/>
<glyph horiz-adv-x="318" d="M20 -128v75h123v731h-123v75h208v-881h-208z" unicode="]" glyph-name="bracketright"/>
<glyph horiz-adv-x="559" d="M56 353l184 364h80l183 -364h-101l-124 254l-124 -254h-98z" unicode="^" glyph-name="asciicircum"/>
<glyph horiz-adv-x="529" d="M14 -121v59h501v-59h-501z" unicode="_" glyph-name="underscore"/>
<glyph horiz-adv-x="440" d="M312 599h-97l-152 137h126z" unicode="`" glyph-name="grave"/>
<glyph horiz-adv-x="552" d="M477 0h-66l-21 74q-25 -39 -70 -63t-103 -24q-80 0 -129 42t-49 115q0 33 10.5 59.5t25.5 43.5t43.5 30t51 19.5t62 11t63 6t66.5 3.5h8.5t7 0.5t8.5 0.5v31q0 106 -111 106q-109 0 -120 -84q-61 4 -89 5q10 76 65 114.5t146 38.5q201 0 201 -200v-329zM384 210v38 q-50 -2 -78 -3.5t-61 -5.5t-50.5 -10.5t-33.5 -17.5t-22 -27t-6 -38q0 -39 25.5 -61t71.5 -22q73 0 113.5 41t40.5 106z" unicode="a" glyph-name="a"/>
<glyph horiz-adv-x="598" d="M77 0v718h93v-270q54 80 160 80t162.5 -75.5t56.5 -194.5q0 -121 -59 -196.5t-164 -75.5t-159 82q-18 -46 -27 -68h-63zM168 262q0 -197 143 -197q69 0 105 52t36 141q0 88 -36 139.5t-102 51.5q-72 0 -109 -50.5t-37 -132.5v-4z" unicode="b" glyph-name="b"/>
<glyph horiz-adv-x="542" d="M501 175q-10 -86 -66 -137t-150 -51q-117 0 -176.5 74t-59.5 195t62 197t177 76q90 0 146.5 -53.5t60.5 -133.5h-92q-7 49 -36.5 77.5t-80.5 28.5q-52 0 -85 -29t-44.5 -69t-11.5 -92q0 -83 32.5 -137.5t107.5 -54.5q53 0 83.5 29t37.5 80h95z" unicode="c" glyph-name="c"/>
<glyph horiz-adv-x="598" d="M519 0h-66l-24 72q-54 -86 -163 -86q-106 0 -162 75.5t-56 193.5q0 120 58 196.5t165 76.5q103 0 155 -75v265h93v-718zM429 252q0 197 -144 197q-68 0 -104.5 -52.5t-36.5 -139.5q0 -89 36.5 -140.5t102.5 -51.5q72 0 109 51.5t37 131.5v4z" unicode="d" glyph-name="d"/>
<glyph horiz-adv-x="561" d="M516 272q0 -5 -0.5 -19t-0.5 -21h-372q2 -74 40 -122t106 -48q105 0 125 89h92q-12 -78 -70.5 -121.5t-146.5 -43.5q-113 0 -176.5 74t-63.5 195q0 122 64.5 198t174.5 76t169 -71.5t59 -185.5zM422 302q-1 69 -35 110.5t-100 41.5q-64 0 -102 -42t-41 -110h278z" unicode="e" glyph-name="e"/>
<glyph horiz-adv-x="355" d="M108 0v437h-88v77h88v53q0 75 43.5 117.5t117.5 42.5q46 0 90 -11l-8 -74q-31 7 -68 7q-81 0 -81 -81v-54h138v-77h-138v-437h-94z" unicode="f" glyph-name="f"/>
<glyph horiz-adv-x="562" d="M435 442q34 -45 34 -103q0 -82 -58 -131.5t-143 -49.5q-48 0 -92 19q-38 -18 -38 -50q0 -34 46 -42q9 -4 34 -4h114q81 0 131 -33q18 -14 25 -22q37 -40 37 -98t-39 -99q-61 -64 -205 -64q-136 0 -198 62q-36 38 -36 91q0 35 18.5 65.5t50.5 45.5q-25 10 -41.5 34.5 t-16.5 50.5q0 63 61 100q-51 51 -51 126q0 85 57 134t143 49q67 0 118 -34q42 12 42 64q0 3 -2 9l-2 5h69q4 -8 4 -26v-7q0 -30 -16.5 -54.5t-45.5 -37.5zM384 340q0 51 -32.5 82t-83.5 31t-83 -31t-32 -82t32 -81.5t83 -30.5t83.5 30.5t32.5 81.5zM441 -73q0 31 -20 51 q-28 28 -104 30h-113q-10 -1 -25 -5q-53 -19 -53 -78q0 -33 22 -53q37 -35 131 -35q102 0 139 36q23 23 23 54z" unicode="g" glyph-name="g"/>
<glyph horiz-adv-x="582" d="M510 0h-94v325q0 62 -24.5 91t-77.5 29q-72 0 -108 -51t-36 -128v-266h-93v718h93v-278q59 89 165 89q86 0 130.5 -49t44.5 -139v-341z" unicode="h" glyph-name="h"/>
<glyph horiz-adv-x="254" d="M80 0v514h95v-514h-95zM75 611v103h104v-103h-104z" unicode="i" glyph-name="i"/>
<glyph horiz-adv-x="263" d="M187 612h-104v102h104v-102zM183 -36q0 -163 -143 -163h-6q-36 0 -85 13q1 12 3.5 38t4.5 39q38 -8 64 -8q68 0 68 78v553h94v-550z" unicode="j" glyph-name="j"/>
<glyph horiz-adv-x="546" d="M77 0v718h93v-438l236 234h114l-184 -185l204 -329h-107l-163 267l-100 -99v-168h-93z" unicode="k" glyph-name="k"/>
<glyph horiz-adv-x="263" d="M169 0h-93v718h93v-718z" unicode="l" glyph-name="l"/>
<glyph horiz-adv-x="872" d="M801 0h-93v330q0 62 -22 89.5t-71 27.5q-50 0 -89.5 -42.5t-39.5 -100.5v-304h-93v330q0 61 -22 89t-70 28q-53 0 -91.5 -45t-38.5 -114v-288h-94v514h56l34 -77q57 92 155 92q114 0 149 -96q60 96 167 96q80 0 121.5 -46.5t41.5 -134.5v-348z" unicode="m" glyph-name="m"/>
<glyph horiz-adv-x="582" d="M77 0v514h59l31 -78q58 93 169 93q85 0 129.5 -49t44.5 -139v-341h-94v325q0 62 -24.5 91t-77.5 29q-74 0 -109 -53.5t-35 -136.5v-255h-93z" unicode="n" glyph-name="n"/>
<glyph d="M532 258q0 -122 -63.5 -197t-178.5 -75q-116 0 -178.5 74.5t-62.5 196.5t64.5 197t177.5 75q115 0 178 -75t63 -196zM436 258q0 83 -34.5 136.5t-111.5 53.5q-75 0 -110 -54t-35 -136q0 -84 34.5 -138t110.5 -54q77 0 111.5 54t34.5 138z" unicode="o" glyph-name="o"/>
<glyph horiz-adv-x="598" d="M549 259q0 -121 -58.5 -197t-164.5 -76q-103 0 -156 75v-257h-93v710h64l26 -72q56 87 164 87q106 0 162 -76t56 -194zM452 258q0 89 -36 139.5t-102 50.5q-71 0 -108.5 -51t-37.5 -131q0 -201 144 -201q67 0 103.5 52.5t36.5 140.5z" unicode="p" glyph-name="p"/>
<glyph horiz-adv-x="598" d="M520 -196h-94v261q-53 -79 -160 -79t-162.5 75.5t-55.5 195.5q0 119 59 195.5t164 76.5q103 0 159 -83l24 68h66v-710zM429 252q0 91 -34.5 144t-107.5 53q-68 0 -105 -51.5t-37 -140.5q0 -88 36 -140t102 -52q72 0 109 51.5t37 135.5z" unicode="q" glyph-name="q"/>
<glyph horiz-adv-x="383" d="M358 429q-18 5 -46 5q-69 0 -105 -46.5t-36 -119.5v-268h-94v514h55l35 -84q23 44 63.5 68t87.5 24q27 0 47 -4q-1 -15 -3.5 -44.5t-3.5 -44.5z" unicode="r" glyph-name="r"/>
<glyph horiz-adv-x="521" d="M476 144q0 -75 -57.5 -116.5t-153.5 -41.5q-94 0 -157.5 43.5t-67.5 127.5h91q11 -96 134 -96q119 0 119 79q0 37 -30 54.5t-94 27.5q-96 11 -150.5 45t-54.5 106q0 73 58.5 114.5t145.5 41.5q94 0 148.5 -44.5t58.5 -114.5l-87 -1q-13 85 -118 85q-57 0 -86 -20t-29 -54 q0 -37 24 -50t104 -27q107 -16 154.5 -51t47.5 -108z" unicode="s" glyph-name="s"/>
<glyph horiz-adv-x="370" d="M106 157v280h-89v77h89v107l94 46v-153h138v-77h-138v-285q0 -80 68 -80q34 0 74 8l8 -74q-52 -15 -98 -15q-78 0 -112 42.5t-34 123.5z" unicode="t" glyph-name="t"/>
<glyph horiz-adv-x="577" d="M70 173v341h94v-325q0 -63 24 -92t77 -29q73 0 107 56t34 149v241h93v-514h-59q-5 13 -15 39.5t-15 39.5q-58 -93 -166 -93q-86 0 -130 48t-44 139z" unicode="u" glyph-name="u"/>
<glyph horiz-adv-x="511" d="M208 0l-201 514h105l147 -402l145 402h100l-198 -514h-98z" unicode="v" glyph-name="v"/>
<glyph horiz-adv-x="751" d="M160 0l-140 514h97l96 -394l121 390h87l120 -389l95 393h95l-139 -514h-95l-122 393l-121 -393h-94z" unicode="w" glyph-name="w"/>
<glyph horiz-adv-x="504" d="M12 0l185 267l-176 249h109l125 -183l127 183h102l-174 -248l183 -268h-109l-134 199l-134 -199h-104z" unicode="x" glyph-name="x"/>
<glyph horiz-adv-x="519" d="M46 -187q5 44 10 76q23 -11 60 -11q51 0 76 61q2 4 27 67q-20 48 -212 508h105q124 -319 155 -401q67 182 145 401h100q-39 -101 -111.5 -287t-100.5 -259q-15 -38 -27 -65q-23 -52 -56 -78t-86 -26q-31 0 -85 14z" unicode="y" glyph-name="y"/>
<glyph horiz-adv-x="487" d="M41 0v78l294 359h-290v77h403v-78l-293 -359h301v-77h-415z" unicode="z" glyph-name="z"/>
<glyph horiz-adv-x="332" d="M130 14v159q0 100 -91 100v78q50 3 70.5 26t20.5 74v138q0 84 36 123.5t112 39.5h45v-73h-32q-42 0 -60.5 -17.5t-18.5 -55.5v-168q0 -103 -80 -125v-1q80 -21 80 -128v-157q0 -43 17.5 -62t61.5 -19h32v-74h-25q-82 0 -125 33.5t-43 108.5z" unicode="{" glyph-name="braceleft"/>
<glyph horiz-adv-x="251" d="M84 -128v881h84v-881h-84z" unicode="|" glyph-name="bar"/>
<glyph horiz-adv-x="332" d="M7 -128v74h32q45 0 62 19t17 62v157q0 106 81 128v1q-81 22 -81 127v157q0 44 -16.5 63t-62.5 19h-32v73h45q78 0 113.5 -39t35.5 -124v-138q0 -51 21.5 -74t69.5 -26q0 -13 -0.5 -39t-0.5 -39q-90 0 -90 -100v-139q0 -83 -35.5 -122.5t-113.5 -39.5h-45z" unicode="}" glyph-name="braceright"/>
<glyph horiz-adv-x="622" d="M565 364q-32 -133 -151 -133q-36 0 -74 20t-71 40t-58 20q-62 0 -83 -71q-12 5 -36.5 16t-36.5 17q32 132 153 132q46 0 110 -39t92 -39q62 0 83 69q55 -24 72 -32z" unicode="~" glyph-name="asciitilde"/>
<glyph horiz-adv-x="275" unicode=" " glyph-name="nbspace"/>
<glyph horiz-adv-x="280" d="M82 -199q1 22 4.5 129.5t8 230.5t4.5 135h71q1 -39 5 -142.5t6 -182.5t2 -170h-101zM81 396v115h104v-115h-104z" unicode="¡" glyph-name="exclamdown"/>
<glyph d="M278 -5v87q-103 11 -154.5 83.5t-51.5 183.5t53 184.5t153 85.5v90h54v-90q81 -6 130 -58t58 -129q-16 0 -47 0.5t-46 0.5q-5 41 -29 70t-66 36v-377q43 6 67.5 36t30.5 73h93q-8 -80 -57 -131t-134 -59v-86h-54zM278 163v374q-111 -18 -111 -187q0 -166 111 -187z" unicode="¢" glyph-name="cent"/>
<glyph horiz-adv-x="584" d="M532 84q0 -14 -0.5 -42t-0.5 -42h-467q0 13 0.5 39.5t0.5 39.5q41 18 54.5 56.5t13.5 106.5q0 20 -2 76h-77v77h72q-6 66 -6 104q0 101 57.5 156t147.5 55q93 0 143.5 -52t57.5 -130h-88q-15 101 -111 101q-115 0 -115 -127q0 -49 5 -107h192v-77h-187q2 -44 2 -75v-16 v-19t-0.5 -18.5t-2 -21t-3.5 -19.5t-5.5 -19.5t-8 -17t-11 -16t-14.5 -11.5z" unicode="£" glyph-name="sterling"/>
<glyph horiz-adv-x="600" d="M27 238q3 19 7 64h64q-1 14 -1 42q0 30 1 44h-71q3 19 7 64h71q18 114 89 185t182 71q142 0 202 -124q-55 -38 -61 -43q-51 84 -143 84q-72 0 -116.5 -46.5t-56.5 -126.5h250q-8 -28 -20 -64h-238q0 -7 -0.5 -21.5t-0.5 -21.5q0 -8 0.5 -22t0.5 -21h218q-4 -11 -11 -32.5 t-10 -31.5h-190q13 -78 57.5 -124t114.5 -46q104 0 147 90l63 -36q-56 -136 -211 -136q-112 0 -180.5 68.5t-85.5 183.5h-78z" unicode="¤" glyph-name="currency"/>
<glyph horiz-adv-x="574" d="M472 157h-138v-157h-94v157h-143v62h143v75h-143v62h108q-132 230 -199 346h104q167 -301 179 -322q35 63 102 183.5t77 138.5h98q-66 -116 -198 -346h104v-62h-138v-75h138v-62z" unicode="¥" glyph-name="yen"/>
<glyph horiz-adv-x="258" d="M83 419v327h92v-327h-92zM83 -87v336h92v-336h-92z" unicode="¦" glyph-name="brokenbar"/>
<glyph horiz-adv-x="541" d="M474 225q0 -88 -85 -138q54 -49 54 -115q0 -72 -55 -116t-133 -44q-88 0 -139.5 49t-54.5 135h87q2 -48 29.5 -78.5t78.5 -30.5q41 0 70.5 24t29.5 60q0 49 -51 80q-18 12 -55 36.5t-55.5 37t-45.5 35.5t-40.5 42t-23.5 45.5t-10 55.5q0 82 86 133q-55 47 -55 116 q0 70 57.5 114t135.5 44q86 0 135.5 -51.5t53.5 -127.5h-87q0 46 -27 75t-79 29q-41 0 -70.5 -23.5t-29.5 -59.5q0 -49 50 -80q18 -12 56 -37.5t56 -37.5t45 -35t39.5 -41t22.5 -43t10 -53zM394 214q0 66 -73 106q-79 58 -100 74q-64 -28 -64 -82q0 -26 12 -49t37.5 -46 t46 -37.5t57.5 -38.5q11 -7 17 -11q30 12 48.5 34t18.5 50z" unicode="§" glyph-name="section"/>
<glyph horiz-adv-x="352" d="M35 613v99h93v-99h-93zM223 613v99h94v-99h-94z" unicode="¨" glyph-name="dieresis"/>
<glyph horiz-adv-x="816" d="M408 -7q-155 0 -255 102t-100 261q0 157 102 259.5t253 102.5q154 0 254.5 -102t100.5 -260t-102 -260.5t-253 -102.5zM408 56q123 0 204 84.5t81 215.5q0 130 -80.5 214.5t-204.5 84.5t-204.5 -84t-80.5 -215t80 -215.5t205 -84.5zM502 300h79q-8 -68 -52.5 -107.5 t-117.5 -39.5q-88 0 -136 55.5t-48 145.5q0 89 50 145.5t137 56.5q70 0 115 -39.5t50 -104.5l-79 1q-12 76 -88 76q-54 0 -79.5 -37.5t-25.5 -96.5q0 -60 26 -97.5t79 -37.5q38 0 61.5 21.5t28.5 58.5z" unicode="©" glyph-name="copyright"/>
<glyph horiz-adv-x="315" d="M278 238h-36l-12 41q-31 -48 -96 -48q-44 0 -71 23.5t-27 63.5q0 32 15 52t44.5 28.5t56.5 11.5t66 4h9v18q0 59 -61 59t-67 -47q-32 2 -49 3q5 42 35.5 63.5t81.5 21.5q111 0 111 -111v-183zM227 355v21q-80 -3 -109.5 -13t-29.5 -44q0 -22 14 -34t39 -12q41 0 63.5 23 t22.5 59z" unicode="ª" glyph-name="ordfeminine"/>
<glyph horiz-adv-x="535" d="M195 496q23 -15 71 -47q-19 -29 -58 -87.5t-59 -87.5q19 -29 58 -87.5t58 -87.5q-12 -8 -35 -24t-35 -23l-147 222zM414 496q39 -25 70 -47q-19 -29 -57.5 -87.5t-57.5 -87.5q97 -147 116 -175q-63 -42 -71 -47l-147 222z" unicode="«" glyph-name="guillemotleft"/>
<glyph horiz-adv-x="617" d="M64 306v84h469v-256h-87v172h-382z" unicode="¬" glyph-name="logicalnot"/>
<glyph horiz-adv-x="671" d="M230 292v293h110q57 0 84.5 -25.5t27.5 -67.5q0 -62 -50 -83q23 -50 56 -117h-65q-5 9 -24 52.5t-23 52.5h-57v-105h-59zM289 449h53q24 0 37.5 12.5t13.5 31.5q0 40 -54 40h-50v-84zM335 141q-126 0 -207.5 82t-81.5 211q0 128 83 210.5t206 82.5q126 0 207.5 -82 t81.5 -211q0 -128 -82.5 -210.5t-206.5 -82.5zM335 197q100 0 164 66t64 171t-64 172t-164 67t-163.5 -66.5t-63.5 -172.5t63 -171.5t164 -65.5z" unicode="®" glyph-name="registered"/>
<glyph horiz-adv-x="349" d="M37 621v77h275v-77h-275z" unicode="¯" glyph-name="macron"/>
<glyph horiz-adv-x="421" d="M48 548q0 66 46.5 112t115.5 46q68 0 115 -46t47 -112q0 -68 -47.5 -114t-114.5 -46q-68 0 -115 46.5t-47 113.5zM210 458q37 0 62 26t25 64t-25 63t-62 25q-38 0 -62.5 -25t-24.5 -63t24.5 -64t62.5 -26z" unicode="°" glyph-name="degree"/>
<glyph horiz-adv-x="1352" d="M276 50v232h-212v82h212v224h85v-224h212v-82h-212v-232h-85zM824 283v84h469v-84h-469zM934 717l-355 -723h-87l357 723h85z" unicode="±" glyph-name="plusminus"/>
<glyph horiz-adv-x="310" d="M28 334v44q7 6 62 65.5t63 67.5q65 60 65 109q0 30 -17.5 47.5t-48.5 17.5q-64 0 -75 -69h-51q5 51 36.5 83.5t90.5 32.5q55 0 87 -30t32 -80q0 -68 -76 -138q-5 -4 -48 -51t-49 -51h177v-48h-248z" unicode="²" glyph-name="twosuperior"/>
<glyph horiz-adv-x="291" d="M18 451h51q6 -72 77 -72q34 0 54 17.5t20 50.5q0 68 -75 68h-33v45h34q31 0 48.5 16.5t17.5 46.5q0 27 -18 43t-48 16q-67 0 -76 -63h-50q1 46 35.5 77.5t90.5 31.5q54 0 86 -28.5t32 -73.5q0 -62 -56 -86q64 -21 64 -92q0 -53 -34 -84t-92 -31q-62 0 -94 33.5t-34 84.5z " unicode="³" glyph-name="threesuperior"/>
<glyph horiz-adv-x="323" d="M205 750l57 -56l-158 -119l-41 38z" unicode="´" glyph-name="acute"/>
<glyph horiz-adv-x="616" d="M515 328h1q9 0 16 11q2 4 2 8q0 9 -9 9q-8 0 -14 -11q-6 -9 -6 -19q0 -13 7 -13q4 -2 10 -2q4 0 8 2q8 4 8 8q0 2 -2 2t-2 -2q-4 -7 -11 -7q-10 0 -10 12q0 2 2 2zM520 351h1q6 0 6 -7q0 -13 -9 -13q-5 0 -5 3q0 4 3 13l1 2q1 2 3 2zM472 369l-1 -9v-3q0 -4 -3 -5 q-11 -6 -11 -11q0 -2 2 -2q1 0 4 3.5t4 3.5q0 2 2 2l1 -1l-5 -37q0 -11 -4 -11h-1h-3q-1 0 -1 -1q0 -5 16 -5q7 0 7 3q-1 1 -2 1h-1h-2q-3 0 -3 4q0 12 2 12l3 -1q2 -1 7 -1q7 0 12 7q7 7 7 19q0 19 -16 19q-4 -1 -7 -1l-1 1q0 3 1 8.5t1 6.5l-2 2h-3v-1q-3 0 -3 -3z M482 352q12 0 12 -16q0 -22 -12 -22q-8 0 -8 7v2q0 5 1.5 12.5t1.5 10.5v4q0 2 5 2zM457 320q-2 -5 -5 -5t-3 7q0 5 1 11t3 11.5t2 7.5l1 1v1q0 1 -3 1h-1q-4 0 -5 -4q0 -1 -1 -1l-2 3q-3 3 -5 3q-9 0 -20 -16v0q-3 -9 -3 -16q0 -13 11 -13q5 0 11 6l1 1l3 3q1 0 1 -2v-4 q0 -4 5 -4q4 0 8.5 3t4.5 7q0 2 -2 2zM437 353q7 0 7 -13q0 -24 -14 -24q-6 0 -6 9q0 11 5 21q3 4 8 7zM409 318q-2 -5 -5 -5t-3 3q0 1 1.5 6t2.5 11.5t1 11.5q0 12 -12 12q-4 0 -7 -2.5t-4 -4.5t-1 -3l-2 -2h-1l1 7q2 20 4 29q1 2 1 5q0 2 -3 2q-16 0 -16 -4q0 -1 3 -1h2h2 q3 0 3 -4t-0.5 -8t-1.5 -9.5t-1 -8.5v-1q-2 -20 -4 -29l-2 -10q0 -1 6 -1q3 0 3 2v2v4v2l1 4q1 4 2 7.5t3 8t4.5 7t5.5 2.5t5 -1.5t2 -3.5v-2q0 -2 -3 -17q-3 -9 -3 -14t5 -5q11 0 14 9l1 2q0 2 -2 2q-2 -1 -2 -3zM356 350q1 -2 3 -2q4 0 4 3q0 5 -7 5h-1q-16 0 -16 -12 q0 -4 3.5 -7.5t8.5 -7t6 -4.5q1 -2 1 -5q0 -6 -8 -6t-8 4v1q0 4 -4 4q-3 0 -3 -3q0 -9 13 -9q16 0 16 13q0 5 -4 8q-3 3 -7 6t-6 5t-2 5q0 4 5 4q4 0 6 -2zM328 320q0 -4 -5 -4q-3 0 -3 6q0 4 0.5 9.5t1.5 12t1 10.5v3q1 5 2.5 13t1.5 12q1 1 1 4q0 2 -3 2q-16 0 -16 -4 q0 -2 2 -2q2 1 4 1q4 0 4 -3q0 -29 -4 -29l-1 1q0 2 -2 3t-5 1q-11 0 -18 -13q-5 -10 -5 -19q0 -13 11 -13q8 0 12.5 5.5t5.5 5.5v-1v-3q0 -8 6 -8q4 0 8 4t5 8l-2 2q-2 0 -2 -4zM307 353q6 0 6 -11v-1v-5q0 -4 -3.5 -12t-10.5 -8t-7 10q0 13 4 17q4 10 11 10zM279 348l4 -2 l4 4q0 7 -7 7l-5 -5q0 -1 -1 -3.5t-2 -4.5l-1 -2l-1 4q-1 4 -2.5 7.5t-4.5 3.5t-7.5 -4t-4.5 -8l2 -4l2 2v3q0 4 5 4t5 -12q0 -6 -2 -13t-2 -12l2 -2q7 0 7 4v1q0 32 8 32h1zM235 357q-4 0 -8.5 -1.5t-10 -9t-5.5 -19.5q0 -4 1 -6q0 -3 4 -6.5t10 -3.5q22 0 22 29 q0 17 -13 17zM230 353h1q9 0 9 -16v-1q0 -22 -12 -22q-9 0 -9 12v2q0 25 11 25zM108 352q-5 0 -5 -4q0 -2 1.5 -4t1.5 -3q0 -9 -10 -9q-11 0 -11 18q0 17 16.5 26t32.5 9q5 0 5 -13l3 -58q0 -2 2 -2q12 0 30 37q0 -1 1 -16.5t1 -18.5q0 -2 5 -2q17 8 25.5 27t8.5 29 q0 19 -4 19q-8 0 -8 -2t2 -2q3 0 3 -17q0 -13 -5.5 -24t-10.5 -16.5t-7 -5.5t-2 6l-2 57q1 1 1 2q0 3 -2 3l-8 -5q2 -22 2 -24q0 -5 -11 -20.5t-13 -15.5q-1 0 -1 10t-0.5 25.5t-2.5 25.5q-1 5 -8 5q-28 0 -43 -12t-15 -27q0 -21 16 -21q8 0 12.5 5t4.5 11q0 7 -5 7zM53 92 v527h527v-527h-527z" unicode="µ" glyph-name="mu"/>
<glyph horiz-adv-x="647" d="M202 700h332l-1 -638h-86v571h-114v-571h-86v247q-97 3 -151.5 60t-54.5 140q0 72 43 125t118 66z" unicode="¶" glyph-name="paragraph"/>
<glyph horiz-adv-x="261" d="M69 272v125h115v-125h-115z" unicode="·" glyph-name="periodcentered"/>
<glyph horiz-adv-x="291" d="M197 -34l-71 -180l-79 37l77 143h73z" unicode="¸" glyph-name="cedilla"/>
<glyph horiz-adv-x="297" d="M239 370h-51v316q-47 -32 -89 -59v52q16 10 48 32l48 33h44v-374z" unicode="¹" glyph-name="onesuperior"/>
<glyph horiz-adv-x="369" d="M338 367q0 -74 -38 -119t-108 -45t-107.5 44.5t-37.5 118.5t39 119t107 45q69 0 107 -45t38 -118zM280 367q0 114 -88 114q-45 0 -66 -32.5t-21 -81.5q0 -116 87 -116q47 0 67.5 32.5t20.5 83.5z" unicode="º" glyph-name="ordmasculine"/>
<glyph horiz-adv-x="535" d="M268 100l116 174l-117 176l71 47l147 -222l-147 -223zM48 99l116 175l-115 176l70 47l147 -222l-147 -223z" unicode="»" glyph-name="guillemotright"/>
<glyph horiz-adv-x="920" d="M258 -9q120 252 362 758h64q-159 -335 -362 -758h-64zM349 426h-48v297q-14 -9 -42 -27.5t-42 -27.5v49q15 10 45 30.5t45 30.5h42v-352zM539 88v36q33 45 94 130.5t73 102.5h48v-229h46v-40h-46v-88h-49v88h-166zM590 128h115v161q-49 -69 -115 -161z" unicode="¼" glyph-name="onequarter"/>
<glyph horiz-adv-x="1037" d="M262 -9q203 423 362 758h65q-242 -506 -362 -758h-65zM378 370h-55v344q-86 -56 -97 -64v57q17 12 51.5 35.5t52.5 35.5h48v-408zM836 -1h-243v43q6 6 60 64t63 66q63 59 63 108q0 29 -17 46t-47 17q-63 0 -74 -67h-50q5 49 36 81t89 32q53 0 84.5 -29t31.5 -78 q0 -68 -74 -136l-12 -12q-6 -6 -25.5 -27t-36.5 -39.5t-21 -21.5h173v-47z" unicode="½" glyph-name="onehalf"/>
<glyph horiz-adv-x="920" d="M664 749l-361 -758h-65l362 758h64zM495 97v41l189 264h56v-259h51v-46h-51v-100h-57v100h-188zM554 143h129v182zM104 490h54q6 -76 82 -76q36 0 57 19t21 53q0 71 -80 71h-34v49h36q69 0 69 66q0 28 -19 45.5t-50 17.5q-70 0 -80 -67h-53q0 49 36.5 82t96.5 33 q57 0 90.5 -30.5t33.5 -77.5q0 -66 -58 -90q67 -24 67 -98q0 -56 -35.5 -88.5t-97.5 -32.5q-66 0 -100 35.5t-36 88.5z" unicode="¾" glyph-name="threequarters"/>
<glyph horiz-adv-x="500" d="M381 -6h93q-5 -90 -67 -148.5t-165 -58.5q-95 0 -154 52.5t-59 134.5q-1 55 21.5 92t64.5 74q54 48 67 68q25 36 25 96h93q0 -43 -6.5 -73.5t-25 -56.5t-33 -40t-47.5 -42q-60 -51 -60 -112q0 -50 30 -79.5t85 -29.5q123 0 138 123zM200 393v118h108v-118h-108z" unicode="¿" glyph-name="questiondown"/>
<glyph horiz-adv-x="634" d="M7 0l268 712h101l268 -712h-104l-65 176h-302l-65 -176h-101zM203 263h242l-122 331zM340 748h-97l-152 137h126z" unicode="À" glyph-name="Agrave"/>
<glyph horiz-adv-x="634" d="M7 0l268 712h101l268 -712h-104l-65 176h-302l-65 -176h-101zM203 263h242l-122 331zM417 916l57 -56l-158 -119l-41 38z" unicode="Á" glyph-name="Aacute"/>
<glyph horiz-adv-x="634" d="M7 0l268 712h101l268 -712h-104l-65 176h-302l-65 -176h-101zM203 263h242l-122 331zM158 756l130 151h73l129 -151h-86l-79 101l-79 -101h-88z" unicode="Â" glyph-name="Acircumflex"/>
<glyph horiz-adv-x="634" d="M7 0l268 712h101l268 -712h-104l-65 176h-302l-65 -176h-101zM203 263h242l-122 331zM198 758l-55 22q11 41 37.5 64t66.5 23q30 0 70.5 -23t59.5 -23q37 0 50 38l54 -22q-10 -41 -36.5 -64t-64.5 -23q-31 0 -72 23t-59 23q-38 0 -51 -38z" unicode="Ã" glyph-name="Atilde"/>
<glyph horiz-adv-x="703" d="M7 0l268 712h101l268 -712h-104l-65 176h-302l-65 -176h-101zM203 263h242l-122 331zM181 757v99h93v-99h-93zM369 757v99h94v-99h-94z" unicode="Ä" glyph-name="Adieresis"/>
<glyph horiz-adv-x="703" d="M7 0l268 712h101l268 -712h-104l-65 176h-302l-65 -176h-101zM203 263h242l-122 331zM214 840q0 49 31 78.5t79 29.5q47 0 78.5 -30t31.5 -78q0 -49 -32 -78.5t-78 -29.5t-78 29.5t-32 78.5zM324 784q24 0 39 15.5t15 40.5t-15 40.5t-39 15.5t-38.5 -15.5t-14.5 -40.5 t14.5 -40.5t38.5 -15.5z" unicode="Å" glyph-name="Aring"/>
<glyph horiz-adv-x="977" d="M1 0l370 712h558v-88h-341v-209h306v-89h-306v-238h346v-88h-441v210h-276l-108 -210h-108zM261 297h232v327h-68z" unicode="Æ" glyph-name="AE"/>
<glyph horiz-adv-x="659" d="M629 230q-11 -109 -85 -177t-192 -68q-151 0 -226 103t-75 267q0 162 76.5 267t224.5 105q115 0 186 -67.5t87 -175.5h-100q-11 73 -54.5 114t-118.5 41q-55 0 -95 -23.5t-62.5 -64.5t-32.5 -89.5t-10 -106.5q0 -78 17.5 -138.5t64 -102.5t118.5 -42q79 0 122.5 42 t52.5 116h102zM404 5l-71 -180l-79 37l77 143h73z" unicode="Ç" glyph-name="Ccedilla"/>
<glyph horiz-adv-x="602" d="M86 0v712h475v-88h-376v-210h342v-88h-342v-238h381v-88h-480zM361 749h-97l-152 137h126z" unicode="È" glyph-name="Egrave"/>
<glyph horiz-adv-x="615" d="M86 0v712h475v-88h-376v-210h342v-88h-342v-238h381v-88h-480zM418 912l57 -56l-158 -119l-41 38z" unicode="É" glyph-name="Eacute"/>
<glyph horiz-adv-x="620" d="M86 0v712h475v-88h-376v-210h342v-88h-342v-238h381v-88h-480zM175 772l130 151h73l129 -151h-86l-79 101l-79 -101h-88z" unicode="Ê" glyph-name="Ecircumflex"/>
<glyph horiz-adv-x="602" d="M86 0v712h475v-88h-376v-210h342v-88h-342v-238h381v-88h-480zM197 740v99h93v-99h-93zM385 740v99h94v-99h-94z" unicode="Ë" glyph-name="Edieresis"/>
<glyph horiz-adv-x="247" d="M86 0v712h99v-712h-99zM140 759h-97l-152 137h126z" unicode="Ì" glyph-name="Igrave"/>
<glyph horiz-adv-x="247" d="M86 0v712h99v-712h-99zM240 912l57 -56l-158 -119l-41 38z" unicode="Í" glyph-name="Iacute"/>
<glyph horiz-adv-x="247" d="M86 0v712h99v-712h-99zM-39 761l130 151h73l129 -151h-86l-79 101l-79 -101h-88z" unicode="Î" glyph-name="Icircumflex"/>
<glyph horiz-adv-x="247" d="M86 0v712h99v-712h-99zM-7 740v99h93v-99h-93zM181 740v99h94v-99h-94z" unicode="Ï" glyph-name="Idieresis"/>
<glyph horiz-adv-x="708" d="M97 0v330h-76v76h76v305h254q158 0 231.5 -97.5t73.5 -255.5q0 -160 -77 -259t-239 -99h-243zM195 86h122q70 0 118 20t73.5 58.5t36 84.5t10.5 108q0 267 -204 267h-156v-218h162v-76h-162v-244z" unicode="Ð" glyph-name="Eth"/>
<glyph horiz-adv-x="714" d="M86 0v712h100l352 -548v548h96v-712h-98l-353 549v-549h-97zM253 745l-55 22q11 41 37.5 64t66.5 23q30 0 70.5 -23t59.5 -23q37 0 50 38l54 -22q-10 -41 -36.5 -64t-64.5 -23q-31 0 -72 23t-59 23q-38 0 -51 -38z" unicode="Ñ" glyph-name="Ntilde"/>
<glyph horiz-adv-x="707" d="M665 356q0 -78 -17.5 -143.5t-53.5 -117.5t-96 -81t-139 -29q-153 0 -230.5 103.5t-77.5 266.5q0 78 18.5 144.5t55.5 118t97 80.5t137 29q152 0 229 -103.5t77 -267.5zM564 355q0 57 -10 105t-32.5 90t-64 65.5t-98.5 23.5q-58 0 -100 -23.5t-64.5 -65.5t-32.5 -90 t-10 -105t10 -105t32.5 -89.5t64.5 -65t100 -23.5q57 0 98.5 23.5t64 64.5t32.5 89t10 106zM371 768h-97l-152 137h126z" unicode="Ò" glyph-name="Ograve"/>
<glyph horiz-adv-x="707" d="M665 356q0 -78 -17.5 -143.5t-53.5 -117.5t-96 -81t-139 -29q-153 0 -230.5 103.5t-77.5 266.5q0 78 18.5 144.5t55.5 118t97 80.5t137 29q152 0 229 -103.5t77 -267.5zM564 355q0 57 -10 105t-32.5 90t-64 65.5t-98.5 23.5q-58 0 -100 -23.5t-64.5 -65.5t-32.5 -90 t-10 -105t10 -105t32.5 -89.5t64.5 -65t100 -23.5q57 0 98.5 23.5t64 64.5t32.5 89t10 106zM452 937l57 -56l-158 -119l-41 38z" unicode="Ó" glyph-name="Oacute"/>
<glyph horiz-adv-x="707" d="M665 356q0 -78 -17.5 -143.5t-53.5 -117.5t-96 -81t-139 -29q-153 0 -230.5 103.5t-77.5 266.5q0 78 18.5 144.5t55.5 118t97 80.5t137 29q152 0 229 -103.5t77 -267.5zM564 355q0 57 -10 105t-32.5 90t-64 65.5t-98.5 23.5q-58 0 -100 -23.5t-64.5 -65.5t-32.5 -90 t-10 -105t10 -105t32.5 -89.5t64.5 -65t100 -23.5q57 0 98.5 23.5t64 64.5t32.5 89t10 106zM195 764l130 151h73l129 -151h-86l-79 101l-79 -101h-88z" unicode="Ô" glyph-name="Ocircumflex"/>
<glyph horiz-adv-x="707" d="M665 356q0 -78 -17.5 -143.5t-53.5 -117.5t-96 -81t-139 -29q-153 0 -230.5 103.5t-77.5 266.5q0 78 18.5 144.5t55.5 118t97 80.5t137 29q152 0 229 -103.5t77 -267.5zM564 355q0 57 -10 105t-32.5 90t-64 65.5t-98.5 23.5q-58 0 -100 -23.5t-64.5 -65.5t-32.5 -90 t-10 -105t10 -105t32.5 -89.5t64.5 -65t100 -23.5q57 0 98.5 23.5t64 64.5t32.5 89t10 106zM245 776l-55 22q11 41 37.5 64t66.5 23q30 0 70.5 -23t59.5 -23q37 0 50 38l54 -22q-10 -41 -36.5 -64t-64.5 -23q-31 0 -72 23t-59 23q-38 0 -51 -38z" unicode="Õ" glyph-name="Otilde"/>
<glyph horiz-adv-x="755" d="M665 356q0 -78 -17.5 -143.5t-53.5 -117.5t-96 -81t-139 -29q-153 0 -230.5 103.5t-77.5 266.5q0 78 18.5 144.5t55.5 118t97 80.5t137 29q152 0 229 -103.5t77 -267.5zM564 355q0 57 -10 105t-32.5 90t-64 65.5t-98.5 23.5q-58 0 -100 -23.5t-64.5 -65.5t-32.5 -90 t-10 -105t10 -105t32.5 -89.5t64.5 -65t100 -23.5q57 0 98.5 23.5t64 64.5t32.5 89t10 106zM228 757v99h93v-99h-93zM416 757v99h94v-99h-94z" unicode="Ö" glyph-name="Odieresis"/>
<glyph horiz-adv-x="637" d="M76 132l186 186l-189 188l57 57l188 -188l189 188l56 -57l-188 -188l186 -186l-57 -58l-186 187l-186 -187z" unicode="×" glyph-name="multiply"/>
<glyph horiz-adv-x="717" d="M104 -31q8 15 25 45t25 45q-103 94 -103 296q0 163 78.5 267.5t228.5 104.5q82 0 147 -37q9 15 25 44t18 33q9 -5 27.5 -15t27.5 -15q-36 -64 -46 -81q60 -56 84 -128t24 -172q0 -79 -18 -144.5t-54 -117t-96 -80.5t-139 -29q-85 0 -153 37q-9 -16 -25.5 -45t-21.5 -38 q-8 5 -17 10t-20 11t-17 9zM204 147q43 77 128 231.5t128 232.5q-43 28 -102 28q-57 0 -98.5 -23.5t-64.5 -65t-33 -89.5t-10 -106q0 -140 52 -208zM509 569q-44 -77 -130 -233.5t-130 -233.5q47 -30 109 -30q58 0 99.5 23.5t64 65t32.5 89.5t10 105q0 141 -55 214z" unicode="Ø" glyph-name="Oslash"/>
<glyph horiz-adv-x="685" d="M73 277v435h99v-436q0 -204 172 -204q170 0 170 204v436h99v-436q0 -141 -69.5 -216.5t-199.5 -75.5q-132 0 -201.5 75.5t-69.5 217.5zM379 756h-97l-152 137h126z" unicode="Ù" glyph-name="Ugrave"/>
<glyph horiz-adv-x="685" d="M73 277v435h99v-436q0 -204 172 -204q170 0 170 204v436h99v-436q0 -141 -69.5 -216.5t-199.5 -75.5q-132 0 -201.5 75.5t-69.5 217.5zM427 924l57 -56l-158 -119l-41 38z" unicode="Ú" glyph-name="Uacute"/>
<glyph horiz-adv-x="685" d="M73 277v435h99v-436q0 -204 172 -204q170 0 170 204v436h99v-436q0 -141 -69.5 -216.5t-199.5 -75.5q-132 0 -201.5 75.5t-69.5 217.5zM175 768l130 151h73l129 -151h-86l-79 101l-79 -101h-88z" unicode="Û" glyph-name="Ucircumflex"/>
<glyph horiz-adv-x="715" d="M73 277v435h99v-436q0 -204 172 -204q170 0 170 204v436h99v-436q0 -141 -69.5 -216.5t-199.5 -75.5q-132 0 -201.5 75.5t-69.5 217.5zM215 755v99h93v-99h-93zM403 755v99h94v-99h-94z" unicode="Ü" glyph-name="Udieresis"/>
<glyph horiz-adv-x="599" d="M254 0v288l-248 424h109l189 -332l190 332h103l-245 -424v-288h-98zM372 896l57 -56l-158 -119l-41 38z" unicode="Ý" glyph-name="Yacute"/>
<glyph horiz-adv-x="613" d="M86 0v712h98v-130h144q131 0 192.5 -58t61.5 -158q0 -105 -62 -165t-191 -60h-145v-141h-98zM184 226h143q83 0 119.5 34.5t36.5 103.5q0 67 -37.5 99.5t-119.5 32.5h-142v-270z" unicode="Þ" glyph-name="Thorn"/>
<glyph horiz-adv-x="592" d="M87 511q0 94 58 153.5t153 59.5q93 0 149 -48t56 -129q0 -111 -92 -150q67 -16 106 -67t39 -126q0 -94 -57 -153.5t-161 -59.5q-48 0 -96 12q2 25 8 77q42 -10 75 -10q68 0 102.5 36.5t34.5 102.5q0 71 -43 105t-118 34h-37v77h34q54 0 83 30t29 85q0 48 -30.5 77.5 t-81.5 29.5q-60 0 -90 -36t-30 -102v-509h-91v511z" unicode="ß" glyph-name="germandbls"/>
<glyph horiz-adv-x="575" d="M477 0h-66l-21 74q-25 -39 -70 -63t-103 -24q-80 0 -129 42t-49 115q0 33 10.5 59.5t25.5 43.5t43.5 30t51 19.5t62 11t63 6t66.5 3.5h8.5t7 0.5t8.5 0.5v31q0 106 -111 106q-109 0 -120 -84q-61 4 -89 5q10 76 65 114.5t146 38.5q201 0 201 -200v-329zM384 210v38 q-50 -2 -78 -3.5t-61 -5.5t-50.5 -10.5t-33.5 -17.5t-22 -27t-6 -38q0 -39 25.5 -61t71.5 -22q73 0 113.5 41t40.5 106zM309 583h-97l-152 137h126z" unicode="à" glyph-name="agrave"/>
<glyph horiz-adv-x="575" d="M477 0h-66l-21 74q-25 -39 -70 -63t-103 -24q-80 0 -129 42t-49 115q0 33 10.5 59.5t25.5 43.5t43.5 30t51 19.5t62 11t63 6t66.5 3.5h8.5t7 0.5t8.5 0.5v31q0 106 -111 106q-109 0 -120 -84q-61 4 -89 5q10 76 65 114.5t146 38.5q201 0 201 -200v-329zM384 210v38 q-50 -2 -78 -3.5t-61 -5.5t-50.5 -10.5t-33.5 -17.5t-22 -27t-6 -38q0 -39 25.5 -61t71.5 -22q73 0 113.5 41t40.5 106zM359 737l57 -56l-158 -119l-41 38z" unicode="á" glyph-name="aacute"/>
<glyph horiz-adv-x="575" d="M477 0h-66l-21 74q-25 -39 -70 -63t-103 -24q-80 0 -129 42t-49 115q0 33 10.5 59.5t25.5 43.5t43.5 30t51 19.5t62 11t63 6t66.5 3.5h8.5t7 0.5t8.5 0.5v31q0 106 -111 106q-109 0 -120 -84q-61 4 -89 5q10 76 65 114.5t146 38.5q201 0 201 -200v-329zM384 210v38 q-50 -2 -78 -3.5t-61 -5.5t-50.5 -10.5t-33.5 -17.5t-22 -27t-6 -38q0 -39 25.5 -61t71.5 -22q73 0 113.5 41t40.5 106zM117 566l130 151h73l129 -151h-86l-79 101l-79 -101h-88z" unicode="â" glyph-name="acircumflex"/>
<glyph horiz-adv-x="575" d="M477 0h-66l-21 74q-25 -39 -70 -63t-103 -24q-80 0 -129 42t-49 115q0 33 10.5 59.5t25.5 43.5t43.5 30t51 19.5t62 11t63 6t66.5 3.5h8.5t7 0.5t8.5 0.5v31q0 106 -111 106q-109 0 -120 -84q-61 4 -89 5q10 76 65 114.5t146 38.5q201 0 201 -200v-329zM384 210v38 q-50 -2 -78 -3.5t-61 -5.5t-50.5 -10.5t-33.5 -17.5t-22 -27t-6 -38q0 -39 25.5 -61t71.5 -22q73 0 113.5 41t40.5 106zM167 586l-55 22q11 41 37.5 64t66.5 23q30 0 70.5 -23t59.5 -23q37 0 50 38l54 -22q-10 -41 -36.5 -64t-64.5 -23q-31 0 -72 23t-59 23q-38 0 -51 -38z " unicode="ã" glyph-name="atilde"/>
<glyph horiz-adv-x="575" d="M477 0h-66l-21 74q-25 -39 -70 -63t-103 -24q-80 0 -129 42t-49 115q0 33 10.5 59.5t25.5 43.5t43.5 30t51 19.5t62 11t63 6t66.5 3.5h8.5t7 0.5t8.5 0.5v31q0 106 -111 106q-109 0 -120 -84q-61 4 -89 5q10 76 65 114.5t146 38.5q201 0 201 -200v-329zM384 210v38 q-50 -2 -78 -3.5t-61 -5.5t-50.5 -10.5t-33.5 -17.5t-22 -27t-6 -38q0 -39 25.5 -61t71.5 -22q73 0 113.5 41t40.5 106zM142 582v99h93v-99h-93zM330 582v99h94v-99h-94z" unicode="ä" glyph-name="adieresis"/>
<glyph horiz-adv-x="575" d="M477 0h-66l-21 74q-25 -39 -70 -63t-103 -24q-80 0 -129 42t-49 115q0 33 10.5 59.5t25.5 43.5t43.5 30t51 19.5t62 11t63 6t66.5 3.5h8.5t7 0.5t8.5 0.5v31q0 106 -111 106q-109 0 -120 -84q-61 4 -89 5q10 76 65 114.5t146 38.5q201 0 201 -200v-329zM384 210v38 q-50 -2 -78 -3.5t-61 -5.5t-50.5 -10.5t-33.5 -17.5t-22 -27t-6 -38q0 -39 25.5 -61t71.5 -22q73 0 113.5 41t40.5 106zM175 675q0 49 31 78.5t79 29.5q47 0 78.5 -30t31.5 -78q0 -49 -32 -78.5t-78 -29.5t-78 29.5t-32 78.5zM285 619q24 0 39 15.5t15 40.5t-15 40.5 t-39 15.5t-38.5 -15.5t-14.5 -40.5t14.5 -40.5t38.5 -15.5z" unicode="å" glyph-name="aring"/>
<glyph horiz-adv-x="875" d="M152 376h-89q10 75 63.5 113.5t142.5 38.5q120 0 167 -83q59 83 170 83q110 0 166 -72t56 -189v-35h-361q1 -76 36 -124t104 -48q49 0 80 24t42 66h91q-12 -78 -68.5 -121t-143.5 -43q-69 0 -119 29.5t-74 81.5q-57 -109 -195 -109q-79 0 -130 40.5t-51 114.5 q0 35 11.5 62t28 44.5t46.5 29.5t53 18t63 9t62.5 3.5t63.5 0.5h7v21q0 66 -24 94.5t-82 28.5q-105 0 -116 -78zM375 216v24q-38 0 -63.5 -1t-56.5 -3.5t-50.5 -9t-37.5 -16.5t-26.5 -26t-8.5 -38q0 -39 26 -60.5t72 -21.5q70 0 107.5 42t37.5 110zM468 302h268 q-1 69 -33.5 110.5t-97.5 41.5q-63 0 -98 -41t-39 -111z" unicode="æ" glyph-name="ae"/>
<glyph horiz-adv-x="527" d="M501 175q-10 -86 -66 -137t-150 -51q-117 0 -176.5 74t-59.5 195t62 197t177 76q90 0 146.5 -53.5t60.5 -133.5h-92q-7 49 -36.5 77.5t-80.5 28.5q-52 0 -85 -29t-44.5 -69t-11.5 -92q0 -83 32.5 -137.5t107.5 -54.5q53 0 83.5 29t37.5 80h95zM330 8l-71 -180l-79 37 l77 143h73z" unicode="ç" glyph-name="ccedilla"/>
<glyph horiz-adv-x="560" d="M516 272q0 -5 -0.5 -19t-0.5 -21h-372q2 -74 40 -122t106 -48q105 0 125 89h92q-12 -78 -70.5 -121.5t-146.5 -43.5q-113 0 -176.5 74t-63.5 195q0 122 64.5 198t174.5 76t169 -71.5t59 -185.5zM422 302q-1 69 -35 110.5t-100 41.5q-64 0 -102 -42t-41 -110h278zM340 584 h-97l-152 137h126z" unicode="è" glyph-name="egrave"/>
<glyph horiz-adv-x="560" d="M516 272q0 -5 -0.5 -19t-0.5 -21h-372q2 -74 40 -122t106 -48q105 0 125 89h92q-12 -78 -70.5 -121.5t-146.5 -43.5q-113 0 -176.5 74t-63.5 195q0 122 64.5 198t174.5 76t169 -71.5t59 -185.5zM422 302q-1 69 -35 110.5t-100 41.5q-64 0 -102 -42t-41 -110h278zM365 734 l57 -56l-158 -119l-41 38z" unicode="é" glyph-name="eacute"/>
<glyph horiz-adv-x="560" d="M516 272q0 -5 -0.5 -19t-0.5 -21h-372q2 -74 40 -122t106 -48q105 0 125 89h92q-12 -78 -70.5 -121.5t-146.5 -43.5q-113 0 -176.5 74t-63.5 195q0 122 64.5 198t174.5 76t169 -71.5t59 -185.5zM422 302q-1 69 -35 110.5t-100 41.5q-64 0 -102 -42t-41 -110h278zM112 567 l130 151h73l129 -151h-86l-79 101l-79 -101h-88z" unicode="ê" glyph-name="ecircumflex"/>
<glyph horiz-adv-x="560" d="M516 272q0 -5 -0.5 -19t-0.5 -21h-372q2 -74 40 -122t106 -48q105 0 125 89h92q-12 -78 -70.5 -121.5t-146.5 -43.5q-113 0 -176.5 74t-63.5 195q0 122 64.5 198t174.5 76t169 -71.5t59 -185.5zM422 302q-1 69 -35 110.5t-100 41.5q-64 0 -102 -42t-41 -110h278zM160 613 v99h93v-99h-93zM348 613v99h94v-99h-94z" unicode="ë" glyph-name="edieresis"/>
<glyph horiz-adv-x="232" d="M80 0v514h95v-514h-95zM180 576h-97l-152 137h126z" unicode="ì" glyph-name="igrave"/>
<glyph horiz-adv-x="232" d="M80 0v514h95v-514h-95zM232 750l57 -56l-158 -119l-41 38z" unicode="í" glyph-name="iacute"/>
<glyph horiz-adv-x="232" d="M80 0v514h95v-514h-95zM-41 566l130 151h73l129 -151h-86l-79 101l-79 -101h-88z" unicode="î" glyph-name="icircumflex"/>
<glyph horiz-adv-x="232" d="M80 0v514h95v-514h-95zM-18 613v99h93v-99h-93zM170 613v99h94v-99h-94z" unicode="ï" glyph-name="idieresis"/>
<glyph horiz-adv-x="578" d="M193 564q-4 8 -11 24.5t-11 24.5q32 11 70 26q-34 26 -77 48q12 9 53 40q62 -28 102 -56q27 11 81 31l21 -49q-26 -11 -56 -22q70 -62 120 -160q44 -81 44 -205q0 -127 -63 -203.5t-178 -76.5q-113 0 -176 71t-63 186t62 188.5t169 73.5q63 0 101 -35q-24 85 -92 131 q-16 -6 -48 -18.5t-48 -18.5zM433 247q0 83 -35.5 131.5t-111.5 48.5q-73 0 -107 -52t-34 -129q0 -78 33.5 -129.5t109.5 -51.5t110.5 51.5t34.5 130.5z" unicode="ð" glyph-name="eth"/>
<glyph horiz-adv-x="592" d="M77 0v514h59l31 -78q58 93 169 93q85 0 129.5 -49t44.5 -139v-341h-94v325q0 62 -24.5 91t-77.5 29q-74 0 -109 -53.5t-35 -136.5v-255h-93zM172 581l-55 22q11 41 37.5 64t66.5 23q30 0 70.5 -23t59.5 -23q37 0 50 38l54 -22q-10 -41 -36.5 -64t-64.5 -23q-31 0 -72 23 t-59 23q-38 0 -51 -38z" unicode="ñ" glyph-name="ntilde"/>
<glyph horiz-adv-x="604" d="M532 258q0 -122 -63.5 -197t-178.5 -75q-116 0 -178.5 74.5t-62.5 196.5t64.5 197t177.5 75q115 0 178 -75t63 -196zM436 258q0 83 -34.5 136.5t-111.5 53.5q-75 0 -110 -54t-35 -136q0 -84 34.5 -138t110.5 -54q77 0 111.5 54t34.5 138zM385 584h-97l-152 137h126z" unicode="ò" glyph-name="ograve"/>
<glyph horiz-adv-x="604" d="M532 258q0 -122 -63.5 -197t-178.5 -75q-116 0 -178.5 74.5t-62.5 196.5t64.5 197t177.5 75q115 0 178 -75t63 -196zM436 258q0 83 -34.5 136.5t-111.5 53.5q-75 0 -110 -54t-35 -136q0 -84 34.5 -138t110.5 -54q77 0 111.5 54t34.5 138zM353 735l57 -56l-158 -119 l-41 38z" unicode="ó" glyph-name="oacute"/>
<glyph horiz-adv-x="604" d="M532 258q0 -122 -63.5 -197t-178.5 -75q-116 0 -178.5 74.5t-62.5 196.5t64.5 197t177.5 75q115 0 178 -75t63 -196zM436 258q0 83 -34.5 136.5t-111.5 53.5q-75 0 -110 -54t-35 -136q0 -84 34.5 -138t110.5 -54q77 0 111.5 54t34.5 138zM137 578l130 151h73l129 -151 h-86l-79 101l-79 -101h-88z" unicode="ô" glyph-name="ocircumflex"/>
<glyph horiz-adv-x="614" d="M532 258q0 -122 -63.5 -197t-178.5 -75q-116 0 -178.5 74.5t-62.5 196.5t64.5 197t177.5 75q115 0 178 -75t63 -196zM436 258q0 83 -34.5 136.5t-111.5 53.5q-75 0 -110 -54t-35 -136q0 -84 34.5 -138t110.5 -54q77 0 111.5 54t34.5 138zM183 592l-55 22q11 41 37.5 64 t66.5 23q30 0 70.5 -23t59.5 -23q37 0 50 38l54 -22q-10 -41 -36.5 -64t-64.5 -23q-31 0 -72 23t-59 23q-38 0 -51 -38z" unicode="õ" glyph-name="otilde"/>
<glyph horiz-adv-x="604" d="M532 258q0 -122 -63.5 -197t-178.5 -75q-116 0 -178.5 74.5t-62.5 196.5t64.5 197t177.5 75q115 0 178 -75t63 -196zM436 258q0 83 -34.5 136.5t-111.5 53.5q-75 0 -110 -54t-35 -136q0 -84 34.5 -138t110.5 -54q77 0 111.5 54t34.5 138zM151 613v99h93v-99h-93zM339 613 v99h94v-99h-94z" unicode="ö" glyph-name="odieresis"/>
<glyph horiz-adv-x="621" d="M258 460v112h104v-112h-104zM258 69v111h104v-111h-104zM75 278v84h471v-84h-471z" unicode="÷" glyph-name="divide"/>
<glyph d="M143 -64l-59 1q6 12 24.5 50t25.5 51q-85 78 -85 218q0 121 64 196.5t177 75.5q58 0 106 -23q6 11 18.5 34t19.5 35h63q-7 -13 -24.5 -48.5t-26.5 -51.5q86 -77 86 -216q0 -122 -63.5 -197t-179.5 -75q-59 0 -106 21q-26 -46 -40 -71zM181 121l174 312q-27 15 -65 15 q-75 0 -110 -54t-35 -137q0 -34 10 -73t26 -63zM400 393q-59 -105 -175 -313q27 -15 65 -15q70 0 105.5 47.5t39.5 120.5q0 105 -35 160z" unicode="ø" glyph-name="oslash"/>
<glyph horiz-adv-x="565" d="M70 173v341h94v-325q0 -63 24 -92t77 -29q73 0 107 56t34 149v241h93v-514h-59q-5 13 -15 39.5t-15 39.5q-58 -93 -166 -93q-86 0 -130 48t-44 139zM336 583h-97l-152 137h126z" unicode="ù" glyph-name="ugrave"/>
<glyph horiz-adv-x="598" d="M70 173v341h94v-325q0 -63 24 -92t77 -29q73 0 107 56t34 149v241h93v-514h-59q-5 13 -15 39.5t-15 39.5q-58 -93 -166 -93q-86 0 -130 48t-44 139zM352 736l57 -56l-158 -119l-41 38z" unicode="ú" glyph-name="uacute"/>
<glyph horiz-adv-x="565" d="M70 173v341h94v-325q0 -63 24 -92t77 -29q73 0 107 56t34 149v241h93v-514h-59q-5 13 -15 39.5t-15 39.5q-58 -93 -166 -93q-86 0 -130 48t-44 139zM107 578l130 151h73l129 -151h-86l-79 101l-79 -101h-88z" unicode="û" glyph-name="ucircumflex"/>
<glyph horiz-adv-x="565" d="M70 173v341h94v-325q0 -63 24 -92t77 -29q73 0 107 56t34 149v241h93v-514h-59q-5 13 -15 39.5t-15 39.5q-58 -93 -166 -93q-86 0 -130 48t-44 139zM140 585v99h93v-99h-93zM328 585v99h94v-99h-94z" unicode="ü" glyph-name="udieresis"/>
<glyph horiz-adv-x="515" d="M46 -187q5 44 10 76q23 -11 60 -11q51 0 76 61q2 4 27 67q-20 48 -212 508h105q124 -319 155 -401q67 182 145 401h100q-39 -101 -111.5 -287t-100.5 -259q-15 -38 -27 -65q-23 -52 -56 -78t-86 -26q-31 0 -85 14zM328 720l57 -56l-158 -119l-41 38z" unicode="ý" glyph-name="yacute"/>
<glyph horiz-adv-x="595" d="M77 -196v441v472h93v-271q53 82 160 82q106 0 161 -76t55 -194t-58 -195t-163 -77q-104 0 -155 78v-260h-93zM168 262q0 -198 142 -198q67 0 103.5 52.5t36.5 141.5q0 87 -35.5 139t-101.5 52q-73 0 -109 -50t-36 -133v-4z" unicode="þ" glyph-name="thorn"/>
</font>
</defs>
</svg>
