<?xml version="1.0" encoding="UTF-8" standalone="no"?>
<!DOCTYPE svg  PUBLIC '-//W3C//DTD SVG 1.1//EN'  'http://www.w3.org/Graphics/SVG/1.1/DTD/svg11.dtd'>
<svg xmlns="http://www.w3.org/2000/svg" version="1.1">
<defs>
<font id="LyonText-Semibold" horiz-adv-x="737">
<font-face underline-thickness="50" bbox="-13 -273 1055 944" panose-1="2 0 5 4 8 0 0 2 0 4" font-weight="600" x-height="483" ascent="760" units-per-em="1000" font-family="Lyon Text Semibold" unicode-range="U+0020-00FE" underline-position="-150" cap-height="664" descent="-240"/>
<missing-glyph/>
<glyph unicode=" " glyph-name="space" horiz-adv-x="177"/>
<glyph unicode="!" d="M75 695h150l-49 -491h-54zM149 -11q-29 0 -51 22t-22 52t22 51.5t51 21.5q31 0 52.5 -21.5t21.5 -51.5t-21.5 -52t-52.5 -22z" glyph-name="exclam" horiz-adv-x="300"/>
<glyph unicode='&quot;' d="M109 485l-46 303h140l-51 -303h-43zM320 485l-46 303h140l-51 -303h-43z" glyph-name="quotedbl" horiz-adv-x="477"/>
<glyph unicode="#" d="M82 382v59h110l27 153h59l-27 -153h145l27 153h59l-27 -153h106v-59h-117l-30 -172h103v-59h-114l-26 -151h-59l26 151h-145l-26 -151h-59l26 151h-102v59h113l30 172h-99zM240 382l-30 -172h145l30 172h-145z" glyph-name="numbersign" horiz-adv-x="593"/>
<glyph unicode="$" d="M260 -125l8 116q-108 6 -190 50l-16 184h47l65 -139q46 -34 98 -42l16 216l-52 13q-75 18 -115.5 65t-40.5 111q0 75 62.5 135t174.5 68l10 132h50l-10 -131q73 -4 158 -39l7 -171h-46l-52 127q-31 23 -71 30l-16 -212l64 -15q154 -37 154 -166q0 -86 -77.5 -147 t-170.5 -69l-8 -116h-49zM337 249l-16 -207q48 5 79 33.5t31 71.5q0 41 -20.5 66t-73.5 36zM207 498q0 -76 91 -98l15 202q-47 -5 -76.5 -33.5t-29.5 -70.5z" glyph-name="dollar" horiz-adv-x="620"/>
<glyph unicode="%" d="M224 608q80 0 129 -52.5t49 -128.5q0 -83 -53 -139t-129 -56q-81 0 -130 51.5t-49 129.5q0 83 53.5 139t129.5 56zM195 -50l478 684h67l-479 -684h-66zM213 560q-34 0 -51.5 -32.5t-17.5 -82.5q0 -59 22.5 -112.5t64.5 -53.5q32 0 50 34t18 85q0 69 -25 115.5t-61 46.5z M715 356q81 0 130 -52t49 -129q0 -83 -53 -139t-130 -56q-81 0 -130 51.5t-49 130.5q0 82 53.5 138t129.5 56zM704 308q-33 0 -51 -33t-18 -82q0 -58 23 -111.5t65 -53.5q32 0 50 33.5t18 84.5q0 69 -25 115.5t-62 46.5z" glyph-name="percent" horiz-adv-x="932"/>
<glyph unicode="&amp;" d="M794 439l-84 -18l-123 -209q-19 -30 -22 -34q47 -51 78.5 -75t61.5 -25q21 -1 39 9t26 21l7 10l23 -23q-2 -5 -6.5 -12t-20 -26.5t-33 -34t-45.5 -26t-58 -11.5q-42 1 -75 21.5t-79 70.5q-102 -97 -219 -97q-103 0 -163 50.5t-60 130.5q0 38 16 71t46 59t52.5 40.5 t54.5 32.5q-52 52 -70 81.5t-17 72.5q0 71 60 120t150 49q86 0 131 -36t45 -92q0 -29 -12 -53.5t-38 -46t-44.5 -33.5t-54.5 -32q37 -36 89 -89q17 -18 44 -48l36 -40q23 40 31 55l77 149l-76 16v46h233v-44zM344 229q-42 44 -104 106q-73 -54 -73 -128q0 -58 41 -97.5 t111 -39.5q73 0 128 46q-53 61 -103 113zM237 554q0 -32 16 -53.5t78 -78.5q72 56 72 123q0 43 -24 68t-59 25q-34 0 -58.5 -22.5t-24.5 -61.5z" glyph-name="ampersand" horiz-adv-x="826"/>
<glyph unicode="&apos;" d="M109 485l-46 303h140l-51 -303h-43z" glyph-name="quotesingle" horiz-adv-x="266"/>
<glyph unicode="(" d="M345 -179h-75q-93 91 -146 208t-53 245q0 130 54 248.5t147 210.5h77q-86 -105 -127 -212.5t-41 -246.5q0 -134 40 -241.5t124 -211.5z" glyph-name="parenleft" horiz-adv-x="346"/>
<glyph unicode=")" d="M0 733h79q92 -90 143.5 -207t51.5 -246q0 -130 -54 -248.5t-147 -210.5h-77q86 105 127 212.5t41 246.5q0 134 -40 241.5t-124 211.5z" glyph-name="parenright" horiz-adv-x="346"/>
<glyph unicode="*" d="M373 519l-122 -17l3 -126l-26 -6l-51 115l-119 -44l-14 22l95 85l-78 98l15 19l111 -60l69 103l22 -8l-23 -123l119 -33z" glyph-name="asterisk" horiz-adv-x="410"/>
<glyph unicode="+" d="M516 205h-203v-205h-68v205h-203v64h203v205h68v-205h203v-64z" glyph-name="plus" horiz-adv-x="558"/>
<glyph unicode="," d="M27 -171q103 58 103 144q0 71 -73 97q-3 41 16.5 71.5t62.5 30.5t71 -33t28 -94q0 -80 -48.5 -145t-136.5 -106q-22 33 -23 35z" glyph-name="comma" horiz-adv-x="282"/>
<glyph unicode="-" d="M51 226v99h264v-99h-264z" glyph-name="hyphen" horiz-adv-x="366"/>
<glyph unicode="." d="M141 -10q-33 0 -57 24t-24 57t24 57t57 24t57 -24t24 -57t-24 -57t-57 -24z" glyph-name="period" horiz-adv-x="274"/>
<glyph unicode="/" d="M70 -205l-56 25l403 925l56 -25z" glyph-name="slash" horiz-adv-x="519"/>
<glyph unicode="0" d="M199 286q0 -35 7 -74.5t21.5 -80.5t44.5 -67.5t69 -26.5q52 0 82 50t30 135q0 107 -39.5 178t-100.5 71q-52 0 -83 -50.5t-31 -134.5zM328 -18q-128 0 -203.5 75t-75.5 193q0 114 81 196t196 82q125 0 201.5 -75t76.5 -193q0 -116 -79.5 -197t-196.5 -81z" glyph-name="zero" horiz-adv-x="652"/>
<glyph unicode="1" d="M307 525v-464l111 -14v-47h-366v47l120 13v357h-130v50l260 58h5z" glyph-name="one" horiz-adv-x="444"/>
<glyph unicode="2" d="M245 162l-70 -59h269v-103h-412v48l39 37q119 113 145 144q51 60 51 109q0 42 -26 68.5t-70 26.5q-49 0 -102 -55l-32 26q41 61 82.5 92.5t107.5 31.5q77 0 121 -42t44 -102q0 -58 -34 -105t-113 -117z" glyph-name="two" horiz-adv-x="478"/>
<glyph unicode="3" d="M125 -210q-45 0 -76 20.5t-31 54.5q0 21 14.5 35t35.5 20l87 -80q63 0 105 39t42 98t-49 100t-138 42v65l33 15q129 57 129 144q0 42 -25.5 66.5t-68.5 24.5q-53 0 -105 -56l-32 28q41 59 84 90.5t109 31.5q78 0 122.5 -40.5t44.5 -103.5q0 -54 -34.5 -92t-92.5 -73 l-26 -17v-3q79 -11 131 -59t52 -119q0 -69 -47.5 -123.5t-117.5 -81t-146 -26.5z" glyph-name="three" horiz-adv-x="475"/>
<glyph unicode="4" d="M327 -193v205h-314v53l373 474l64 -4v-434h132v-89h-132v-205h-123zM111 101h216v282z" glyph-name="four" horiz-adv-x="597"/>
<glyph unicode="5" d="M94 -210q-45 0 -76 20.5t-31 54.5q0 21 14.5 35t35.5 20l87 -79q65 5 106.5 46t41.5 109q0 132 -228 225l98 290h273v-114h-257l-27 -78q269 -98 269 -271q0 -81 -49.5 -142t-117.5 -88.5t-139 -27.5z" glyph-name="five" horiz-adv-x="463"/>
<glyph unicode="6" d="M555 684q-99 -36 -187 -106t-132 -165q60 32 115 32q98 0 159.5 -61t61.5 -154q0 -109 -78 -179t-183 -70q-112 0 -187 68t-75 192q0 100 47 185.5t123 143.5t157.5 95.5t166.5 56.5zM276 377q-30 0 -58 -11q-17 -54 -17 -112q0 -96 35 -158.5t93 -62.5q46 0 72 41 t26 108q0 84 -42 139.5t-109 55.5z" glyph-name="six" horiz-adv-x="616"/>
<glyph unicode="7" d="M103 -220l-79 41l370 564h-354v126h482v-20l-321 -539z" glyph-name="seven" horiz-adv-x="532"/>
<glyph unicode="8" d="M32 150q0 103 153 172l-6 5q-57 40 -87.5 82t-30.5 96q0 71 58.5 124.5t157.5 53.5q93 0 148 -44t55 -110q0 -93 -137 -159l8 -5q79 -56 113.5 -97t34.5 -100q0 -84 -70.5 -136t-163.5 -52q-104 0 -168.5 46t-64.5 124zM267 265l-45 31q-67 -59 -67 -136q0 -49 32 -86 t87 -37q45 0 73 24.5t28 60.5q0 39 -26.5 71.5t-81.5 71.5zM178 542q0 -33 20.5 -58.5t64.5 -56.5l47 -34q51 57 51 129q0 50 -26.5 79.5t-68.5 29.5q-38 0 -63 -25.5t-25 -63.5z" glyph-name="eight" horiz-adv-x="539"/>
<glyph unicode="9" d="M75 -190q99 38 183 108.5t125 169.5q-59 -32 -120 -32q-102 0 -161 61t-59 157q0 110 78.5 180.5t182.5 70.5q115 0 189 -71t74 -187q0 -82 -30.5 -156.5t-79.5 -129t-113 -98.5t-128.5 -71t-128.5 -41zM345 124q27 0 54 10q15 58 15 112q0 98 -36 162.5t-94 64.5 q-45 0 -70.5 -41.5t-25.5 -108.5q0 -86 42.5 -142.5t114.5 -56.5z" glyph-name="nine" horiz-adv-x="613"/>
<glyph unicode=":" d="M145 -10q-33 0 -57 24t-24 57t24 57t57 24t57 -24t24 -57t-24 -57t-57 -24zM146 330q-33 0 -57 24t-24 57q0 32 24 56.5t57 24.5t57 -24.5t24 -56.5q0 -33 -24 -57t-57 -24z" glyph-name="colon" horiz-adv-x="275"/>
<glyph unicode=";" d="M151 330q-33 0 -57 24t-24 57q0 32 24 56.5t57 24.5t57 -24.5t24 -56.5q0 -33 -24 -57t-57 -24zM31 -171q103 58 103 144q0 71 -72 97q-3 41 16 71.5t62 30.5t71 -33t28 -94q0 -80 -48 -145t-136 -106q-23 33 -24 35z" glyph-name="semicolon" horiz-adv-x="277"/>
<glyph unicode="&lt;" d="M515 415l-395 -180l395 -178v-71l-472 220v59l472 220v-70z" glyph-name="less" horiz-adv-x="558"/>
<glyph unicode="=" d="M42 293v61h474v-61h-474zM42 142v60h474v-60h-474z" glyph-name="equal" horiz-adv-x="558"/>
<glyph unicode="&gt;" d="M43 56l395 180l-395 178v71l472 -220v-59l-472 -220v70z" glyph-name="greater" horiz-adv-x="558"/>
<glyph unicode="?" d="M77 567v142l48 -8q104 -17 179.5 -87t75.5 -163q0 -58 -26 -93.5t-88 -52.5l-97 -27l2 -74h-52l-27 171l154 40q43 11 60 26t17 35q0 69 -211 88zM144 -11q-30 0 -52 22t-22 52t22 51.5t52 21.5q31 0 52.5 -21.5t21.5 -51.5t-21.5 -52t-52.5 -22z" glyph-name="question" horiz-adv-x="406"/>
<glyph unicode="@" d="M534 160l12 40h-5l-24 -37q-2 -4 -13.5 -21.5t-15.5 -23.5t-15.5 -22.5t-18 -23t-18 -19.5t-21 -18.5t-21 -12.5t-24 -10t-25.5 -3q-38 0 -58.5 24.5t-22.5 64.5q-2 64 32 131.5t83.5 116t103.5 80t92 31.5q29 0 52 -10l7 28h94l-91 -329q-26 -93 25 -93q56 0 117.5 75.5 t64.5 197.5q3 124 -82 208t-211 84q-77 0 -148.5 -32t-125 -88t-87 -136t-35.5 -172q-4 -153 87 -239t238 -86q65 0 159 26l-1 -33q-97 -37 -204 -37q-174 0 -276 98.5t-98 252.5q3 134 79 247.5t193.5 176.5t242.5 63q162 0 256 -93.5t91 -226.5q-4 -139 -100 -234.5 t-197 -95.5q-64 0 -88.5 40t-2.5 111zM407 100q20 0 58 46t73 108t47 105l9 30q-25 19 -47 19q-32 0 -70.5 -44t-65 -108.5t-26.5 -117.5q0 -38 22 -38z" glyph-name="at" horiz-adv-x="967"/>
<glyph unicode="A" d="M5 0v43l63 22l237 596l56 5l60 16l239 -621l73 -16v-45h-315v46l85 17l-54 152h-244l-50 -140l101 -29v-46h-251zM327 555l-97 -271h194l-96 271h-1z" glyph-name="A"/>
<glyph unicode="B" d="M37 0v45l87 18v537l-84 19v45l282 2q276 1 276 -151q0 -72 -59 -109.5t-151 -46.5v-3q108 -2 176.5 -44t68.5 -127q0 -95 -84 -141.5t-233 -45.5zM337 330h-69v-233q4 -25 29.5 -40t60.5 -15q53 0 89.5 34t36.5 95q0 65 -40 106t-107 53zM268 621v-249q90 6 139.5 34 t49.5 88t-48.5 93t-140.5 34z" glyph-name="B" horiz-adv-x="678"/>
<glyph unicode="C" d="M401 -21q-93 0 -164.5 28t-112.5 75.5t-61.5 103.5t-20.5 118q0 163 115.5 271t286.5 108q108 0 209 -54l6 -176h-46l-61 140q-52 32 -112 32q-100 0 -168 -74.5t-68 -199.5q0 -145 69.5 -228t175.5 -83q66 0 112 32l81 149h46l-25 -180q-131 -62 -262 -62z" glyph-name="C" horiz-adv-x="722"/>
<glyph unicode="D" d="M268 617l1 -520q5 -54 102 -51q102 2 161.5 80.5t59.5 191.5q0 85 -26 147t-72 95.5t-102.5 47t-123.5 9.5zM37 0v45l87 18v537l-84 19v45l333 5q175 2 277.5 -87t102.5 -230q0 -165 -118.5 -261.5t-309.5 -94.5z" glyph-name="D" horiz-adv-x="796"/>
<glyph unicode="E" d="M396 313h-123v-254h227l86 140h45l-34 -199h-557v45l86 18v537l-83 19v45h458l94 6v-188h-44l-53 128h-225v-242h123l27 83h41v-215h-43z" glyph-name="E" horiz-adv-x="672"/>
<glyph unicode="F" d="M391 311h-118v-248l112 -15v-48h-348v45l89 18v537l-83 19v45h452l95 6v-194h-44l-54 134h-219v-244h118l27 83h41v-215h-44z" glyph-name="F" horiz-adv-x="617"/>
<glyph unicode="G" d="M406 -21q-93 0 -165 27.5t-114.5 74t-63.5 103.5t-21 121q0 159 119.5 268.5t292.5 109.5q115 0 211 -54l6 -173h-47l-60 138q-53 31 -122 31q-103 0 -170.5 -79t-67.5 -200q0 -145 72.5 -225.5t178.5 -80.5q50 0 86 15v197l-88 18v42h274v-44l-52 -15v-207l-35 -15 q-124 -52 -234 -52z" glyph-name="G" horiz-adv-x="765"/>
<glyph unicode="H" d="M476 0v45l84 18v241h-290v-241l85 -18v-45h-318v45l87 18v537l-84 19v45h311v-45l-81 -19v-231h290v231l-80 19v45h310v-45l-83 -19v-537l86 -18v-45h-317z" glyph-name="H" horiz-adv-x="830"/>
<glyph unicode="I" d="M37 0v45l87 18v537l-84 19v45h313v-45l-83 -19v-537l86 -18v-45h-319z" glyph-name="I" horiz-adv-x="389"/>
<glyph unicode="J" d="M280 600v-517q0 -134 -62.5 -215.5t-191.5 -86.5l-10 44q40 9 65 30t36 57t14 67.5t3 84.5v536l-88 18v46h319v-45z" glyph-name="J" horiz-adv-x="397"/>
<glyph unicode="K" d="M37 0v45l87 18v537l-84 19v45h312v-45l-82 -19v-537l75 -18v-45h-308zM534 0l-255 358v7l51 17l209 215l-73 24v43h239v-43l-84 -24l-199 -202l246 -334l76 -16v-45h-210z" glyph-name="K" horiz-adv-x="743"/>
<glyph unicode="L" d="M270 59h196l91 163h46l-39 -222h-527v45l87 18v537l-84 19v45h323v-45l-93 -19v-541z" glyph-name="L" horiz-adv-x="624"/>
<glyph unicode="M" d="M34 0v45l86 21l5 534l-87 19v45h273l190 -425l156 381l6 44h273v-45l-83 -19l4 -538l86 -17v-45h-325v46l91 17l3 513l-201 -470l-28 -85h-51l-28 84l-209 469l-3 -497l121 -33v-44h-279z" glyph-name="M" horiz-adv-x="976"/>
<glyph unicode="N" d="M698 -5h-84l-418 504l3 -423l125 -33v-43h-282v45l86 21l1 521l-92 33v44h211l379 -458l-2 380l-125 35v43h279v-45l-84 -23v-501z" glyph-name="N" horiz-adv-x="807"/>
<glyph unicode="O" d="M405 34q84 0 132 79.5t48 199.5q0 129 -57 221.5t-146 92.5q-86 0 -133 -78t-47 -197q0 -131 56 -224.5t147 -93.5zM394 683q161 0 255 -97t94 -246q0 -163 -101.5 -263t-250.5 -100q-152 0 -249.5 94t-97.5 249q0 164 100.5 263.5t249.5 99.5z" glyph-name="O" horiz-adv-x="787"/>
<glyph unicode="P" d="M313 311q72 7 115 46.5t43 105.5q0 67 -50.5 112t-150.5 45v-557l116 -18v-45h-349v45l87 18v537l-84 19v45l269 1q147 1 228.5 -47t81.5 -137q0 -72 -48 -123t-117 -71.5t-141 -12.5v37z" glyph-name="P" horiz-adv-x="637"/>
<glyph unicode="Q" d="M394 683q161 0 255.5 -96t94.5 -243q0 -131 -71 -224t-185 -122q101 -75 173 -110.5t157 -35.5q90 0 169 48l21 -27q-26 -26 -49 -44.5t-82 -39.5t-130 -21q-67 0 -129 17.5t-126.5 56t-109.5 72t-118 93.5q-101 34 -160 118.5t-59 200.5q0 159 101 258t248 99zM383 627 q-87 0 -135 -78.5t-48 -197.5q0 -82 22.5 -152.5t70.5 -117t113 -46.5q86 0 134 78.5t48 197.5q0 81 -24 152t-72 117.5t-109 46.5z" glyph-name="Q" horiz-adv-x="788"/>
<glyph unicode="R" d="M37 0v45l87 18v538l-84 18v45l275 2q139 2 219 -43t80 -132q0 -111 -144 -169v-1l182 -261l82 -16v-44h-200l-143 206l-53 80l-68 -3v-220l75 -18v-45h-308zM270 620v-290h61q61 10 98.5 48t37.5 92q0 69 -50.5 110t-146.5 40z" glyph-name="R" horiz-adv-x="719"/>
<glyph unicode="S" d="M49 39l-14 190h45l71 -155q44 -35 114 -35q51 0 83 28.5t32 77.5q0 75 -91 112l-90 37q-76 31 -112 74t-36 111q0 83 70.5 144.5t187.5 61.5q87 0 175 -44l6 -179h-44l-59 140q-35 28 -86 28t-82.5 -29t-31.5 -71q0 -38 21.5 -63t68.5 -45l100 -43q81 -35 113.5 -77.5 t32.5 -101.5q0 -96 -81.5 -158t-181.5 -62q-118 0 -211 59z" glyph-name="S" horiz-adv-x="559"/>
<glyph unicode="T" d="M122 664h448l85 7l8 -195h-45l-57 134h-142v-547l100 -18v-45h-346v45l100 18v547h-141l-57 -134h-45l7 195z" glyph-name="T" horiz-adv-x="693"/>
<glyph unicode="U" d="M389 -22q-153 0 -220 70.5t-67 213.5v338l-84 19v45h313v-45l-82 -19v-335q0 -99 40 -155.5t125 -56.5q180 0 177 222l-3 314l-121 32v43h281v-45l-83 -23v-321q-1 -139 -74 -218t-202 -79z" glyph-name="U" horiz-adv-x="763"/>
<glyph unicode="V" d="M311 -11l-240 611l-68 19v45h308v-45l-81 -20l169 -460l168 451l-108 28v46h252v-45l-68 -23l-239 -607h-93z" glyph-name="V" horiz-adv-x="714"/>
<glyph unicode="W" d="M685 -9l-154 439l-149 -439h-105l-203 609l-71 19v45h309v-45l-81 -19l141 -461l128 382l-28 80l-79 18v45h312v-46l-79 -19l151 -457l131 447l-93 29v46h240v-45l-72 -25l-194 -603h-104z" glyph-name="W" horiz-adv-x="1058"/>
<glyph unicode="X" d="M12 0v46l70 17l216 262l-186 276l-69 18v45h322v-45l-78 -18l120 -186h2l133 179l-94 24v46h254v-45l-70 -19l-192 -235l203 -303l73 -17v-45h-331v46l82 17l-137 214h-2l-153 -211l87 -21v-45h-250z" glyph-name="X" horiz-adv-x="728"/>
<glyph unicode="Y" d="M593 597l-183 -317v-217l93 -18v-45h-333v45l93 18v188l-193 351l-64 17v45h314v-44l-81 -19l137 -279l145 272l-90 25v45h235v-44z" glyph-name="Y" horiz-adv-x="672"/>
<glyph unicode="Z" d="M26 0v47l386 559h-256l-65 -145h-44l17 210l88 -7h458v-11l-409 -594h271l90 163h44l-37 -228l-94 6h-449z" glyph-name="Z" horiz-adv-x="633"/>
<glyph unicode="[" d="M316 -181h-204v914h204v-50h-100v-814h100v-50z" glyph-name="bracketleft" horiz-adv-x="355"/>
<glyph unicode="\" d="M505 -180l-56 -25l-403 925l56 25z" glyph-name="backslash" horiz-adv-x="519"/>
<glyph unicode="]" d="M40 733h204v-914h-204v50h100v814h-100v50z" glyph-name="bracketright" horiz-adv-x="355"/>
<glyph unicode="^" d="M92 468h-51l157 288h74l159 -288h-57l-143 204z" glyph-name="asciicircum" horiz-adv-x="472"/>
<glyph unicode="_" d="M4 -216v70h400v-70h-400z" glyph-name="underscore" horiz-adv-x="408"/>
<glyph unicode="`" d="M227 565l-108 181v18h108l54 -199h-54z" glyph-name="grave" horiz-adv-x="400"/>
<glyph unicode="a" d="M177 -14q-55 0 -95.5 35.5t-40.5 93.5t40.5 90t120.5 52l116 28v41q0 55 -22.5 86.5t-65.5 31.5q-34 0 -55 -13l-2 -103q-23 -10 -59 -10q-56 0 -56 51q0 43 68.5 86t153.5 43q92 0 132 -40t40 -126v-242q0 -21 7.5 -27.5t29.5 -6.5h43v-35q-71 -34 -122 -34 q-77 0 -88 86h-5q-44 -51 -63 -64q-33 -23 -77 -23zM248 71q40 0 70 35v136l-64 -20q-43 -14 -61.5 -31.5t-18.5 -45.5q0 -34 21.5 -54t52.5 -20z" glyph-name="a" horiz-adv-x="545"/>
<glyph unicode="b" d="M255 -15q-82 0 -145 26l-35 14v628l-67 18v43l201 32v-322q60 73 147 73q84 0 143 -57t59 -172q0 -119 -91.5 -201t-211.5 -82zM287 414q-41 0 -78 -28v-314q36 -35 87 -35q54 0 91.5 51t37.5 142q0 84 -37.5 134t-100.5 50z" glyph-name="b" horiz-adv-x="588"/>
<glyph unicode="c" d="M261 -15q-101 0 -165 66t-64 173q0 123 81 199.5t188 76.5q69 0 112 -33.5t43 -80.5q0 -30 -18 -48t-51 -18l-42 4l-14 111q-22 11 -48 11q-56 0 -90 -48.5t-34 -112.5q0 -92 47.5 -146.5t119.5 -54.5q30 0 58.5 13t42.5 27l14 13l22 -22q-16 -24 -22 -32t-28 -32 t-40 -34.5t-48 -21t-64 -10.5z" glyph-name="c" horiz-adv-x="489"/>
<glyph unicode="d" d="M277 678v44l237 24v-674l76 -17v-44l-166 -23l-32 73q-34 -37 -68 -56.5t-85 -19.5q-93 0 -150 67t-57 171q0 123 81 199t193 76q37 0 74 -11v169zM315 71q35 0 65 19v293q-39 58 -97 58q-50 0 -82.5 -42.5t-32.5 -120.5q0 -94 38 -150.5t109 -56.5z" glyph-name="d" horiz-adv-x="612"/>
<glyph unicode="e" d="M267 -15q-60 0 -107 22t-74 58t-40.5 76.5t-13.5 82.5q0 122 77 199t180 77q97 0 147 -64t52 -172h-334q6 -88 54.5 -134t122.5 -46q36 0 70.5 15t50.5 31l16 15l23 -21q-2 -3 -15 -21t-22.5 -29.5t-29.5 -30t-40.5 -30t-51 -20t-65.5 -8.5zM263 444q-41 0 -71 -35 t-37 -92h195q0 54 -21.5 90.5t-65.5 36.5z" glyph-name="e" horiz-adv-x="531"/>
<glyph unicode="f" d="M25 0v45l66 17v364h-70v47l69 22v3q0 98 73.5 175t169.5 77q64 0 104 -31.5t40 -72.5q0 -61 -67 -61l-32 4l-28 97q-20 10 -43 10q-85 0 -85 -135l1 -78h130v-61h-129v-360l90 -17v-45h-289z" glyph-name="f" horiz-adv-x="379"/>
<glyph unicode="g" d="M539 413l-118 10l-1 -3q47 -43 47 -109q0 -75 -61.5 -126t-152.5 -51q-48 0 -90 14q-25 -23 -25 -45q0 -29 52 -31l175 -9q81 -3 121 -37t40 -86q0 -79 -92 -143t-221 -64q-90 0 -143.5 34.5t-53.5 85.5q0 70 92 110l13 6v3l-77 73q21 68 78 124q-80 51 -80 144 q0 81 62 133t151 52q55 0 130 -28l154 18v-75zM265 186q38 0 58.5 31.5t20.5 74.5q0 73 -28.5 115.5t-70.5 42.5q-38 0 -58.5 -28t-20.5 -75q0 -71 28.5 -116t70.5 -45zM370 -53l-213 10q-20 -26 -20 -59q0 -38 38.5 -64.5t104.5 -26.5q74 0 113.5 26.5t39.5 61.5 q0 46 -63 52z" glyph-name="g" horiz-adv-x="554"/>
<glyph unicode="h" d="M350 0v46l55 15v242q-2 55 -24 82.5t-70 26.5q-48 0 -89 -33v-318l60 -16v-45h-259v45l66 17v594l-69 21v41l202 28v-331q74 85 162 85q79 0 116.5 -39.5t37.5 -128.5v-271l67 -16v-45h-255z" glyph-name="h" horiz-adv-x="623"/>
<glyph unicode="i" d="M23 0v46l67 16v335l-64 17v46l197 40v-438l67 -16v-46h-267zM154 594q-35 0 -58 22.5t-23 55.5t23 55.5t58 22.5t58 -22.5t23 -55.5q0 -32 -23.5 -55t-57.5 -23z" glyph-name="i" horiz-adv-x="312"/>
<glyph unicode="j" d="M10 -247l-14 42q91 41 91 247v352l-64 20v46l197 40v-448q0 -120 -45 -196q-54 -86 -165 -103zM151 594q-35 0 -58 22.5t-23 55.5q0 32 23.5 55t57.5 23q35 0 58 -22.5t23 -55.5t-23 -55.5t-58 -22.5z" glyph-name="j" horiz-adv-x="301"/>
<glyph unicode="k" d="M90 62v591l-68 21v41l202 31v-685l62 -16v-45h-261v45zM507 -18q-40 -1 -66 16t-56 59l-153 220v7l51 14l120 122l-80 21v42h248v-40l-73 -19l-139 -126l226 -282q-2 -4 -6.5 -9.5t-24.5 -15t-47 -9.5z" glyph-name="k" horiz-adv-x="591"/>
<glyph unicode="l" d="M25 0v45l65 17v591l-67 18v43l201 32v-685l70 -16v-45h-269z" glyph-name="l" horiz-adv-x="316"/>
<glyph unicode="m" d="M666 0v46l54 15v244q-1 53 -21 80.5t-67 26.5q-45 0 -93 -37v-314l59 -16v-45h-247v46l55 15v244q-2 53 -22 80.5t-67 26.5q-50 0 -93 -38v-313l60 -16v-45h-259v46l66 16v332l-68 15v39l168 53h5l22 -90h3q67 89 166 89q116 0 142 -92h3q66 92 171 92q151 0 151 -159 v-280l67 -16v-45h-255z" glyph-name="m" horiz-adv-x="940"/>
<glyph unicode="n" d="M25 0v45l66 17v332l-68 15v39l168 53h5l22 -90h1q76 89 167 89q78 0 115.5 -40t37.5 -128v-271l68 -16v-45h-256v46l55 15v242q-2 55 -24 82.5t-69 26.5q-48 0 -89 -33v-318l60 -16v-45h-259z" glyph-name="n" horiz-adv-x="625"/>
<glyph unicode="o" d="M172 277q0 -34 6 -71.5t19 -77t40 -65t64 -25.5q47 0 73 46.5t26 121.5q0 107 -36 172.5t-92 65.5q-48 0 -74 -46t-26 -121zM286 -17q-121 0 -189 72t-68 178q0 112 74 189t183 77q117 0 187 -67.5t70 -180.5t-73.5 -190.5t-183.5 -77.5z" glyph-name="o" horiz-adv-x="572"/>
<glyph unicode="p" d="M17 -240v45l66 17v572l-68 15v39l168 53h5l21 -87q63 83 156 83q81 0 139.5 -57.5t58.5 -170.5q0 -121 -83.5 -202.5t-201.5 -81.5q-30 0 -62 9v-171l107 -19v-44h-306zM291 413q-37 0 -75 -26v-311q30 -38 88 -38q52 0 89 49.5t37 137.5q0 86 -37.5 137t-101.5 51z" glyph-name="p" horiz-adv-x="593"/>
<glyph unicode="q" d="M272 -240v43l108 20v222q-60 -60 -138 -60q-92 0 -151 68.5t-59 176.5q0 120 83 194t190 74q67 0 129 -39l73 41h7v-677l67 -18v-45h-309zM319 69q31 0 61 17v307q-37 48 -94 48q-52 0 -83.5 -45.5t-31.5 -120.5q0 -91 39.5 -148.5t108.5 -57.5z" glyph-name="q" horiz-adv-x="591"/>
<glyph unicode="r" d="M25 0v45l66 17v332l-68 13v41l168 52h6l21 -112h2l16 24q29 44 55.5 66t58.5 22t50 -18t18 -47q0 -46 -46 -88l-104 46q-21 -14 -45 -38v-295l92 -15v-45h-290z" glyph-name="r" horiz-adv-x="423"/>
<glyph unicode="s" d="M217 -19q-74 0 -164 40l-17 156h42l54 -109q34 -36 88 -36q35 0 57 17.5t22 46.5q0 27 -20 48t-67 42l-54 24q-55 25 -80 57.5t-25 80.5q0 64 56.5 108t138.5 44q74 0 147 -34l5 -137h-40l-40 89q-29 31 -74 31q-32 0 -51.5 -17t-19.5 -44q0 -24 16 -42t58 -36l54 -23 q68 -29 95.5 -62.5t27.5 -81.5q0 -67 -61 -114.5t-148 -47.5z" glyph-name="s" horiz-adv-x="463"/>
<glyph unicode="t" d="M189 -13q-116 0 -114 121l4 318h-70v48l72 21l84 131h43v-143h127v-62h-125v-274q0 -47 19.5 -62t53.5 -15l58 4l9 -41q-8 -5 -22.5 -12.5t-57 -20.5t-81.5 -13z" glyph-name="t" horiz-adv-x="357"/>
<glyph unicode="u" d="M441 -16l-40 87q-68 -87 -167 -87q-66 0 -109 41.5t-43 125.5v262l-68 16v44l202 22v-312q2 -112 90 -112q53 0 88 35v307l-77 15v44l211 22v-420l74 -17v-44z" glyph-name="u" horiz-adv-x="615"/>
<glyph unicode="v" d="M320 -13h-100l-169 437l-49 14v45h263v-46l-72 -13l103 -291l5 -22h2q5 17 7 22l108 283l-68 21v46h195v-46l-51 -13z" glyph-name="v" horiz-adv-x="549"/>
<glyph unicode="w" d="M480 487l112 -339l8 -28h2l8 28l81 265l-73 24v46h201v-46l-51 -13l-145 -436h-98l-101 283l-11 32h-1q-6 -19 -11 -32l-106 -283h-105l-138 436l-48 14v45h266v-46l-75 -13l73 -276l8 -34h2q6 20 11 34l121 339h70z" glyph-name="w" horiz-adv-x="822"/>
<glyph unicode="x" d="M554 0h-273v45l55 14l-88 136h-2l-86 -134l50 -16v-45h-196v45l60 14l140 185l-130 182l-51 12v45h260v-45l-51 -9l78 -124h2l79 122l-49 11v45h184v-43l-55 -13l-126 -169l138 -198l61 -15v-45z" glyph-name="x" horiz-adv-x="565"/>
<glyph unicode="y" d="M421 418l-69 20v45h183v-46l-44 -14l-214 -537q-33 -82 -61 -113.5t-73 -31.5q-34 0 -58.5 21.5t-24.5 53.5q0 31 19 49t48 18q40 0 66 -48h3l46 108l-195 481l-44 14v45h260v-46l-69 -13l110 -317h4z" glyph-name="y" horiz-adv-x="538"/>
<glyph unicode="z" d="M363 0h-334v45l270 385h-156l-58 -115h-39l7 175l93 -7h329v-21l-288 -407h176l66 123h41l-19 -182z" glyph-name="z" horiz-adv-x="509"/>
<glyph unicode="{" d="M145 277v-2q93 -22 97 -115l7 -176q3 -76 22 -99t75 -23v-43h-15q-102 0 -146 43.5t-44 131.5v174q0 74 -58 76l-38 1v62l38 1q58 2 58 76v174q0 88 44 131.5t146 43.5h15v-43q-56 0 -75 -23t-22 -99l-7 -176q-4 -93 -97 -115z" glyph-name="braceleft" horiz-adv-x="361"/>
<glyph unicode="|" d="M154 -201h-64v935h64v-935z" glyph-name="bar" horiz-adv-x="244"/>
<glyph unicode="}" d="M216 275v2q-93 22 -97 115l-7 176q-3 76 -22 99t-75 23v43h15q103 0 147 -43.5t43 -131.5l-1 -174q0 -74 59 -76l38 -1v-62l-38 -1q-59 -2 -59 -76l1 -174q1 -88 -43 -131.5t-147 -43.5h-15v43q56 0 75 23t22 99l7 176q4 93 97 115z" glyph-name="braceright" horiz-adv-x="361"/>
<glyph unicode="~" d="M70 197l-39 18l5 14q20 57 49.5 84.5t64 27.5t75.5 -14l44 -16q66 -24 92 -16.5t46 56.5l37 -18l-5 -16q-19 -62 -49 -90.5t-67 -26.5t-84 18l-44 16q-60 22 -83 15t-42 -52z" glyph-name="asciitilde" horiz-adv-x="471"/>
<glyph unicode="¡" d="M225 -128h-150l48 491h55zM151 578q29 0 51 -22t22 -52t-22 -51.5t-51 -21.5q-31 0 -52.5 21.5t-21.5 51.5t21.5 52t52.5 22z" glyph-name="exclamdown" horiz-adv-x="300"/>
<glyph unicode="¢" d="M219 -125l12 114q-86 13 -138 76t-52 159q0 115 73 190t174 85l14 119h46l-14 -119q61 -5 99.5 -37.5t38.5 -73.5q0 -27 -16 -43t-42 -16l-38 4l-11 103q-26 11 -36 13l-42 -373q17 -4 40 -4q20 0 40.5 6.5t35.5 16t27 18.5t18 15l7 7l22 -23q-17 -25 -29 -39.5 t-37.5 -38.5t-59 -36.5t-74.5 -12.5l-12 -110h-46zM163 268q0 -129 80 -175l40 357q-51 -8 -85.5 -59t-34.5 -123z" glyph-name="cent" horiz-adv-x="498"/>
<glyph unicode="£" d="M144 248v59h129l20 83q14 64 49 116.5t76.5 83t81 46.5t68.5 16q50 0 86 -29.5t36 -74.5q0 -53 -87 -62q-9 53 -27.5 82t-43.5 29q-55 0 -88 -147l-32 -143h182v-59h-196q-34 -135 -152 -211q62 -31 115 -68l39 -27q43 -30 56 -38.5t37.5 -23.5t37.5 -19t26 -4 q15 0 24 11.5t13 37.5t4.5 40.5t1.5 46.5q86 0 89 -54q3 -46 -56 -94.5t-138 -48.5q-122 0 -263 138l-66 64q-48 -18 -88 -18q-68 0 -68 51q0 24 22.5 40.5t52.5 16.5q46 0 112 -28q31 42 50 131l13 57h-116z" glyph-name="sterling" horiz-adv-x="705"/>
<glyph unicode="¥" d="M84 257v50h158l-162 268l-59 16v46h302v-45l-75 -18l123 -231h3l125 224l-85 25v45h224v-45l-67 -23l-158 -262h162v-50h-174v-71h174v-50h-174v-73l94 -18v-45h-331v45l94 18v73h-174v50h174v71h-174z" glyph-name="yen" horiz-adv-x="659"/>
<glyph unicode="¦" d="M154 313h-64v421h64v-421zM154 -201h-64v420h64v-420z" glyph-name="brokenbar" horiz-adv-x="244"/>
<glyph unicode="§" d="M307 -106q1 38 -20.5 78t-72.5 109l-72 96q-79 105 -79 188q0 60 39.5 118t96 97t117.5 62.5t107 23.5q40 0 64.5 -19.5t24.5 -47.5q0 -22 -15.5 -38.5t-39.5 -16.5l-94 53q-48 -7 -87 -23q-1 -8 -1 -22q-1 -38 20 -77.5t72 -106.5l73 -96q79 -104 79 -189 q0 -79 -65.5 -151t-148 -110.5t-146.5 -38.5q-40 0 -64 19.5t-24 46.5q0 23 15 39.5t39 16.5l94 -52q43 5 87 23q1 7 1 18zM152 405q0 -74 79 -177l64 -84q41 -54 59 -89.5t18 -70.5q0 -36 -20 -76h11q66 52 66 136q0 74 -78 177l-64 84q-42 55 -60 90t-17 70q0 36 20 76 h-11q-67 -53 -67 -136z" glyph-name="section" horiz-adv-x="591"/>
<glyph unicode="¨" d="M92 594q-28 0 -48 20.5t-20 48.5t20 48.5t48 20.5t48.5 -20.5t20.5 -48.5q0 -29 -20.5 -49t-48.5 -20zM307 594q-29 0 -49 20t-20 49q0 28 20.5 48.5t48.5 20.5t48.5 -20.5t20.5 -48.5t-20.5 -48.5t-48.5 -20.5z" glyph-name="dieresis" horiz-adv-x="400"/>
<glyph unicode="©" d="M60 327q0 144 101 244t245 100t244.5 -100t100.5 -244t-101 -244.5t-245 -100.5t-244.5 100.5t-100.5 244.5zM99 327q0 -129 89.5 -219.5t216.5 -90.5t217 90.5t90 219.5t-90 219.5t-217 90.5t-216.5 -90.5t-89.5 -219.5zM424 133q-106 0 -157.5 55t-51.5 135 q0 84 63.5 142t156.5 58q48 0 115 -24l4 -108h-29l-37 71q-31 22 -64 22q-45 0 -74.5 -37.5t-29.5 -107.5q0 -74 34 -119.5t91 -45.5q23 0 45 10l45 84h30l-12 -110q-84 -25 -129 -25z" glyph-name="copyright" horiz-adv-x="811"/>
<glyph unicode="ª" d="M144 242q-44 0 -75.5 28t-31.5 74q0 47 31.5 71.5t94.5 40.5l93 23v30q0 42 -18 68t-51 26q-22 0 -43 -9l-1 -83q-16 -10 -46 -10q-45 0 -45 42q0 36 54 70t122 34q74 0 105 -33t31 -103v-185q0 -17 6 -22.5t24 -5.5h32v-29q-54 -26 -96 -26q-34 0 -50 17.5t-21 49.5h-5 q-20 -25 -30 -35t-32 -21.5t-48 -11.5zM201 311q33 0 55 25v108l-48 -13q-34 -11 -48.5 -25.5t-14.5 -36.5q0 -27 16.5 -42.5t39.5 -15.5z" glyph-name="ordfeminine" horiz-adv-x="445"/>
<glyph unicode="«" d="M286 471l34 -29l-152 -201l152 -202l-34 -30l-232 215v28zM542 471l34 -29l-152 -201l152 -202l-34 -30l-232 215v28z" glyph-name="guillemotleft" horiz-adv-x="667"/>
<glyph unicode="¬" d="M42 266h474v-206h-62v148h-412v58z" glyph-name="logicalnot" horiz-adv-x="558"/>
<glyph unicode="®" d="M11 543q0 89 64 151t155 62q90 0 152.5 -61.5t62.5 -151.5q0 -89 -64 -150.5t-155 -61.5q-90 0 -152.5 61t-62.5 151zM47 543q0 -77 52 -129.5t128 -52.5q77 0 129.5 52.5t52.5 129.5t-52.5 129t-129.5 52q-76 0 -128 -52t-52 -129zM112 439v21l29 6v166l-27 6v22l104 2 q111 0 111 -62q0 -41 -55 -60v-2l56 -72l27 -6v-21h-80l-31 43l-31 40h-14v-57l23 -5v-21h-112zM201 638v-91h34q31 12 31 44q0 46 -65 47z" glyph-name="registered" horiz-adv-x="456"/>
<glyph unicode="¯" d="M55 619v72h290v-72h-290z" glyph-name="macron" horiz-adv-x="400"/>
<glyph unicode="°" d="M3 603q0 62 43.5 104.5t105.5 42.5t105 -42.5t43 -104.5q0 -63 -43 -105.5t-105 -42.5q-63 0 -106 42.5t-43 105.5zM60 603q0 -42 26 -70t66 -28q39 0 65.5 28.5t26.5 69.5t-26.5 69.5t-65.5 28.5q-40 0 -66 -28t-26 -70z" glyph-name="degree" horiz-adv-x="303"/>
<glyph unicode="±" d="M516 346h-203v-205h-68v205h-203v64h203v205h68v-205h203v-64zM516 0h-474v64h474v-64z" glyph-name="plusminus" horiz-adv-x="557"/>
<glyph unicode="´" d="M172 764h109v-18l-108 -181h-54z" glyph-name="acute" horiz-adv-x="400"/>
<glyph unicode="¶" d="M253 -204q-73 0 -122 41t-49 99q0 36 20.5 56.5t51.5 20.5q26 0 44.5 -18.5t19.5 -47.5l-31 -68v-8q24 -30 75 -30q58 0 90 41.5t32 120.5v610h-74v-417h-47q-97 0 -165.5 68.5t-68.5 165.5t68.5 165.5t165.5 68.5h285v-45l-83 -19v-575q0 -117 -62 -173t-150 -56z" glyph-name="paragraph" horiz-adv-x="573"/>
<glyph unicode="·" d="M159 191q-33 0 -57 24t-24 56q0 34 24 58t57 24t57 -24t24 -58q0 -32 -24 -56t-57 -24z" glyph-name="periodcentered" horiz-adv-x="318"/>
<glyph unicode="¸" d="M117 -264l-9 35q27 10 42.5 16.5t31.5 23t16 37.5q0 32 -44 58l63 98h47l-34 -60q31 -6 51.5 -26.5t20.5 -50.5q0 -100 -185 -131z" glyph-name="cedilla" horiz-adv-x="400"/>
<glyph unicode="º" d="M145 470q0 -27 4.5 -56t14.5 -60t30.5 -51t48.5 -20q36 0 56.5 35.5t20.5 94.5q0 84 -27.5 136.5t-71.5 52.5q-37 0 -56.5 -36t-19.5 -96zM233 237q-97 0 -150 57t-53 142q0 90 58 151t145 61q93 0 148 -54t55 -144t-58 -151.5t-145 -61.5z" glyph-name="ordmasculine" horiz-adv-x="466"/>
<glyph unicode="»" d="M125 9l-35 30l152 199l-152 203l35 30l232 -215v-28zM381 9l-35 30l152 199l-152 203l35 30l232 -215v-28z" glyph-name="guillemotright" horiz-adv-x="666"/>
<glyph unicode="¼" d="M252 669v-347l94 -9v-42h-314v42l103 10v254h-105l-3 40l219 52h6zM244 -84l-48 31l539 779l48 -30zM530 87v42l244 275l63 -11v-241h90v-65h-90v-87h-109v87h-198zM606 152h122v137z" glyph-name="onequarter" horiz-adv-x="947"/>
<glyph unicode="½" d="M238 -84l-48 31l539 779l48 -30zM252 669v-347l94 -9v-42h-314v42l103 10v254h-105l-3 40l219 52h6zM591 0v37l78 65q74 61 102.5 95t29.5 63q0 29 -20 48.5t-53 19.5q-47 0 -103 -56l-28 29q40 52 80 78.5t98 26.5q61 0 98.5 -30.5t38.5 -84.5q0 -24 -8.5 -44 t-35.5 -45.5t-44.5 -39t-68.5 -51.5l-35 -26h212v-85h-341z" glyph-name="onehalf" horiz-adv-x="971"/>
<glyph unicode="¾" d="M167 253q-65 0 -101 22.5t-36 57.5q0 21 16 35.5t46 18.5l44 -77q19 -10 52 -10q34 0 57 17.5t23 50.5q0 34 -33 54.5t-95 19.5v41l17 5q88 25 88 77q0 19 -15 31t-41 12q-35 0 -59 -12.5t-55 -41.5l-29 28q40 49 83 71.5t100 22.5q59 0 95 -23t36 -62q0 -59 -99 -93v-4 q62 -8 94.5 -33.5t32.5 -64.5q0 -63 -65 -103t-156 -40zM260 -84l-48 31l539 779l48 -30zM542 87v42l244 275l63 -11v-241h90v-65h-90v-87h-109v87h-198zM618 152h122v137z" glyph-name="threequarters" horiz-adv-x="959"/>
<glyph unicode="¿" d="M329 -1v-142l-48 8q-103 17 -179 87.5t-76 162.5q0 58 26 93.5t88 53.5l97 26l-2 74h52l27 -171l-154 -40q-43 -12 -60 -26.5t-17 -34.5q0 -71 211 -88zM262 577q30 0 52 -22t22 -51q0 -30 -22 -52t-52 -22q-31 0 -52.5 22t-21.5 52t22 51.5t52 21.5z" glyph-name="questiondown" horiz-adv-x="406"/>
<glyph unicode="À" d="M5 0v43l63 22l237 596l56 5l60 16l239 -621l73 -16v-45h-315v46l85 17l-54 152h-244l-50 -140l101 -29v-46h-251zM327 555l-97 -271h194l-96 271h-1zM212 875h121l73 -139h-69l-125 118v21z" glyph-name="Agrave"/>
<glyph unicode="Á" d="M5 0v43l63 22l237 596l56 5l60 16l239 -621l73 -16v-45h-315v46l85 17l-54 152h-244l-50 -140l101 -29v-46h-251zM327 555l-97 -271h194l-96 271h-1zM400 875h121v-21l-125 -118h-69z" glyph-name="Aacute"/>
<glyph unicode="Â" d="M5 0v43l63 22l237 596l56 5l60 16l239 -621l73 -16v-45h-315v46l85 17l-54 152h-244l-50 -140l101 -29v-46h-251zM327 555l-97 -271h194l-96 271h-1zM270 736h-59l106 135h103l108 -135h-63l-98 67z" glyph-name="Acircumflex"/>
<glyph unicode="Ã" d="M5 0v43l63 22l237 596l56 5l60 16l239 -621l73 -16v-45h-315v46l85 17l-54 152h-244l-50 -140l101 -29v-46h-251zM327 555l-97 -271h194l-96 271h-1zM376 756l-33 11q-47 16 -68 17.5t-32 -8t-24 -38.5l-35 14l4 13q17 55 42 80t55.5 24.5t70.5 -13.5l38 -13 q65 -20 85 -13.5t39 50.5l36 -12l-4 -15q-15 -57 -40 -84t-58 -26.5t-76 13.5z" glyph-name="Atilde"/>
<glyph unicode="Ä" d="M5 0v43l63 22l237 596l56 5l60 16l239 -621l73 -16v-45h-315v46l85 17l-54 152h-244l-50 -140l101 -29v-46h-251zM327 555l-97 -271h194l-96 271h-1zM249 737q-28 0 -48 20t-20 48q0 29 20 49.5t48 20.5t48.5 -21t20.5 -49t-20.5 -48t-48.5 -20zM486 737q-28 0 -48.5 20 t-20.5 48t20.5 49t48.5 21t48.5 -21t20.5 -49t-20.5 -48t-48.5 -20z" glyph-name="Adieresis"/>
<glyph unicode="Å" d="M5 0v43l63 22l237 596l56 5l60 16l239 -621l73 -16v-45h-315v46l85 17l-54 152h-244l-50 -140l101 -29v-46h-251zM327 555l-97 -271h194l-96 271h-1zM249 828q0 49 34.5 82.5t84.5 33.5q51 0 85 -33t34 -83t-34.5 -83.5t-84.5 -33.5q-51 0 -85 33t-34 84zM302 828 q0 -30 19 -49.5t47 -19.5t47 19.5t19 49.5t-19 49t-47 19t-47 -19t-19 -49z" glyph-name="Aring"/>
<glyph unicode="Æ" d="M742 299h-122v-240h227l85 140h46l-34 -199h-552v45l86 18v236h-197l-118 -223l102 -30v-46h-260v43l66 25l304 525l-107 26v45h580l94 6v-188h-45l-52 128h-225v-257h122l28 83h41v-215h-44zM478 610h-17l-151 -258h168v258z" glyph-name="AE" horiz-adv-x="1018"/>
<glyph unicode="Ç" d="M281 -273l-9 35q27 10 42.5 16.5t31.5 23t16 37.5q0 32 -44 58l53 83q-85 5 -150.5 34.5t-103 75.5t-56.5 100t-19 114q0 163 115.5 271t286.5 108q108 0 209 -54l6 -176h-46l-61 140q-52 32 -112 32q-100 0 -168 -74.5t-68 -199.5q0 -145 69.5 -228t175.5 -83 q66 0 112 32l81 149h46l-25 -180q-121 -58 -244 -62l-25 -44q32 -6 53 -26.5t21 -49.5q0 -100 -187 -132z" glyph-name="Ccedilla" horiz-adv-x="722"/>
<glyph unicode="È" d="M198 875h121l73 -139h-69l-125 118v21zM396 313h-123v-254h227l86 140h45l-34 -199h-557v45l86 18v537l-83 19v45h458l94 6v-188h-44l-53 128h-225v-242h123l27 83h41v-215h-43z" glyph-name="Egrave" horiz-adv-x="672"/>
<glyph unicode="É" d="M385 875h121v-21l-125 -118h-69zM396 313h-123v-254h227l86 140h45l-34 -199h-557v45l86 18v537l-83 19v45h458l94 6v-188h-44l-53 128h-225v-242h123l27 83h41v-215h-43z" glyph-name="Eacute" horiz-adv-x="672"/>
<glyph unicode="Ê" d="M256 736h-59l106 135h103l108 -135h-63l-98 67zM396 313h-123v-254h227l86 140h45l-34 -199h-557v45l86 18v537l-83 19v45h458l94 6v-188h-44l-53 128h-225v-242h123l27 83h41v-215h-43z" glyph-name="Ecircumflex" horiz-adv-x="672"/>
<glyph unicode="Ë" d="M396 313h-123v-254h227l86 140h45l-34 -199h-557v45l86 18v537l-83 19v45h458l94 6v-188h-44l-53 128h-225v-242h123l27 83h41v-215h-43zM232 737q-28 0 -48 20t-20 48q0 29 20 49.5t48 20.5t48.5 -21t20.5 -49t-20.5 -48t-48.5 -20zM469 737q-28 0 -48.5 20t-20.5 48 t20.5 49t48.5 21t48.5 -21t20.5 -49t-20.5 -48t-48.5 -20z" glyph-name="Edieresis" horiz-adv-x="672"/>
<glyph unicode="Ì" d="M37 0v45l87 18v537l-84 19v45h313v-45l-83 -19v-537l86 -18v-45h-319zM40 875h121l73 -139h-69l-125 118v21z" glyph-name="Igrave" horiz-adv-x="389"/>
<glyph unicode="Í" d="M37 0v45l87 18v537l-84 19v45h313v-45l-83 -19v-537l86 -18v-45h-319zM228 875h121v-21l-125 -118h-69z" glyph-name="Iacute" horiz-adv-x="389"/>
<glyph unicode="Î" d="M37 0v45l87 18v537l-84 19v45h313v-45l-83 -19v-537l86 -18v-45h-319zM98 736h-59l106 135h103l108 -135h-63l-98 67z" glyph-name="Icircumflex" horiz-adv-x="389"/>
<glyph unicode="Ï" d="M37 0v45l87 18v537l-84 19v45h313v-45l-83 -19v-537l86 -18v-45h-319zM77 737q-28 0 -48 20t-20 48q0 29 20 49.5t48 20.5t48.5 -21t20.5 -49t-20.5 -48t-48.5 -20zM314 737q-28 0 -48.5 20t-20.5 48t20.5 49t48.5 21t48.5 -21t20.5 -49t-20.5 -48t-48.5 -20z" glyph-name="Idieresis" horiz-adv-x="389"/>
<glyph unicode="Ð" d="M37 0v45l87 18v243h-97v56h97v238l-84 19v45l333 5q175 2 277.5 -87t102.5 -230q0 -165 -118.5 -261.5t-309.5 -94.5zM416 306h-148l1 -209q5 -54 102 -51q102 2 161.5 80.5t59.5 191.5q0 85 -26 147t-72 95.5t-102.5 47t-123.5 9.5v-255h148v-56z" glyph-name="Eth" horiz-adv-x="796"/>
<glyph unicode="Ñ" d="M425 756l-33 11q-47 16 -68 17.5t-32 -8t-24 -38.5l-35 14l4 13q17 55 42 80t55.5 24.5t70.5 -13.5l38 -13q65 -20 85 -13.5t39 50.5l36 -12l-4 -15q-15 -57 -40 -84t-58 -26.5t-76 13.5zM698 -5h-84l-418 504l3 -423l125 -33v-43h-282v45l86 21l1 521l-92 33v44h211 l379 -458l-2 380l-125 35v43h279v-45l-84 -23v-501z" glyph-name="Ntilde" horiz-adv-x="807"/>
<glyph unicode="Ò" d="M237 875h121l73 -139h-69l-125 118v21zM405 34q84 0 132 79.5t48 199.5q0 129 -57 221.5t-146 92.5q-86 0 -133 -78t-47 -197q0 -131 56 -224.5t147 -93.5zM394 683q161 0 255 -97t94 -246q0 -163 -101.5 -263t-250.5 -100q-152 0 -249.5 94t-97.5 249q0 164 100.5 263.5 t249.5 99.5z" glyph-name="Ograve" horiz-adv-x="787"/>
<glyph unicode="Ó" d="M425 875h121v-21l-125 -118h-69zM405 34q84 0 132 79.5t48 199.5q0 129 -57 221.5t-146 92.5q-86 0 -133 -78t-47 -197q0 -131 56 -224.5t147 -93.5zM394 683q161 0 255 -97t94 -246q0 -163 -101.5 -263t-250.5 -100q-152 0 -249.5 94t-97.5 249q0 164 100.5 263.5 t249.5 99.5z" glyph-name="Oacute" horiz-adv-x="787"/>
<glyph unicode="Ô" d="M296 736h-59l106 135h103l108 -135h-63l-98 67zM405 34q84 0 132 79.5t48 199.5q0 129 -57 221.5t-146 92.5q-86 0 -133 -78t-47 -197q0 -131 56 -224.5t147 -93.5zM394 683q161 0 255 -97t94 -246q0 -163 -101.5 -263t-250.5 -100q-152 0 -249.5 94t-97.5 249 q0 164 100.5 263.5t249.5 99.5z" glyph-name="Ocircumflex" horiz-adv-x="787"/>
<glyph unicode="Õ" d="M401 756l-33 11q-47 16 -68 17.5t-32 -8t-24 -38.5l-35 14l4 13q17 55 42 80t55.5 24.5t70.5 -13.5l38 -13q65 -20 85 -13.5t39 50.5l36 -12l-4 -15q-15 -57 -40 -84t-58 -26.5t-76 13.5zM405 34q84 0 132 79.5t48 199.5q0 129 -57 221.5t-146 92.5q-86 0 -133 -78 t-47 -197q0 -131 56 -224.5t147 -93.5zM394 683q161 0 255 -97t94 -246q0 -163 -101.5 -263t-250.5 -100q-152 0 -249.5 94t-97.5 249q0 164 100.5 263.5t249.5 99.5z" glyph-name="Otilde" horiz-adv-x="787"/>
<glyph unicode="Ö" d="M275 737q-28 0 -48 20t-20 48q0 29 20 49.5t48 20.5t48.5 -21t20.5 -49t-20.5 -48t-48.5 -20zM512 737q-28 0 -48.5 20t-20.5 48t20.5 49t48.5 21t48.5 -21t20.5 -49t-20.5 -48t-48.5 -20zM405 34q84 0 132 79.5t48 199.5q0 129 -57 221.5t-146 92.5q-86 0 -133 -78 t-47 -197q0 -131 56 -224.5t147 -93.5zM394 683q161 0 255 -97t94 -246q0 -163 -101.5 -263t-250.5 -100q-152 0 -249.5 94t-97.5 249q0 164 100.5 263.5t249.5 99.5z" glyph-name="Odieresis" horiz-adv-x="787"/>
<glyph unicode="×" d="M456 9l-182 183l-177 -182l-45 45l182 182l-182 181l47 47l180 -182l181 187l44 -45l-181 -184l181 -183z" glyph-name="multiply" horiz-adv-x="558"/>
<glyph unicode="Ø" d="M42 -33l95 111q-92 95 -92 242q0 163 100.5 263t248.5 100q120 0 208 -61l62 73h65l-89 -104q102 -97 102 -251q0 -165 -100 -264t-251 -99q-126 0 -217 68l-66 -78h-66zM589 316q0 99 -32 177l-309 -362q55 -99 159 -99q89 0 135.5 81t46.5 203zM384 627q-88 0 -136 -81 t-48 -207q0 -86 25 -157l307 358q-57 87 -148 87z" glyph-name="Oslash" horiz-adv-x="787"/>
<glyph unicode="Ù" d="M248 875h121l73 -139h-69l-125 118v21zM389 -22q-153 0 -220 70.5t-67 213.5v338l-84 19v45h313v-45l-82 -19v-335q0 -99 40 -155.5t125 -56.5q180 0 177 222l-3 314l-121 32v43h281v-45l-83 -23v-321q-1 -139 -74 -218t-202 -79z" glyph-name="Ugrave" horiz-adv-x="763"/>
<glyph unicode="Ú" d="M436 875h121v-21l-125 -118h-69zM389 -22q-153 0 -220 70.5t-67 213.5v338l-84 19v45h313v-45l-82 -19v-335q0 -99 40 -155.5t125 -56.5q180 0 177 222l-3 314l-121 32v43h281v-45l-83 -23v-321q-1 -139 -74 -218t-202 -79z" glyph-name="Uacute" horiz-adv-x="763"/>
<glyph unicode="Û" d="M306 736h-59l106 135h103l108 -135h-63l-98 67zM389 -22q-153 0 -220 70.5t-67 213.5v338l-84 19v45h313v-45l-82 -19v-335q0 -99 40 -155.5t125 -56.5q180 0 177 222l-3 314l-121 32v43h281v-45l-83 -23v-321q-1 -139 -74 -218t-202 -79z" glyph-name="Ucircumflex" horiz-adv-x="763"/>
<glyph unicode="Ü" d="M389 -22q-153 0 -220 70.5t-67 213.5v338l-84 19v45h313v-45l-82 -19v-335q0 -99 40 -155.5t125 -56.5q180 0 177 222l-3 314l-121 32v43h281v-45l-83 -23v-321q-1 -139 -74 -218t-202 -79zM285 737q-28 0 -48 20t-20 48q0 29 20 49.5t48 20.5t48.5 -21t20.5 -49 t-20.5 -48t-48.5 -20zM522 737q-28 0 -48.5 20t-20.5 48t20.5 49t48.5 21t48.5 -21t20.5 -49t-20.5 -48t-48.5 -20z" glyph-name="Udieresis" horiz-adv-x="763"/>
<glyph unicode="Ý" d="M593 597l-183 -317v-217l93 -18v-45h-333v45l93 18v188l-193 351l-64 17v45h314v-44l-81 -19l137 -279l145 272l-90 25v45h235v-44zM406 875h121v-21l-125 -118h-69z" glyph-name="Yacute" horiz-adv-x="672"/>
<glyph unicode="Þ" d="M37 0v45l87 18v537l-84 19v45h313v-45l-83 -19v-82h27q159 1 243 -44.5t84 -130.5q0 -68 -50 -114.5t-118.5 -63.5t-142.5 -12v37q163 22 163 139q0 63 -54.5 103.5t-151.5 40.5v-410l86 -18v-45h-319z" glyph-name="Thorn" horiz-adv-x="648"/>
<glyph unicode="ß" d="M25 0v44l66 17v365h-69v47l70 22q16 113 89.5 182t195.5 69q85 0 141 -39t56 -101q0 -25 -7.5 -45t-27 -38.5t-31 -27.5t-40.5 -29q-52 -36 -52 -65q0 -19 14.5 -34.5t49.5 -36.5l52 -31q52 -31 75 -63t23 -77q0 -73 -64 -125.5t-152 -52.5q-63 0 -127 35l-1 146h38 l36 -108q34 -23 69 -23q37 0 58.5 20.5t21.5 53.5q0 30 -16 50.5t-53 42.5l-57 34q-78 46 -78 110q0 55 68 111q46 38 66 66.5t20 69.5q0 49 -31 77t-76 28q-58 0 -92.5 -42.5t-34.5 -120.5l-1 -531h-199z" glyph-name="germandbls" horiz-adv-x="665"/>
<glyph unicode="à" d="M177 -14q-55 0 -95.5 35.5t-40.5 93.5t40.5 90t120.5 52l116 28v41q0 55 -22.5 86.5t-65.5 31.5q-34 0 -55 -13l-2 -103q-23 -10 -59 -10q-56 0 -56 51q0 43 68.5 86t153.5 43q92 0 132 -40t40 -126v-242q0 -21 7.5 -27.5t29.5 -6.5h43v-35q-71 -34 -122 -34 q-77 0 -88 86h-5q-44 -51 -63 -64q-33 -23 -77 -23zM248 71q40 0 70 35v136l-64 -20q-43 -14 -61.5 -31.5t-18.5 -45.5q0 -34 21.5 -54t52.5 -20zM244 565l-108 181v18h108l54 -199h-54z" glyph-name="agrave" horiz-adv-x="545"/>
<glyph unicode="á" d="M177 -14q-55 0 -95.5 35.5t-40.5 93.5t40.5 90t120.5 52l116 28v41q0 55 -22.5 86.5t-65.5 31.5q-34 0 -55 -13l-2 -103q-23 -10 -59 -10q-56 0 -56 51q0 43 68.5 86t153.5 43q92 0 132 -40t40 -126v-242q0 -21 7.5 -27.5t29.5 -6.5h43v-35q-71 -34 -122 -34 q-77 0 -88 86h-5q-44 -51 -63 -64q-33 -23 -77 -23zM248 71q40 0 70 35v136l-64 -20q-43 -14 -61.5 -31.5t-18.5 -45.5q0 -34 21.5 -54t52.5 -20zM290 764h109v-18l-108 -181h-54z" glyph-name="aacute" horiz-adv-x="545"/>
<glyph unicode="â" d="M177 -14q-55 0 -95.5 35.5t-40.5 93.5t40.5 90t120.5 52l116 28v41q0 55 -22.5 86.5t-65.5 31.5q-34 0 -55 -13l-2 -103q-23 -10 -59 -10q-56 0 -56 51q0 43 68.5 86t153.5 43q92 0 132 -40t40 -126v-242q0 -21 7.5 -27.5t29.5 -6.5h43v-35q-71 -34 -122 -34 q-77 0 -88 86h-5q-44 -51 -63 -64q-33 -23 -77 -23zM248 71q40 0 70 35v136l-64 -20q-43 -14 -61.5 -31.5t-18.5 -45.5q0 -34 21.5 -54t52.5 -20zM188 565h-54l99 199h77l99 -199h-59l-82 106z" glyph-name="acircumflex" horiz-adv-x="545"/>
<glyph unicode="ã" d="M177 -14q-55 0 -95.5 35.5t-40.5 93.5t40.5 90t120.5 52l116 28v41q0 55 -22.5 86.5t-65.5 31.5q-34 0 -55 -13l-2 -103q-23 -10 -59 -10q-56 0 -56 51q0 43 68.5 86t153.5 43q92 0 132 -40t40 -126v-242q0 -21 7.5 -27.5t29.5 -6.5h43v-35q-71 -34 -122 -34 q-77 0 -88 86h-5q-44 -51 -63 -64q-33 -23 -77 -23zM248 71q40 0 70 35v136l-64 -20q-43 -14 -61.5 -31.5t-18.5 -45.5q0 -34 21.5 -54t52.5 -20zM274 601l-32 14q-30 14 -47 19t-32.5 2.5t-24.5 -14.5t-19 -36l-35 17l5 13q30 78 72 99t97 -6l36 -16q53 -25 79 -18t46 57 l34 -17l-5 -14q-30 -84 -72.5 -106.5t-101.5 6.5z" glyph-name="atilde" horiz-adv-x="545"/>
<glyph unicode="ä" d="M177 -14q-55 0 -95.5 35.5t-40.5 93.5t40.5 90t120.5 52l116 28v41q0 55 -22.5 86.5t-65.5 31.5q-34 0 -55 -13l-2 -103q-23 -10 -59 -10q-56 0 -56 51q0 43 68.5 86t153.5 43q92 0 132 -40t40 -126v-242q0 -21 7.5 -27.5t29.5 -6.5h43v-35q-71 -34 -122 -34 q-77 0 -88 86h-5q-44 -51 -63 -64q-33 -23 -77 -23zM248 71q40 0 70 35v136l-64 -20q-43 -14 -61.5 -31.5t-18.5 -45.5q0 -34 21.5 -54t52.5 -20zM161 594q-28 0 -48 20.5t-20 48.5t20 48.5t48 20.5t48.5 -20.5t20.5 -48.5q0 -29 -20 -49t-49 -20zM376 594q-28 0 -48.5 20 t-20.5 49q0 28 20.5 48.5t48.5 20.5t48.5 -20.5t20.5 -48.5t-20.5 -48.5t-48.5 -20.5z" glyph-name="adieresis" horiz-adv-x="545"/>
<glyph unicode="å" d="M177 -14q-55 0 -95.5 35.5t-40.5 93.5t40.5 90t120.5 52l116 28v41q0 55 -22.5 86.5t-65.5 31.5q-34 0 -55 -13l-2 -103q-23 -10 -59 -10q-56 0 -56 51q0 43 68.5 86t153.5 43q92 0 132 -40t40 -126v-242q0 -21 7.5 -27.5t29.5 -6.5h43v-35q-71 -34 -122 -34 q-77 0 -88 86h-5q-44 -51 -63 -64q-33 -23 -77 -23zM248 71q40 0 70 35v136l-64 -20q-43 -14 -61.5 -31.5t-18.5 -45.5q0 -34 21.5 -54t52.5 -20zM150 674q0 49 34.5 82.5t84.5 33.5q51 0 85 -33t34 -83q0 -49 -34.5 -82.5t-84.5 -33.5q-51 0 -85 33t-34 83zM203 674 q0 -30 19.5 -49t46.5 -19t46.5 19t19.5 49t-19.5 49t-46.5 19t-46.5 -19t-19.5 -49z" glyph-name="aring" horiz-adv-x="545"/>
<glyph unicode="æ" d="M177 -14q-57 0 -96.5 36.5t-39.5 91.5q0 59 39 92t120 49l122 26v45q-1 57 -25.5 87.5t-65.5 30.5q-30 0 -56 -13l-2 -103q-23 -10 -58 -10q-57 0 -57 50q0 44 69 87t149 43q102 0 143 -72q55 74 152 74q85 0 131.5 -56.5t50.5 -144.5q-12 -3 -308 -42v-29 q11 -67 52.5 -105.5t105.5 -38.5q35 0 67.5 15t47.5 31l16 15l22 -21l-8 -12q-8 -13 -12 -18.5t-14 -19.5t-19 -21.5t-22.5 -19.5t-28 -19t-32 -14.5t-38 -11t-43.5 -3.5q-129 0 -187 106q-30 -33 -50.5 -52t-54.5 -36t-70 -17zM249 71q52 0 88 54q-15 40 -15 89v25l-61 -14 q-44 -11 -65.5 -29.5t-21.5 -50.5q0 -34 21.5 -54t53.5 -20zM542 444q-38 0 -67 -40t-30 -104l175 26q-1 53 -21.5 85.5t-56.5 32.5z" glyph-name="ae" horiz-adv-x="797"/>
<glyph unicode="ç" d="M137 -267l-9 35q27 10 42.5 16.5t31.5 23t16 37.5q0 32 -44 58l54 84q-88 11 -142 75t-54 162q0 123 81 199.5t188 76.5q69 0 112 -33.5t43 -80.5q0 -30 -18 -48t-51 -18l-42 4l-14 111q-22 11 -48 11q-56 0 -90 -48.5t-34 -112.5q0 -92 47.5 -146.5t119.5 -54.5 q30 0 58.5 13t42.5 27l14 13l22 -22q-43 -62 -75 -87q-49 -38 -113 -42l-25 -45q31 -6 51.5 -26.5t20.5 -50.5q0 -100 -185 -131z" glyph-name="ccedilla" horiz-adv-x="489"/>
<glyph unicode="è" d="M267 -15q-60 0 -107 22t-74 58t-40.5 76.5t-13.5 82.5q0 122 77 199t180 77q97 0 147 -64t52 -172h-334q6 -88 54.5 -134t122.5 -46q36 0 70.5 15t50.5 31l16 15l23 -21q-2 -3 -15 -21t-22.5 -29.5t-29.5 -30t-40.5 -30t-51 -20t-65.5 -8.5zM263 444q-41 0 -71 -35 t-37 -92h195q0 54 -21.5 90.5t-65.5 36.5zM252 565l-108 181v18h108l54 -199h-54z" glyph-name="egrave" horiz-adv-x="531"/>
<glyph unicode="é" d="M300 764h109v-18l-108 -181h-54zM267 -15q-60 0 -107 22t-74 58t-40.5 76.5t-13.5 82.5q0 122 77 199t180 77q97 0 147 -64t52 -172h-334q6 -88 54.5 -134t122.5 -46q36 0 70.5 15t50.5 31l16 15l23 -21q-2 -3 -15 -21t-22.5 -29.5t-29.5 -30t-40.5 -30t-51 -20 t-65.5 -8.5zM263 444q-41 0 -71 -35t-37 -92h195q0 54 -21.5 90.5t-65.5 36.5z" glyph-name="eacute" horiz-adv-x="531"/>
<glyph unicode="ê" d="M193 565h-54l99 199h77l99 -199h-59l-82 106zM267 -15q-60 0 -107 22t-74 58t-40.5 76.5t-13.5 82.5q0 122 77 199t180 77q97 0 147 -64t52 -172h-334q6 -88 54.5 -134t122.5 -46q36 0 70.5 15t50.5 31l16 15l23 -21q-2 -3 -15 -21t-22.5 -29.5t-29.5 -30t-40.5 -30 t-51 -20t-65.5 -8.5zM263 444q-41 0 -71 -35t-37 -92h195q0 54 -21.5 90.5t-65.5 36.5z" glyph-name="ecircumflex" horiz-adv-x="531"/>
<glyph unicode="ë" d="M171 594q-28 0 -48 20.5t-20 48.5t20 48.5t48 20.5t48.5 -20.5t20.5 -48.5q0 -29 -20 -49t-49 -20zM386 594q-28 0 -48.5 20t-20.5 49q0 28 20.5 48.5t48.5 20.5t48.5 -20.5t20.5 -48.5t-20.5 -48.5t-48.5 -20.5zM267 -15q-60 0 -107 22t-74 58t-40.5 76.5t-13.5 82.5 q0 122 77 199t180 77q97 0 147 -64t52 -172h-334q6 -88 54.5 -134t122.5 -46q36 0 70.5 15t50.5 31l16 15l23 -21q-2 -3 -15 -21t-22.5 -29.5t-29.5 -30t-40.5 -30t-51 -20t-65.5 -8.5zM263 444q-41 0 -71 -35t-37 -92h195q0 54 -21.5 90.5t-65.5 36.5z" glyph-name="edieresis" horiz-adv-x="531"/>
<glyph unicode="ì" d="M23 0v46l67 16v335l-64 17v46l197 40v-438l67 -16v-46h-267zM127 573l-108 181v18h108l54 -199h-54z" glyph-name="igrave" horiz-adv-x="312"/>
<glyph unicode="í" d="M177 772h109v-18l-108 -181h-54zM23 0v46l67 16v335l-64 17v46l197 40v-438l67 -16v-46h-267z" glyph-name="iacute" horiz-adv-x="312"/>
<glyph unicode="î" d="M72 573h-54l99 199h77l99 -199h-59l-82 106zM23 0v46l67 16v335l-64 17v46l197 40v-438l67 -16v-46h-267z" glyph-name="icircumflex" horiz-adv-x="312"/>
<glyph unicode="ï" d="M59 596q-28 0 -47.5 19.5t-19.5 47.5t19.5 48t47.5 20t48 -20t20 -48t-20 -47.5t-48 -19.5zM248 596q-28 0 -48 19.5t-20 47.5t20 48t48 20t48 -20t20 -48t-20 -47.5t-48 -19.5zM23 0v46l67 16v335l-64 17v46l197 40v-438l67 -16v-46h-267z" glyph-name="idieresis" horiz-adv-x="312"/>
<glyph unicode="ð" d="M102 538l-20 40l124 61q-44 38 -124 91l19 31q102 -37 181 -84l135 66l21 -40l-112 -55q219 -152 219 -378q0 -132 -73.5 -209.5t-183.5 -77.5q-120 0 -188 71t-68 179q0 113 76 185t169 72q37 0 67 -14q-38 68 -102 131zM406 228q0 92 -28 173q-2 1 -11 9t-16 12.5 t-18 11t-23.5 9.5t-25.5 3q-49 0 -80 -40t-31 -122q0 -103 35.5 -174.5t95.5 -71.5q53 0 77.5 52t24.5 138z" glyph-name="eth" horiz-adv-x="581"/>
<glyph unicode="ñ" d="M25 0v45l66 17v332l-68 15v39l168 53h5l22 -90h1q76 89 167 89q78 0 115.5 -40t37.5 -128v-271l68 -16v-45h-256v46l55 15v242q-2 55 -24 82.5t-69 26.5q-48 0 -89 -33v-318l60 -16v-45h-259zM313 601l-32 14q-30 14 -47 19t-32.5 2.5t-24.5 -14.5t-19 -36l-35 17l5 13 q30 78 72 99t97 -6l36 -16q53 -25 79 -18t46 57l34 -17l-5 -14q-30 -84 -72.5 -106.5t-101.5 6.5z" glyph-name="ntilde" horiz-adv-x="625"/>
<glyph unicode="ò" d="M172 277q0 -34 6 -71.5t19 -77t40 -65t64 -25.5q47 0 73 46.5t26 121.5q0 107 -36 172.5t-92 65.5q-48 0 -74 -46t-26 -121zM286 -17q-121 0 -189 72t-68 178q0 112 74 189t183 77q117 0 187 -67.5t70 -180.5t-73.5 -190.5t-183.5 -77.5zM259 565l-108 181v18h108 l54 -199h-54z" glyph-name="ograve" horiz-adv-x="572"/>
<glyph unicode="ó" d="M309 764h109v-18l-108 -181h-54zM172 277q0 -34 6 -71.5t19 -77t40 -65t64 -25.5q47 0 73 46.5t26 121.5q0 107 -36 172.5t-92 65.5q-48 0 -74 -46t-26 -121zM286 -17q-121 0 -189 72t-68 178q0 112 74 189t183 77q117 0 187 -67.5t70 -180.5t-73.5 -190.5t-183.5 -77.5z " glyph-name="oacute" horiz-adv-x="572"/>
<glyph unicode="ô" d="M204 565h-54l99 199h77l99 -199h-59l-82 106zM172 277q0 -34 6 -71.5t19 -77t40 -65t64 -25.5q47 0 73 46.5t26 121.5q0 107 -36 172.5t-92 65.5q-48 0 -74 -46t-26 -121zM286 -17q-121 0 -189 72t-68 178q0 112 74 189t183 77q117 0 187 -67.5t70 -180.5t-73.5 -190.5 t-183.5 -77.5z" glyph-name="ocircumflex" horiz-adv-x="572"/>
<glyph unicode="õ" d="M172 277q0 -34 6 -71.5t19 -77t40 -65t64 -25.5q47 0 73 46.5t26 121.5q0 107 -36 172.5t-92 65.5q-48 0 -74 -46t-26 -121zM286 -17q-121 0 -189 72t-68 178q0 112 74 189t183 77q117 0 187 -67.5t70 -180.5t-73.5 -190.5t-183.5 -77.5zM297 601l-32 14q-30 14 -47 19 t-32.5 2.5t-24.5 -14.5t-19 -36l-35 17l5 13q30 78 72 99t97 -6l36 -16q53 -25 79 -18t46 57l34 -17l-5 -14q-30 -84 -72.5 -106.5t-101.5 6.5z" glyph-name="otilde" horiz-adv-x="572"/>
<glyph unicode="ö" d="M177 594q-28 0 -48 20.5t-20 48.5t20 48.5t48 20.5t48.5 -20.5t20.5 -48.5q0 -29 -20 -49t-49 -20zM392 594q-28 0 -48.5 20t-20.5 49q0 28 20.5 48.5t48.5 20.5t48.5 -20.5t20.5 -48.5t-20.5 -48.5t-48.5 -20.5zM172 277q0 -34 6 -71.5t19 -77t40 -65t64 -25.5 q47 0 73 46.5t26 121.5q0 107 -36 172.5t-92 65.5q-48 0 -74 -46t-26 -121zM286 -17q-121 0 -189 72t-68 178q0 112 74 189t183 77q117 0 187 -67.5t70 -180.5t-73.5 -190.5t-183.5 -77.5z" glyph-name="odieresis" horiz-adv-x="572"/>
<glyph unicode="÷" d="M516 206h-474v62h474v-62zM278 -6q-31 0 -54 23t-23 55q0 30 23 53t54 23t54.5 -23t23.5 -53q0 -32 -23 -55t-55 -23zM279 325q-31 0 -54 23t-23 55q0 30 23 53t54 23t54.5 -23t23.5 -53q0 -32 -23 -55t-55 -23z" glyph-name="divide" horiz-adv-x="558"/>
<glyph unicode="ø" d="M83 -42h-59l77 94q-72 70 -72 181q0 112 74 189t183 77q86 0 149 -40l55 67h59l-78 -95q72 -70 72 -180q0 -113 -73.5 -190.5t-183.5 -77.5q-85 0 -149 41zM166 263q0 -67 14 -115l192 233q-35 64 -99 64q-49 0 -78 -49.5t-29 -132.5zM299 37q53 0 79.5 53.5t26.5 127.5 q0 65 -14 115l-192 -233q36 -63 100 -63z" glyph-name="oslash" horiz-adv-x="572"/>
<glyph unicode="ù" d="M441 -16l-40 87q-68 -87 -167 -87q-66 0 -109 41.5t-43 125.5v262l-68 16v44l202 22v-312q2 -112 90 -112q53 0 88 35v307l-77 15v44l211 22v-420l74 -17v-44zM289 565l-108 181v18h108l54 -199h-54z" glyph-name="ugrave" horiz-adv-x="615"/>
<glyph unicode="ú" d="M330 764h109v-18l-108 -181h-54zM441 -16l-40 87q-68 -87 -167 -87q-66 0 -109 41.5t-43 125.5v262l-68 16v44l202 22v-312q2 -112 90 -112q53 0 88 35v307l-77 15v44l211 22v-420l74 -17v-44z" glyph-name="uacute" horiz-adv-x="615"/>
<glyph unicode="û" d="M223 565h-54l99 199h77l99 -199h-59l-82 106zM441 -16l-40 87q-68 -87 -167 -87q-66 0 -109 41.5t-43 125.5v262l-68 16v44l202 22v-312q2 -112 90 -112q53 0 88 35v307l-77 15v44l211 22v-420l74 -17v-44z" glyph-name="ucircumflex" horiz-adv-x="615"/>
<glyph unicode="ü" d="M197 594q-28 0 -48 20.5t-20 48.5t20 48.5t48 20.5t48.5 -20.5t20.5 -48.5q0 -29 -20 -49t-49 -20zM412 594q-28 0 -48.5 20t-20.5 49q0 28 20.5 48.5t48.5 20.5t48.5 -20.5t20.5 -48.5t-20.5 -48.5t-48.5 -20.5zM441 -16l-40 87q-68 -87 -167 -87q-66 0 -109 41.5 t-43 125.5v262l-68 16v44l202 22v-312q2 -112 90 -112q53 0 88 35v307l-77 15v44l211 22v-420l74 -17v-44z" glyph-name="udieresis" horiz-adv-x="615"/>
<glyph unicode="ý" d="M421 418l-69 20v45h183v-46l-44 -14l-214 -537q-33 -82 -61 -113.5t-73 -31.5q-34 0 -58.5 21.5t-24.5 53.5q0 31 19 49t48 18q40 0 66 -48h3l46 108l-195 481l-44 14v45h260v-46l-69 -13l110 -317h4zM329 764h109v-18l-108 -181h-54z" glyph-name="yacute" horiz-adv-x="538"/>
<glyph unicode="þ" d="M71 -178v831l-67 18v43l201 32v-324q68 75 148 75q82 0 140.5 -57.5t58.5 -170.5q0 -122 -83 -203t-203 -81q-29 0 -61 9v-171l106 -19v-44h-305v45zM278 412q-38 0 -73 -24v-312q28 -38 87 -38q53 0 89.5 49t36.5 137q0 86 -38 137t-102 51z" glyph-name="thorn" horiz-adv-x="582"/>
</font>
</defs>
</svg>
